<?xml version="1.0" encoding="UTF-8"?>
<svg id="Layer_2" data-name="Layer 2" xmlns="http://www.w3.org/2000/svg" viewBox="0 0 19.63 4.58">
  <g id="Layer_1-2" data-name="Layer 1">
    <g id="id-ang-thong">
      <path d="M.56,4.49c-.22-.06-.41-.13-.56-.23v-1.53h1.28v.47h-.69v.76c.17.1.39.15.67.15.37,0,.65-.1.84-.3s.29-.5.29-.89-.1-.67-.3-.86c-.2-.18-.52-.28-.97-.28-.2,0-.4.02-.6.06s-.36.1-.5.19v-.47c.15-.08.33-.15.53-.19.2-.04.42-.06.66-.06.58,0,1.01.14,1.32.42.3.28.46.67.46,1.18s-.15.91-.45,1.21c-.3.3-.73.44-1.28.44-.24,0-.47-.03-.69-.08Z" style="fill: #fff;"/>
      <path d="M2.3,0h.58v.96h-.58v-.96Z" style="fill: #fff;"/>
      <path d="M4.7,2.5c0-.25-.05-.42-.15-.54-.1-.11-.28-.17-.53-.17s-.48.05-.69.16v-.46c.09-.05.21-.08.36-.12s.29-.05.44-.05c.39,0,.68.1.87.31.19.21.29.51.29.9v1.95h-.59v-1.99Z" style="fill: #fff;"/>
      <path d="M5.92,1.8h.59l.73,2.23c.36,0,.64-.1.83-.3s.29-.48.29-.85-.07-.63-.2-.82c-.13-.18-.35-.28-.64-.28-.14,0-.27.02-.4.05v-.45c.15-.04.32-.06.5-.06.44,0,.77.14,1,.41.23.28.34.66.34,1.14,0,.33-.07.62-.21.86s-.34.43-.58.55-.52.19-.82.19h-.55l-.87-2.69Z" style="fill: #fff;"/>
      <path d="M9.59,1.41h.56v.41c.15-.17.32-.29.53-.38s.41-.12.61-.12c.38,0,.66.1.86.31.2.21.3.47.3.8v2.05h-.59v-2.02c0-.21-.06-.38-.18-.5-.12-.12-.3-.18-.55-.18-.42,0-.74.17-.96.52v2.17h-.59V1.41Z" style="fill: #fff;"/>
      <path d="M13.65,4.49c-.22-.06-.41-.13-.56-.23v-1.53h1.28v.47h-.69v.76c.17.1.39.15.67.15.37,0,.65-.1.84-.3s.29-.5.29-.89-.1-.67-.3-.86c-.2-.18-.52-.28-.97-.28-.2,0-.4.02-.6.06s-.36.1-.5.19v-.47c.15-.08.33-.15.53-.19.2-.04.42-.06.66-.06.58,0,1.01.14,1.32.42.3.28.46.67.46,1.18s-.15.91-.45,1.21c-.3.3-.73.44-1.28.44-.24,0-.47-.03-.69-.08Z" style="fill: #fff;"/>
      <path d="M16.59,1.8h.59l.73,2.23c.36,0,.64-.1.83-.3s.29-.48.29-.85-.07-.63-.2-.82c-.13-.18-.35-.28-.64-.28-.14,0-.27.02-.4.05v-.45c.15-.04.32-.06.5-.06.44,0,.77.14,1,.41.23.28.34.66.34,1.14,0,.33-.07.62-.21.86s-.34.43-.58.55-.52.19-.82.19h-.55l-.87-2.69Z" style="fill: #fff;"/>
    </g>
  </g>
</svg>