<?xml version="1.0" encoding="UTF-8"?>
<svg id="Layer_2" data-name="Layer 2" xmlns="http://www.w3.org/2000/svg" viewBox="0 0 38.22 6.99">
  <g id="Layer_1-2" data-name="Layer 1">
    <g id="id-amnat-charoen">
      <path d="M.78,6.25c-.31-.07-.58-.17-.78-.3v-2.13h1.82v.78h-.86v.84c.19.1.45.15.78.15.45,0,.78-.12,1.01-.36.23-.24.34-.6.34-1.06,0-.32-.05-.58-.15-.78-.1-.2-.27-.34-.5-.44s-.55-.14-.94-.14c-.26,0-.52.03-.79.08-.27.05-.49.13-.67.23v-.75c.2-.1.44-.18.73-.23s.58-.08.89-.08c.77,0,1.37.18,1.79.55.42.37.63.89.63,1.56s-.2,1.21-.6,1.6c-.4.39-.98.59-1.74.59-.32,0-.64-.04-.96-.11Z" style="fill: #fff;"/>
      <path d="M2.76,1.49c-.17-.17-.25-.37-.25-.62s.09-.44.26-.62c.17-.17.38-.26.62-.26s.44.09.61.26c.17.17.25.38.25.62s-.08.45-.25.62c-.17.17-.37.25-.61.25s-.45-.08-.62-.25ZM3.6,1.11c.07-.07.1-.15.1-.23s-.03-.16-.09-.23-.14-.1-.22-.1c-.09,0-.17.03-.23.1-.06.07-.09.14-.09.24,0,.09.03.16.09.23s.14.1.23.1c.08,0,.15-.03.22-.1ZM6.19,3.64c0-.3-.06-.51-.18-.64-.12-.13-.33-.19-.64-.19-.28,0-.57.07-.87.22v-.75c.12-.06.28-.11.48-.16.2-.04.4-.06.59-.06.52,0,.92.14,1.18.43.27.28.4.69.4,1.22v2.54h-.96v-2.6Z" style="fill: #fff;"/>
      <path d="M8.79,6.15c-.24-.13-.42-.32-.54-.55-.12-.24-.19-.5-.19-.79v-2.64h.97v2.59c0,.56.3.84.89.84.47,0,.83-.21,1.09-.62v-2.81h.97v4.07h-.93v-.5c-.19.2-.41.36-.66.46-.25.1-.5.16-.75.16-.33,0-.61-.07-.85-.2Z" style="fill: #fff;"/>
      <path d="M14.2,3.64c0-.3-.06-.51-.18-.64-.12-.13-.33-.19-.64-.19-.28,0-.57.07-.87.22v-.75c.12-.06.28-.11.48-.16.2-.04.4-.06.59-.06.52,0,.92.14,1.18.43.27.28.4.69.4,1.22v2.54h-.96v-2.6Z" style="fill: #fff;"/>
      <path d="M16.08,4.01h.96l.36,1.48c.43,0,.77-.11,1.03-.34s.39-.55.39-.96c0-.45-.11-.79-.34-1.02-.23-.24-.61-.35-1.13-.35-.25,0-.51.03-.78.08s-.48.12-.65.2v-.75c.2-.09.43-.15.71-.2s.55-.07.84-.07c.74,0,1.31.19,1.72.55.41.37.62.89.62,1.57,0,.41-.1.77-.3,1.08-.2.31-.48.55-.83.72-.35.17-.73.25-1.15.25h-.9l-.55-2.23Z" style="fill: #fff;"/>
      <path d="M20.79,6.02c-.14-.15-.21-.36-.21-.63v-3.22h.97v2.91c0,.13.03.22.08.27.06.05.15.08.27.08h.27v.81h-.78c-.26,0-.46-.07-.6-.22Z" style="fill: #fff;"/>
      <path d="M22.93,4.01h.96l.36,1.48c.43,0,.77-.11,1.03-.34s.39-.55.39-.96c0-.45-.11-.79-.34-1.02-.23-.24-.61-.35-1.13-.35-.25,0-.51.03-.78.08s-.48.12-.65.2v-.75c.2-.09.43-.15.71-.2s.55-.07.84-.07c.74,0,1.31.19,1.72.55.41.37.62.89.62,1.57,0,.41-.1.77-.3,1.08-.2.31-.48.55-.83.72-.35.17-.73.25-1.15.25h-.9l-.55-2.23Z" style="fill: #fff;"/>
      <path d="M28,6.26c-.3-.06-.53-.15-.7-.27v-.75c.22.13.47.23.74.3.27.07.52.1.75.1.3,0,.52-.03.66-.09.13-.06.2-.17.2-.34,0-.12-.04-.21-.11-.28-.07-.07-.17-.13-.29-.17-.12-.05-.35-.12-.68-.22-.44-.14-.76-.3-.98-.49-.21-.19-.32-.45-.32-.78,0-.38.15-.67.46-.88.3-.21.71-.31,1.23-.31.27,0,.54.03.79.09s.46.14.62.23v.79c-.17-.11-.37-.19-.6-.26-.24-.07-.47-.1-.71-.1-.54,0-.81.15-.81.44,0,.11.03.19.1.26.07.07.15.12.27.16.11.04.28.1.51.17l.25.08c.32.1.58.21.76.33.18.12.31.25.38.4.07.15.11.34.11.56,0,.34-.14.61-.43.82-.29.21-.72.32-1.3.32-.29,0-.58-.03-.88-.09Z" style="fill: #fff;"/>
      <path d="M27.06,1h3.4v.62h-3.4v-.62Z" style="fill: #fff;"/>
      <path d="M35.43,6.9c-.27-.06-.49-.13-.66-.23v-.8c.44.24.94.36,1.49.36.37,0,.64-.04.81-.12.18-.08.27-.2.27-.37,0-.11-.04-.21-.12-.3-.33.16-.68.24-1.04.24-.62,0-1.09-.15-1.41-.44-.32-.3-.48-.71-.48-1.24v-.26c0-.32-.08-.55-.23-.7-.15-.15-.38-.22-.69-.22-.23,0-.44.04-.62.11-.18.07-.34.19-.49.35l.31.5v1.31c0,.13.03.22.08.28s.15.08.28.08h.43v.81h-.93c-.27,0-.47-.08-.62-.23-.14-.15-.21-.36-.21-.62v-1.63l-.38-.63c.28-.35.59-.62.94-.8.35-.18.75-.27,1.2-.27.61,0,1.08.14,1.4.42.32.28.48.68.48,1.18v.26c0,.34.07.6.22.76.14.17.39.25.74.25.64,0,.96-.34.96-1.01v-1.75h.97v1.82c0,.31-.1.62-.3.92.26.23.39.5.39.83,0,.4-.18.7-.55.92-.37.22-.84.32-1.41.32-.28,0-.55-.03-.83-.08Z" style="fill: #fff;"/>
    </g>
  </g>
</svg>