<?xml version="1.0" encoding="UTF-8"?>
<svg id="Layer_2" data-name="Layer 2" xmlns="http://www.w3.org/2000/svg" viewBox="0 0 48.53 17.79">
  <g id="Layer_1-2" data-name="Layer 1">
    <g id="id-buri-ram">
      <path d="M2.1,13.08c-.67-.32-1.19-.77-1.55-1.34-.36-.57-.54-1.23-.54-1.96v-5.39h2.12v5.31c0,.7.19,1.25.58,1.64.39.39.97.58,1.74.58s1.33-.19,1.72-.58c.39-.39.58-.94.58-1.64v-5.31h2.12v5.39c0,.73-.18,1.39-.54,1.96-.36.57-.88,1.02-1.54,1.34s-1.45.48-2.34.48-1.67-.16-2.35-.48Z" style="fill: #fff;"/>
      <path d="M7.01,16.07c0-.2-.03-.34-.1-.42-.07-.08-.2-.12-.4-.12h-.58v-1.35h1.55c.56,0,.93.1,1.13.31.2.21.3.58.3,1.13v2.17h-1.9v-1.72Z" style="fill: #fff;"/>
      <path d="M12.13,13.36c-.65-.13-1.16-.33-1.53-.6v-1.65c.49.29,1.03.51,1.63.65.6.15,1.14.22,1.64.22.67,0,1.15-.07,1.45-.2.29-.13.44-.38.44-.75,0-.26-.08-.46-.23-.61-.16-.15-.37-.28-.63-.38-.27-.1-.77-.26-1.5-.48-.96-.3-1.67-.66-2.15-1.09-.47-.42-.71-1-.71-1.72,0-.83.33-1.48,1-1.94s1.57-.68,2.71-.68c.6,0,1.18.06,1.73.19.55.13,1,.3,1.36.51v1.74c-.37-.23-.81-.42-1.33-.57-.52-.14-1.04-.22-1.56-.22-1.19,0-1.79.32-1.79.97,0,.23.07.42.22.57.14.15.34.26.58.36.24.09.62.22,1.12.38l.55.17c.71.22,1.27.46,1.66.72.4.26.67.55.84.89.16.33.24.75.24,1.24,0,.75-.32,1.35-.95,1.81s-1.59.69-2.86.69c-.63,0-1.28-.07-1.93-.2Z" style="fill: #fff;"/>
      <path d="M10.1,1.8h5.56V0h1.9v3.16h-7.46v-1.35Z" style="fill: #fff;"/>
      <path d="M20.8,13.36c-.65-.13-1.16-.33-1.53-.6v-1.65c.49.29,1.03.51,1.63.65.6.15,1.14.22,1.64.22.67,0,1.15-.07,1.45-.2.29-.13.44-.38.44-.75,0-.26-.08-.46-.23-.61-.16-.15-.37-.28-.63-.38-.27-.1-.77-.26-1.5-.48-.96-.3-1.67-.66-2.15-1.09-.47-.42-.71-1-.71-1.72,0-.83.33-1.48,1-1.94s1.57-.68,2.71-.68c.6,0,1.18.06,1.73.19.55.13,1,.3,1.36.51v1.74c-.37-.23-.81-.42-1.33-.57-.52-.14-1.04-.22-1.56-.22-1.19,0-1.79.32-1.79.97,0,.23.07.42.22.57.14.15.34.26.58.36.24.09.62.22,1.12.38l.55.17c.71.22,1.27.46,1.66.72.4.26.67.55.84.89.16.33.24.75.24,1.24,0,.75-.32,1.35-.95,1.81s-1.59.69-2.86.69c-.63,0-1.28-.07-1.93-.2Z" style="fill: #fff;"/>
      <path d="M21.69,2.76c-.24-.27-.36-.67-.36-1.2v-.97h1.9v.77c0,.18.03.3.1.36.07.06.19.09.37.09h3.97v1.35h-4.84c-.52,0-.9-.13-1.14-.4Z" style="fill: #fff;"/>
      <path d="M31.69,13.22c-.54-.23-1.02-.56-1.45-1.01v1.1h-2.04V4.38h2.12v6.16c.58.91,1.38,1.37,2.41,1.37,1.31,0,1.97-.61,1.97-1.84v-5.69h2.1v5.79c0,.63-.14,1.21-.41,1.73-.27.52-.67.92-1.19,1.22-.52.29-1.15.44-1.87.44-.56,0-1.1-.11-1.64-.34Z" style="fill: #fff;"/>
      <path d="M39.68,12.79c-.8-.51-1.2-1.24-1.2-2.17,0-.46.13-.87.4-1.24.27-.37.61-.62,1.04-.77-.4-.19-.73-.46-.98-.82-.25-.36-.38-.76-.38-1.2,0-.75.26-1.34.77-1.8.51-.45,1.27-.68,2.27-.68.31,0,.61.02.9.06.29.04.52.09.69.14v1.65c-.15-.07-.33-.12-.56-.15-.23-.03-.43-.05-.61-.05-.86,0-1.29.32-1.29.95,0,.35.11.6.32.77.21.17.55.25,1.02.25h1.12v1.72h-1.12c-.95,0-1.42.38-1.42,1.15,0,.4.2.72.59.94.4.23.94.34,1.63.34.87,0,1.5-.18,1.91-.53.41-.36.61-.88.61-1.57v-5.44h2.12v5.41c0,.63-.15,1.24-.46,1.81-.31.57-.81,1.05-1.5,1.42-.7.37-1.59.56-2.68.56-1.33,0-2.39-.26-3.19-.77Z" style="fill: #fff;"/>
      <path d="M43.29,2.09c0-.47.12-.82.37-1.06.24-.24.64-.36,1.19-.36h3.69v1.35h-2.84c-.19,0-.32.04-.39.12-.07.08-.11.21-.11.4v.62h-1.9v-1.07Z" style="fill: #fff;"/>
    </g>
  </g>
</svg>