<?xml version="1.0" encoding="UTF-8"?>
<svg id="Layer_2" data-name="Layer 2" xmlns="http://www.w3.org/2000/svg" viewBox="0 0 32.36 9.18">
  <g id="Layer_1-2" data-name="Layer 1">
    <g id="id-bueng-kan">
      <path d="M1.4,8.85c-.45-.21-.79-.51-1.04-.9-.24-.38-.36-.82-.36-1.31v-3.59h1.41v3.54c0,.47.13.83.39,1.09.26.26.64.39,1.16.39s.89-.13,1.15-.39c.26-.26.39-.62.39-1.09v-3.54h1.41v3.59c0,.49-.12.93-.36,1.31-.24.38-.58.68-1.03.9s-.96.32-1.56.32-1.11-.11-1.56-.32Z" style="fill: #fff;"/>
      <path d="M.97,1.35h2.93c-.02-.09-.03-.18-.03-.27,0-.31.11-.57.32-.77.21-.2.49-.31.82-.31.36,0,.64.11.85.33.21.22.31.48.31.77,0,.33-.12.61-.35.82-.23.22-.54.32-.91.32H.97v-.9ZM5.37,1.45c.1-.1.15-.22.15-.35s-.05-.25-.15-.35c-.1-.1-.22-.15-.35-.15s-.25.05-.35.15c-.1.1-.15.22-.15.35s.05.25.15.35c.1.1.22.15.35.15s.25-.05.35-.15Z" style="fill: #fff;"/>
      <path d="M7.02,3.8h1.41l1.3,4.1c.62,0,1.1-.18,1.44-.53.34-.35.51-.85.51-1.51s-.11-1.1-.34-1.41c-.23-.31-.6-.47-1.1-.47-.27,0-.53.04-.77.11v-1.08c.29-.09.63-.13,1.01-.13.87,0,1.53.26,1.97.79.45.53.67,1.26.67,2.19,0,.65-.14,1.22-.43,1.69-.29.48-.67.83-1.15,1.08-.48.24-1.02.37-1.6.37h-1.28l-1.65-5.21Z" style="fill: #fff;"/>
      <path d="M14.57,5.38l-.56-.92c.41-.51.88-.9,1.41-1.17.53-.27,1.14-.4,1.84-.4.93,0,1.64.21,2.13.62s.74.99.74,1.72v3.77h-1.41v-3.66c0-.46-.12-.8-.37-1.02s-.61-.33-1.09-.33c-.36,0-.68.05-.96.16-.28.1-.54.27-.77.51l.46.73v3.62h-1.41v-3.63Z" style="fill: #fff;"/>
      <path d="M23.38,5.21c0-.44-.09-.75-.26-.93-.17-.19-.49-.28-.94-.28-.42,0-.84.11-1.27.32v-1.1c.18-.09.41-.17.71-.23s.58-.09.86-.09c.76,0,1.34.21,1.73.62.39.42.58,1.01.58,1.78v3.72h-1.41v-3.8Z" style="fill: #fff;"/>
      <path d="M26.13,3.06h1.4v3.89l1.33-2.28h.56l1.33,2.28v-2.39c0-.39-.08-.66-.26-.82s-.47-.24-.91-.24v-.78l1.21-1.66h1.56l-1.28,1.75c.42.13.7.34.85.62.15.28.23.67.23,1.16v4.42h-1.27l-1.75-2.96-1.75,2.96h-1.27V3.06Z" style="fill: #fff;"/>
    </g>
  </g>
</svg>