<?xml version="1.0" encoding="UTF-8"?>
<svg id="Layer_2" data-name="Layer 2" xmlns="http://www.w3.org/2000/svg" viewBox="0 0 23.47 4.9">
  <g id="Layer_1-2" data-name="Layer 1">
    <g id="id-bangkok">
      <path d="M.3,1.31l-.3-.49C.21.55.46.35.73.21s.6-.21.97-.21c.48,0,.85.11,1.11.33.26.22.39.53.39.92v2.07h-.62V1.3c0-.28-.07-.48-.22-.61-.15-.13-.37-.2-.66-.2-.22,0-.42.03-.58.1s-.32.17-.46.32l.26.4v2.01H.3V1.31Z" style="fill: #fff;"/>
      <path d="M4.41,3.33c-.23-.05-.41-.12-.54-.22v-.49c.17.1.36.18.57.24s.41.08.59.08c.27,0,.46-.03.57-.09.12-.06.17-.17.17-.32,0-.1-.03-.19-.08-.25-.06-.06-.14-.12-.26-.17-.11-.05-.29-.11-.54-.18-.35-.11-.62-.24-.79-.38-.17-.15-.26-.35-.26-.61,0-.3.11-.53.34-.68s.54-.24.94-.24c.21,0,.4.02.59.07.19.05.35.11.47.18v.51c-.14-.08-.29-.15-.47-.2-.18-.05-.36-.07-.54-.07-.48,0-.72.15-.72.43,0,.11.03.19.1.26.07.06.15.12.26.16.11.04.3.1.56.18.26.08.46.16.6.25s.25.19.31.31.09.27.09.45c0,.27-.11.48-.33.64-.22.16-.54.24-.98.24-.22,0-.45-.02-.68-.08Z" style="fill: #fff;"/>
      <path d="M5.72,4.29c0-.07-.01-.12-.04-.15-.03-.03-.08-.04-.15-.04h-.2v-.44h.49c.18,0,.3.04.37.11.06.07.09.2.09.39v.75h-.56v-.61Z" style="fill: #fff;"/>
      <path d="M6.94.49h.62l.77,2.34c.38,0,.67-.1.88-.31s.31-.5.31-.89-.07-.66-.21-.86-.37-.29-.67-.29c-.14,0-.29.02-.42.05V.07c.16-.04.34-.07.53-.07.46,0,.81.14,1.05.43s.36.69.36,1.2c0,.35-.08.65-.23.9-.15.25-.35.45-.61.58-.26.13-.54.2-.86.2h-.58l-.92-2.82Z" style="fill: #fff;"/>
      <path d="M10.95,3.15c-.1-.11-.15-.27-.15-.47V.09h.62v2.42c0,.11.02.18.07.23.04.04.12.06.23.06h.22v.51h-.52c-.2,0-.35-.06-.45-.17Z" style="fill: #fff;"/>
      <path d="M12.59.09h.59v.43c.16-.18.34-.31.55-.4.21-.09.42-.13.64-.13.39,0,.7.11.91.33.21.22.31.5.31.84v2.15h-.62V1.19c0-.23-.06-.4-.19-.52-.12-.12-.32-.18-.58-.18-.44,0-.77.18-1.01.55v2.28h-.62V.09Z" style="fill: #fff;"/>
      <path d="M16.19.09h.62l.58,2.36.7-2.36h.47l.69,2.36.59-2.36h.61l-.9,3.23h-.52l-.72-2.42-.72,2.42h-.52l-.89-3.23Z" style="fill: #fff;"/>
      <path d="M22.85,1.76c-.23.15-.54.22-.92.22-.33,0-.59-.09-.8-.26s-.31-.41-.31-.73.09-.56.28-.73c.19-.17.43-.26.74-.26.23,0,.4.03.54.08v.46c-.12-.04-.24-.05-.37-.05-.17,0-.31.04-.41.12-.1.08-.15.21-.15.38,0,.33.21.5.63.5.3,0,.56-.08.78-.24V.09h.62v3.23h-.62v-1.56Z" style="fill: #fff;"/>
    </g>
  </g>
</svg>