<?xml version="1.0" encoding="UTF-8"?>
<svg id="Layer_2" data-name="Layer 2" xmlns="http://www.w3.org/2000/svg" viewBox="0 0 31.23 8.61">
  <g id="Layer_1-2" data-name="Layer 1">
    <g id="id-chai-nat">
      <path d="M1.33,8.33c-.4-.19-.72-.45-.94-.79-.22-.34-.33-.73-.33-1.17v-.38c0-.25.06-.49.17-.71.11-.22.27-.46.46-.72.14-.19.25-.35.31-.47s.1-.23.1-.34c0-.14-.04-.24-.11-.3s-.19-.09-.35-.09h-.63v-.91h1.18c.33,0,.59.1.78.29.19.19.29.44.29.76,0,.22-.04.42-.13.6-.09.18-.22.41-.4.67-.18.27-.31.49-.39.65-.08.16-.12.34-.12.54v.42c0,.43.13.76.4,1s.64.36,1.12.36c.51,0,.91-.14,1.19-.42s.43-.69.43-1.22-.11-.94-.34-1.21-.55-.4-.99-.4v-.62l1.2-1.57h1.24l-1.27,1.67c.46.17.79.44.99.79.21.36.31.8.31,1.34s-.11.97-.34,1.35-.55.68-.97.88c-.42.21-.9.31-1.45.31s-1-.09-1.4-.28Z" style="fill: #fff;"/>
      <path d="M2.51,1.31c-.15-.16-.22-.4-.22-.72v-.58h1.03v.45c0,.13.02.21.07.26s.14.07.28.07h2.65v.77h-3.11c-.32,0-.56-.08-.7-.24Z" style="fill: #fff;"/>
      <path d="M7.33,8.12c-.52-.33-.77-.81-.77-1.44,0-.33.09-.62.27-.87.18-.25.43-.42.74-.52-.29-.13-.53-.31-.7-.55s-.26-.52-.26-.83c0-.49.16-.89.49-1.19.33-.3.81-.45,1.45-.45.18,0,.36.01.55.04.19.03.34.05.45.08v.9c-.1-.04-.22-.07-.38-.08-.15-.02-.29-.03-.42-.03-.32,0-.57.07-.74.21-.17.14-.25.34-.25.59,0,.27.09.48.27.62s.45.21.8.21h.72v.94h-.71c-.36,0-.64.08-.83.23-.19.15-.29.39-.29.7s.15.58.46.76c.3.18.72.27,1.24.27,1.24,0,1.85-.52,1.85-1.57v-3.71h1.15v3.68c0,.42-.1.82-.29,1.2-.19.38-.51.69-.96.93-.45.24-1.03.37-1.75.37-.87,0-1.56-.16-2.08-.49Z" style="fill: #fff;"/>
      <path d="M14.48,8c-.41-.41-.61-.94-.61-1.59v-3.96h1.15v3.92c0,.45.12.79.38,1.02.25.23.62.34,1.11.34.77,0,1.38-.34,1.82-1.03V2.44h1.15v6.01h-1.11v-.81c-.56.65-1.28.98-2.16.98-.73,0-1.3-.21-1.71-.62Z" style="fill: #fff;"/>
      <path d="M23.03,4.56c0-.48-.1-.83-.29-1.05-.2-.22-.54-.33-1.03-.33s-.93.1-1.35.31v-.9c.18-.09.41-.17.7-.23.29-.06.58-.1.86-.1.76,0,1.32.2,1.7.61.37.41.56.99.56,1.76v3.81h-1.15v-3.89Z" style="fill: #fff;"/>
      <path d="M25.64,2.44h1.1v.81c.29-.33.63-.57,1.03-.74.39-.16.79-.24,1.2-.24.73,0,1.29.2,1.68.61.39.4.58.92.58,1.56v4.01h-1.15v-3.95c0-.42-.12-.74-.35-.97-.23-.23-.59-.34-1.08-.34-.82,0-1.44.34-1.88,1.02v4.25h-1.15V2.44Z" style="fill: #fff;"/>
    </g>
  </g>
</svg>