<?xml version="1.0" encoding="UTF-8"?>
<svg id="Layer_2" data-name="Layer 2" xmlns="http://www.w3.org/2000/svg" viewBox="0 0 61.49 13.76">
  <g id="Layer_1-2" data-name="Layer 1">
    <g id="id-chiang-rai">
      <path d="M.47,13c-.31-.33-.47-.8-.47-1.4v-7.17h2.15v6.49c0,.29.06.5.19.61.12.11.33.17.61.17h.59v1.8h-1.73c-.59,0-1.04-.17-1.35-.5Z" style="fill: #fff;"/>
      <path d="M7,13.33c-.63-.29-1.12-.69-1.47-1.2-.35-.51-.53-1.1-.53-1.75v-.42c0-.4.08-.76.25-1.1.17-.34.4-.72.7-1.14.2-.3.34-.52.42-.66.08-.14.12-.27.12-.41,0-.34-.21-.51-.63-.51h-.97v-1.69h2.1c.51,0,.91.14,1.21.43.3.29.45.68.45,1.16,0,.34-.07.65-.2.93-.13.28-.32.63-.57,1.03-.25.41-.43.74-.56,1.01-.12.27-.19.55-.19.86v.42c0,.56.18,1.01.53,1.32.36.32.86.47,1.52.47.69,0,1.22-.19,1.58-.57s.55-.93.55-1.67c0-1.48-.6-2.22-1.81-2.22v-1.14l1.73-2.3h2.3l-1.88,2.51c.64.31,1.11.71,1.39,1.22s.42,1.15.42,1.93-.18,1.43-.53,2.02c-.35.59-.85,1.06-1.5,1.39s-1.4.5-2.26.5-1.57-.14-2.2-.43Z" style="fill: #fff;"/>
      <path d="M5.68,1.83h5.64V0h1.93v3.2h-7.57v-1.37Z" style="fill: #fff;"/>
      <path d="M16.13,12.98c-.81-.52-1.22-1.25-1.22-2.2,0-.46.14-.88.41-1.25.27-.37.62-.63,1.05-.78-.41-.19-.74-.47-.99-.83s-.38-.77-.38-1.22c0-.76.26-1.36.78-1.82s1.29-.69,2.3-.69c.32,0,.62.02.91.06.29.04.53.09.7.14v1.68c-.15-.07-.34-.12-.57-.15-.23-.03-.44-.05-.62-.05-.87,0-1.3.32-1.3.97,0,.35.11.61.32.78s.56.25,1.03.25h1.14v1.75h-1.14c-.96,0-1.44.39-1.44,1.17,0,.41.2.73.6.96.4.23.95.35,1.65.35.88,0,1.53-.18,1.94-.54.41-.36.62-.89.62-1.59v-5.52h2.15v5.49c0,.64-.16,1.26-.47,1.84-.31.58-.82,1.06-1.52,1.44s-1.61.57-2.72.57c-1.34,0-2.42-.26-3.24-.78Z" style="fill: #fff;"/>
      <path d="M25.77,5.57h2.15l1.98,6.25c.95,0,1.68-.27,2.19-.81.51-.54.77-1.3.77-2.3s-.18-1.68-.53-2.15c-.35-.47-.91-.71-1.68-.71-.42,0-.81.06-1.17.17v-1.64c.44-.14.95-.2,1.54-.2,1.32,0,2.32.4,3.01,1.2.68.8,1.02,1.91,1.02,3.34,0,.99-.22,1.85-.65,2.58-.43.72-1.02,1.27-1.75,1.64-.73.37-1.55.56-2.44.56h-1.95l-2.51-7.93Z" style="fill: #fff;"/>
      <path d="M38.05,13.56c-.66-.14-1.18-.34-1.55-.61v-1.68c.5.29,1.05.51,1.65.66s1.16.22,1.67.22c.68,0,1.17-.07,1.47-.2.3-.14.45-.39.45-.76,0-.26-.08-.47-.24-.62-.16-.15-.37-.28-.64-.38-.27-.1-.78-.27-1.52-.49-.97-.3-1.7-.67-2.18-1.1-.48-.43-.72-1.01-.72-1.75,0-.85.34-1.5,1.02-1.97.68-.46,1.59-.69,2.75-.69.61,0,1.19.06,1.75.19.56.13,1.02.3,1.38.52v1.76c-.37-.24-.82-.43-1.35-.58-.53-.15-1.05-.22-1.58-.22-1.21,0-1.81.33-1.81.98,0,.24.07.43.22.58.15.15.34.27.59.36.25.1.63.22,1.14.38l.56.17c.72.23,1.29.47,1.69.73.4.26.68.56.85.9.16.34.25.76.25,1.25,0,.76-.32,1.37-.97,1.84-.64.47-1.61.7-2.9.7-.64,0-1.3-.07-1.96-.2Z" style="fill: #fff;"/>
      <path d="M48.48,7.71c0-.67-.13-1.14-.4-1.42-.27-.28-.74-.42-1.43-.42-.63,0-1.28.16-1.93.49v-1.68c.27-.14.63-.25,1.08-.35.45-.1.88-.14,1.31-.14,1.16,0,2.04.32,2.63.95s.89,1.54.89,2.71v5.66h-2.15v-5.79Z" style="fill: #fff;"/>
      <path d="M53.54,12.98c-.81-.52-1.22-1.25-1.22-2.2,0-.46.14-.88.41-1.25.27-.37.62-.63,1.05-.78-.41-.19-.74-.47-.99-.83s-.38-.77-.38-1.22c0-.76.26-1.36.78-1.82s1.29-.69,2.3-.69c.32,0,.62.02.91.06.29.04.53.09.7.14v1.68c-.15-.07-.34-.12-.57-.15-.23-.03-.44-.05-.62-.05-.87,0-1.3.32-1.3.97,0,.35.11.61.32.78s.56.25,1.03.25h1.14v1.75h-1.14c-.96,0-1.44.39-1.44,1.17,0,.41.2.73.6.96.4.23.95.35,1.65.35.88,0,1.53-.18,1.94-.54.41-.36.62-.89.62-1.59v-5.52h2.15v5.49c0,.64-.16,1.26-.47,1.84-.31.58-.82,1.06-1.52,1.44s-1.61.57-2.72.57c-1.34,0-2.42-.26-3.24-.78Z" style="fill: #fff;"/>
    </g>
  </g>
</svg>