<?xml version="1.0" encoding="UTF-8"?>
<svg id="Layer_2" data-name="Layer 2" xmlns="http://www.w3.org/2000/svg" viewBox="0 0 16.71 5.63">
  <g id="Layer_1-2" data-name="Layer 1">
    <g id="id-chumphon">
      <path d="M.82,3.74c-.25-.11-.44-.28-.58-.49-.14-.21-.2-.45-.2-.72v-.24c0-.16.03-.3.1-.44.07-.14.16-.29.28-.45.09-.12.15-.22.19-.29.04-.07.06-.14.06-.21,0-.09-.02-.15-.06-.19-.04-.04-.12-.05-.22-.05h-.39V.1h.73c.2,0,.36.06.48.18.12.12.18.27.18.47,0,.13-.03.26-.08.37-.06.11-.14.25-.25.41-.11.17-.19.3-.24.4-.05.1-.07.21-.07.33v.26c0,.26.08.47.25.62.17.15.4.22.69.22.31,0,.56-.08.73-.26.18-.17.26-.42.26-.76s-.07-.58-.21-.75-.34-.25-.61-.25v-.38l.74-.97h.76l-.78,1.03c.28.11.49.27.61.49s.19.5.19.83-.07.6-.21.83-.34.42-.6.54c-.26.13-.56.19-.89.19s-.62-.06-.87-.17Z" style="fill: #fff;"/>
      <path d="M2.64,4.93c0-.08-.01-.14-.04-.17s-.09-.04-.18-.04h-.23v-.51h.57c.21,0,.35.04.42.12.07.08.11.23.11.44v.86h-.64v-.71Z" style="fill: #fff;"/>
      <path d="M5.48,3.76c-.23-.1-.43-.25-.61-.45v.5h-.68V.1h.71v2.62c.27.43.65.64,1.12.64.3,0,.53-.07.68-.21s.23-.35.23-.63V.1h.71v2.45c0,.4-.13.73-.38.98-.25.25-.61.38-1.05.38-.25,0-.5-.05-.72-.15Z" style="fill: #fff;"/>
      <path d="M8.33.1h.71l.67,2.72L10.52.1h.54l.8,2.72L12.53.1h.71l-1.03,3.71h-.6l-.82-2.79-.83,2.79h-.6L8.33.1Z" style="fill: #fff;"/>
      <path d="M14.43,3.83c-.26-.06-.47-.14-.62-.25v-.57c.2.12.42.21.66.27s.47.09.68.09c.3,0,.52-.03.66-.11.13-.07.2-.19.2-.37,0-.12-.03-.22-.1-.29-.06-.07-.16-.14-.29-.19-.13-.06-.34-.12-.62-.21-.41-.12-.71-.27-.91-.44-.2-.17-.3-.4-.3-.7,0-.34.13-.6.39-.79s.62-.27,1.08-.27c.24,0,.46.03.68.08.22.05.4.12.54.21v.58c-.16-.1-.34-.17-.54-.23-.2-.06-.41-.08-.62-.08-.55,0-.83.17-.83.5,0,.12.04.22.11.3s.18.13.3.18.34.12.64.2c.29.09.53.18.69.28.17.1.28.22.35.36.07.14.1.31.1.51,0,.3-.12.55-.37.73s-.63.28-1.13.28c-.25,0-.51-.03-.78-.09Z" style="fill: #fff;"/>
    </g>
  </g>
</svg>