<?xml version="1.0" encoding="UTF-8"?>
<svg id="Layer_2" data-name="Layer 2" xmlns="http://www.w3.org/2000/svg" viewBox="0 0 41.56 6.86">
  <g id="Layer_1-2" data-name="Layer 1">
    <g id="id-chachoengsao">
      <g>
        <path d="M.6,6.34c-.33-.34-.5-.81-.5-1.41v-1.19h1.24v1.11c0,.36.09.62.26.79.18.17.45.25.82.25.29,0,.55-.07.79-.21s.43-.34.57-.59v-1.15c0-.56-.13-.97-.39-1.23-.26-.26-.72-.39-1.39-.39-.34,0-.71.03-1.09.1-.38.06-.69.15-.92.25v-.96c.25-.1.57-.19.97-.25s.79-.1,1.16-.1c1.01,0,1.75.21,2.21.64.46.43.69,1.06.69,1.9v2.81h-1.19v-.64c-.2.26-.46.46-.77.59-.31.13-.65.2-1.02.2-.63,0-1.11-.17-1.44-.52Z" style="fill: #fff;"/>
        <path d="M6.19,3.39c-.13-.14-.19-.36-.19-.66v-.62h1.11v.4c0,.1.02.17.06.2.04.04.12.06.22.06h1.15v.84h-1.69c-.31,0-.53-.07-.66-.21ZM6.19,6.03c-.13-.14-.19-.36-.19-.66v-.62h1.11v.4c0,.1.02.17.06.2.04.04.12.06.22.06h1.15v.84h-1.69c-.31,0-.53-.07-.66-.21Z" style="fill: #fff;"/>
        <path d="M9.78,6.42c-.18-.19-.27-.46-.27-.8V1.5h1.24v3.73c0,.17.04.29.11.35.07.06.19.1.35.1h.34v1.03h-.99c-.34,0-.6-.1-.77-.29Z" style="fill: #fff;"/>
        <path d="M13.54,6.61c-.36-.17-.65-.4-.85-.69-.2-.29-.3-.63-.3-1.01v-.24c0-.23.05-.44.15-.63.1-.19.23-.41.4-.65.12-.18.2-.3.24-.38.04-.08.07-.16.07-.23,0-.19-.12-.29-.36-.29h-.55v-.97h1.21c.29,0,.52.08.7.25.17.17.26.39.26.67,0,.19-.04.37-.11.54-.07.16-.18.36-.33.59-.14.23-.25.43-.32.58-.07.15-.11.32-.11.49v.24c0,.32.1.58.31.76.21.18.5.27.87.27.4,0,.7-.11.91-.33.21-.22.32-.54.32-.96,0-.85-.35-1.28-1.04-1.28v-.65l.99-1.32h1.32l-1.08,1.44c.37.18.64.41.8.7.16.29.24.66.24,1.11s-.1.82-.3,1.16-.49.61-.86.8c-.37.19-.81.29-1.3.29s-.9-.08-1.27-.25Z" style="fill: #fff;"/>
        <path d="M12.76,0h4.35v.79h-4.35v-.79Z" style="fill: #fff;"/>
        <path d="M18.08,2.15h1.24l1.14,3.59c.55,0,.97-.15,1.26-.46.29-.31.44-.75.44-1.32s-.1-.96-.3-1.24c-.2-.27-.52-.41-.96-.41-.24,0-.46.03-.67.1v-.94c.25-.08.55-.12.89-.12.76,0,1.34.23,1.73.69.39.46.59,1.1.59,1.92,0,.57-.12,1.06-.38,1.48s-.59.73-1.01.94c-.42.21-.89.32-1.4.32h-1.12l-1.44-4.56Z" style="fill: #fff;"/>
        <path d="M24.67,6.42c-.18-.19-.27-.46-.27-.8V1.5h1.24v3.73c0,.17.04.29.11.35.07.06.19.1.35.1h.34v1.03h-.99c-.34,0-.6-.1-.77-.29Z" style="fill: #fff;"/>
        <path d="M27.41,1.5h1.19v.64c.25-.26.53-.46.86-.59.33-.13.66-.2.99-.2.64,0,1.13.18,1.47.54.34.36.51.82.51,1.39v3.43h-1.24v-3.37c0-.68-.36-1.02-1.09-1.02-.63,0-1.11.27-1.45.8v3.59h-1.24V1.5Z" style="fill: #fff;"/>
        <path d="M34.33,6.74c-.38-.08-.68-.19-.89-.35v-.96c.29.17.6.3.95.38s.67.13.96.13c.39,0,.67-.04.84-.12s.26-.22.26-.44c0-.15-.04-.27-.14-.36-.09-.09-.21-.16-.37-.22-.16-.06-.45-.15-.88-.28-.56-.18-.98-.39-1.25-.63-.28-.25-.41-.58-.41-1,0-.49.19-.86.58-1.13s.92-.4,1.58-.4c.35,0,.69.04,1.01.11s.59.17.79.3v1.01c-.21-.14-.47-.25-.77-.33s-.61-.13-.91-.13c-.69,0-1.04.19-1.04.56,0,.14.04.25.13.33s.2.15.34.21c.14.06.36.13.65.22l.32.1c.42.13.74.27.97.42.23.15.39.32.49.52.09.19.14.44.14.72,0,.44-.19.79-.56,1.06-.37.27-.92.4-1.67.4-.37,0-.75-.04-1.12-.12Z" style="fill: #fff;"/>
        <path d="M40.33,3.38c0-.38-.08-.66-.23-.82-.15-.16-.43-.24-.82-.24-.36,0-.73.09-1.11.28v-.96c.16-.08.36-.14.62-.2s.51-.08.75-.08c.67,0,1.17.18,1.51.55.34.36.51.88.51,1.56v3.25h-1.24v-3.33Z" style="fill: #fff;"/>
      </g>
    </g>
  </g>
</svg>