<?xml version="1.0" encoding="UTF-8"?>
<svg id="Layer_2" data-name="Layer 2" xmlns="http://www.w3.org/2000/svg" viewBox="0 0 48 17.39">
  <g id="Layer_1-2" data-name="Layer 1">
    <g id="id-chanthaburi">
      <path d="M.45,8.19h1.67l.86,3.53c1.07,0,1.92-.29,2.57-.87.64-.58.97-1.38.97-2.4,0-1.11-.26-1.92-.79-2.41s-1.4-.74-2.61-.74c-.55,0-1.11.05-1.68.16-.57.1-1.04.25-1.43.42v-1.32c.41-.19.91-.33,1.49-.44.59-.1,1.19-.16,1.81-.16,1.56,0,2.77.37,3.62,1.12.85.75,1.28,1.87,1.28,3.37,0,.87-.22,1.65-.66,2.35-.44.7-1.04,1.25-1.79,1.64-.75.4-1.58.59-2.48.59h-1.63L.45,8.19Z" style="fill: #fff;"/>
      <path d="M3.74,2.55c-.21-.24-.32-.59-.32-1.06v-.86h1.52v.66c0,.19.04.31.11.38.07.07.21.1.41.1h3.9v1.14h-4.57c-.47,0-.82-.12-1.03-.36Z" style="fill: #fff;"/>
      <path d="M10.92,12.38c-.6-.61-.9-1.39-.9-2.34v-5.83h1.68v5.76c0,.66.18,1.16.55,1.49.37.34.91.5,1.63.5,1.13,0,2.03-.51,2.67-1.52v-6.24h1.68v8.83h-1.63v-1.19c-.83.96-1.88,1.44-3.17,1.44-1.08,0-1.92-.3-2.52-.91Z" style="fill: #fff;"/>
      <path d="M20.39,4.21h1.62v1.19c.43-.48.93-.84,1.51-1.08.58-.24,1.16-.35,1.76-.35,1.08,0,1.9.3,2.48.89.57.59.86,1.36.86,2.29v5.89h-1.68v-5.81c0-.62-.17-1.09-.51-1.43-.34-.34-.87-.5-1.58-.5-1.2,0-2.12.5-2.76,1.5v6.24h-1.68V4.21Z" style="fill: #fff;"/>
      <path d="M32.76,12.83c-.64-.31-1.13-.74-1.48-1.3s-.52-1.19-.52-1.91v-5.42h1.68v5.38c0,.74.22,1.32.65,1.74.44.42,1.07.64,1.91.64s1.46-.21,1.89-.64.65-1,.65-1.74v-5.38h1.68v5.42c0,.72-.17,1.35-.52,1.91s-.84.99-1.48,1.3c-.64.31-1.38.46-2.23.46s-1.61-.15-2.25-.46Z" style="fill: #fff;"/>
      <path d="M37.7,15.7c0-.2-.04-.33-.11-.4-.07-.07-.21-.11-.42-.11h-.54v-1.21h1.35c.5,0,.83.1,1,.3s.26.55.26,1.06v2.05h-1.54v-1.68Z" style="fill: #fff;"/>
      <path d="M42.57,13.08c-.63-.14-1.12-.34-1.47-.6v-1.35c.47.29.99.5,1.56.65.57.15,1.11.22,1.63.22.73,0,1.25-.08,1.57-.26s.48-.46.48-.88c0-.29-.08-.52-.23-.69-.15-.18-.39-.33-.7-.46-.31-.13-.81-.3-1.48-.5-.97-.3-1.69-.65-2.16-1.05-.47-.4-.71-.96-.71-1.68,0-.81.31-1.44.94-1.87.63-.44,1.49-.65,2.58-.65.56,0,1.1.06,1.63.19.52.13.95.29,1.3.5v1.39c-.37-.23-.8-.41-1.29-.54s-.98-.2-1.49-.2c-1.32,0-1.98.4-1.98,1.19,0,.3.09.53.27.71s.42.32.73.44c.3.12.81.28,1.53.49.71.21,1.25.43,1.65.68s.68.53.84.86.25.74.25,1.22c0,.73-.3,1.31-.89,1.75-.59.44-1.49.66-2.69.66-.61,0-1.22-.07-1.85-.21Z" style="fill: #fff;"/>
      <path d="M40.52,1.77h5.6V0h1.54v2.91h-7.13v-1.14Z" style="fill: #fff;"/>
    </g>
  </g>
</svg>