<?xml version="1.0" encoding="UTF-8"?>
<svg id="Layer_2" data-name="Layer 2" xmlns="http://www.w3.org/2000/svg" viewBox="0 0 74.28 16.66">
  <g id="Layer_1-2" data-name="Layer 1">
    <g id="id-chiang-mai">
      <path d="M.56,15.74c-.38-.4-.56-.97-.56-1.69V5.37h2.61v7.86c0,.36.08.6.23.74s.4.21.74.21h.72v2.17h-2.09c-.71,0-1.25-.2-1.63-.6Z" style="fill: #fff;"/>
      <path d="M8.47,16.13c-.77-.35-1.36-.83-1.79-1.46-.42-.62-.64-1.33-.64-2.12v-.51c0-.48.1-.92.31-1.33.21-.41.49-.87.84-1.37.25-.37.42-.64.51-.8.09-.16.14-.33.14-.49,0-.41-.25-.62-.76-.62h-1.17v-2.05h2.54c.62,0,1.1.17,1.47.52.36.35.54.82.54,1.41,0,.41-.08.79-.24,1.13-.16.34-.39.76-.69,1.25s-.53.9-.68,1.22c-.15.32-.23.67-.23,1.04v.51c0,.68.21,1.22.65,1.6.43.38,1.04.57,1.84.57.83,0,1.47-.23,1.92-.69.44-.46.67-1.13.67-2.02,0-1.79-.73-2.69-2.19-2.69v-1.37l2.09-2.79h2.79l-2.28,3.04c.78.37,1.34.86,1.68,1.48.34.62.51,1.39.51,2.34s-.21,1.73-.64,2.45-1.03,1.28-1.81,1.68c-.79.4-1.7.6-2.74.6s-1.9-.17-2.67-.52Z" style="fill: #fff;"/>
      <path d="M6.87,2.22h6.83V0h2.34v3.88H6.87v-1.66Z" style="fill: #fff;"/>
      <path d="M19.53,15.71c-.99-.63-1.48-1.52-1.48-2.67,0-.56.16-1.07.49-1.52s.75-.77,1.27-.94c-.49-.23-.89-.57-1.2-1s-.46-.93-.46-1.48c0-.92.31-1.65.94-2.21s1.56-.83,2.79-.83c.38,0,.75.02,1.11.07s.64.11.84.17v2.03c-.18-.08-.41-.14-.69-.18s-.53-.06-.75-.06c-1.05,0-1.58.39-1.58,1.17,0,.42.13.74.39.94s.68.31,1.25.31h1.38v2.11h-1.38c-1.16,0-1.74.47-1.74,1.42,0,.49.24.88.73,1.16s1.15.42,2,.42c1.07,0,1.85-.22,2.35-.66.5-.44.75-1.08.75-1.93v-6.69h2.61v6.65c0,.78-.19,1.52-.56,2.23-.38.7-.99,1.29-1.85,1.74-.86.46-1.95.69-3.29.69-1.63,0-2.93-.31-3.92-.94Z" style="fill: #fff;"/>
      <path d="M31.2,6.75h2.61l2.4,7.57c1.15,0,2.03-.32,2.66-.97.62-.65.93-1.58.93-2.78s-.21-2.03-.64-2.6-1.1-.86-2.03-.86c-.51,0-.98.07-1.42.21v-1.99c.53-.16,1.16-.25,1.87-.25,1.6,0,2.81.49,3.64,1.46.83.97,1.24,2.32,1.24,4.04,0,1.2-.26,2.24-.79,3.12s-1.23,1.54-2.12,1.99c-.89.45-1.87.68-2.95.68h-2.36l-3.04-9.6Z" style="fill: #fff;"/>
      <path d="M45.06,15.74c-.38-.4-.56-.97-.56-1.69v-5.21c0-.66.12-1.22.37-1.69.25-.47.6-.97,1.05-1.51.3-.37.52-.67.67-.91s.22-.5.22-.77c0-.42-.11-.73-.33-.92s-.6-.29-1.15-.29c-.82,0-1.57.24-2.24.72v-1.99c.42-.25.9-.43,1.44-.56s1.08-.19,1.64-.19c1.11,0,1.93.26,2.48.78.55.52.82,1.2.82,2.03,0,.48-.1.9-.29,1.27-.19.37-.48.8-.86,1.29-.41.52-.71.97-.91,1.34s-.3.83-.3,1.36v4.43c0,.36.08.6.23.74s.4.21.74.21h.72v2.17h-2.09c-.71,0-1.25-.2-1.63-.6Z" style="fill: #fff;"/>
      <path d="M50.89,5.37h2.61v4.39l4.74-4.39h3l-3,2.77c1.11.29,1.88.75,2.32,1.4.44.64.66,1.5.66,2.56v4.25h-2.61v-4.06c0-.78-.14-1.37-.42-1.76-.28-.4-.79-.68-1.53-.84l-3.16,2.93v3.73h-2.61V5.37Z" style="fill: #fff;"/>
      <path d="M67.97,16.24c-.66-.28-1.25-.69-1.77-1.24v1.35h-2.5V5.37h2.61v7.57c.71,1.12,1.7,1.68,2.95,1.68,1.61,0,2.42-.75,2.42-2.26v-6.99h2.58v7.12c0,.78-.17,1.49-.5,2.12s-.82,1.14-1.47,1.5-1.41.54-2.3.54c-.68,0-1.36-.14-2.02-.42Z" style="fill: #fff;"/>
      <path d="M71.67.35h2.61v3.53h-2.61V.35Z" style="fill: #fff;"/>
    </g>
  </g>
</svg>