<?xml version="1.0" encoding="UTF-8"?>
<svg id="Layer_2" data-name="Layer 2" xmlns="http://www.w3.org/2000/svg" viewBox="0 0 57.08 24.35">
  <g id="Layer_1-2" data-name="Layer 1">
    <g id="id-chaiyaphum">
      <path d="M2.91,17.65c-.88-.4-1.56-.95-2.04-1.67s-.73-1.52-.73-2.43v-.59c0-.55.12-1.06.35-1.53.23-.47.56-.99.96-1.57.28-.42.48-.73.59-.92.11-.19.16-.38.16-.56,0-.47-.29-.7-.87-.7H0v-2.35h2.91c.71,0,1.26.2,1.68.6.41.4.62.94.62,1.61,0,.47-.09.9-.27,1.29-.18.39-.44.87-.79,1.43-.34.56-.6,1.03-.78,1.4-.17.37-.26.76-.26,1.19v.59c0,.78.25,1.39.74,1.83.49.44,1.19.66,2.1.66.96,0,1.69-.26,2.2-.79.51-.52.76-1.29.76-2.31,0-2.05-.84-3.08-2.51-3.08v-1.57l2.4-3.19h3.19l-2.61,3.48c.89.42,1.53.99,1.92,1.69.39.7.59,1.6.59,2.68s-.24,1.98-.73,2.81-1.18,1.46-2.08,1.93c-.9.46-1.95.69-3.13.69s-2.18-.2-3.05-.6Z" style="fill: #fff;"/>
      <path d="M5.18,3.05c-.34-.38-.5-.94-.5-1.69V0h2.68v1.08c0,.25.05.42.14.5.09.09.27.13.52.13h5.59v1.9h-6.81c-.74,0-1.27-.19-1.61-.56Z" style="fill: #fff;"/>
      <path d="M15.57,17.16c-1.13-.72-1.69-1.74-1.69-3.05,0-.64.19-1.22.56-1.74s.86-.88,1.46-1.08c-.56-.27-1.02-.65-1.37-1.15-.35-.5-.53-1.06-.53-1.69,0-1.05.36-1.89,1.08-2.52.72-.63,1.78-.95,3.19-.95.44,0,.86.03,1.27.08.41.06.73.12.96.2v2.32c-.2-.09-.47-.16-.79-.21-.32-.05-.61-.07-.86-.07-1.21,0-1.81.45-1.81,1.34,0,.49.15.85.45,1.08.3.23.77.35,1.43.35h1.57v2.42h-1.57c-1.33,0-2,.54-2,1.62,0,.56.28,1.01.83,1.33s1.32.48,2.29.48c1.22,0,2.12-.25,2.69-.75.57-.5.86-1.24.86-2.21v-7.65h2.98v7.61c0,.89-.21,1.74-.65,2.55s-1.14,1.47-2.11,2c-.98.52-2.24.79-3.77.79-1.86,0-3.36-.36-4.49-1.08Z" style="fill: #fff;"/>
      <path d="M28.93,15.4h.92c.41,0,.68-.08.83-.23s.22-.45.22-.87v-4.06l-1.64-1.95c1.67-2.21,3.97-3.31,6.88-3.31,1.94,0,3.43.44,4.47,1.31,1.04.88,1.56,2.09,1.56,3.64v7.96h-2.98v-7.73c0-.97-.26-1.69-.77-2.16s-1.28-.7-2.3-.7c-.75,0-1.41.11-1.98.33-.57.22-1.11.55-1.61.99l1.36,1.62v5c0,.83-.22,1.48-.67,1.95-.45.47-1.08.7-1.89.7h-2.39v-2.49Z" style="fill: #fff;"/>
      <path d="M36.59,23.7c-.59-.43-.88-1.01-.88-1.73v-.42c0-.22-.03-.36-.09-.43-.06-.07-.2-.11-.4-.11h-.8v-1.9h2.37c.44,0,.74.1.92.29.17.2.26.51.26.95v1.31c0,.63.34.94,1.01.94s.99-.31.99-.94v-2.56h2.25v2.79c0,.72-.27,1.31-.82,1.76s-1.32.68-2.33.68c-1.06,0-1.89-.22-2.48-.65Z" style="fill: #fff;"/>
      <path d="M49.88,17.76c-.76-.32-1.44-.79-2.03-1.42v1.55h-2.86V5.33h2.98v8.66c.81,1.28,1.94,1.93,3.38,1.93,1.85,0,2.77-.86,2.77-2.58V5.33h2.96v8.15c0,.89-.19,1.7-.58,2.43-.38.73-.94,1.3-1.68,1.71-.74.41-1.61.62-2.63.62-.78,0-1.55-.16-2.31-.48Z" style="fill: #fff;"/>
      <path d="M46.58,1.71h10.5v1.9h-10.5v-1.9Z" style="fill: #fff;"/>
    </g>
  </g>
</svg>