<?xml version="1.0" encoding="UTF-8"?>
<svg id="Layer_2" data-name="Layer 2" xmlns="http://www.w3.org/2000/svg" viewBox="0 0 34.59 16.15">
  <g id="Layer_1-2" data-name="Layer 1">
    <g id="id-chon-buri">
      <path d="M1.81,11.96c-.55-.25-.98-.62-1.28-1.08-.3-.46-.45-1-.45-1.6v-.52c0-.35.08-.67.23-.97.15-.3.36-.63.63-.99.19-.27.33-.48.42-.64s.13-.32.13-.46c0-.19-.05-.33-.15-.41-.1-.08-.26-.12-.48-.12h-.86v-1.24h1.61c.45,0,.81.13,1.07.39s.39.61.39,1.04c0,.3-.06.57-.18.82-.12.25-.31.56-.55.91-.25.37-.42.67-.53.89-.11.23-.16.47-.16.74v.57c0,.58.18,1.04.55,1.37s.88.49,1.53.49c.7,0,1.24-.19,1.63-.57s.58-.94.58-1.67-.15-1.29-.46-1.66c-.31-.37-.76-.55-1.35-.55v-.84l1.64-2.15h1.69l-1.73,2.29c.62.24,1.08.6,1.36,1.08.28.49.42,1.1.42,1.83s-.16,1.32-.47,1.84-.75.92-1.33,1.2c-.57.28-1.23.42-1.98.42s-1.36-.13-1.92-.38Z" style="fill: #fff;"/>
      <path d="M9.76,11.66c-.54-.45-.8-1.1-.8-1.94s.3-1.49.9-1.98c.6-.49,1.41-.74,2.43-.74s1.92.19,2.73.57v-.63c0-.71-.19-1.22-.58-1.54-.38-.32-1.02-.48-1.91-.48-.49,0-.97.05-1.44.14-.47.09-.88.22-1.23.38v-1.23c.32-.15.75-.28,1.3-.38.55-.1,1.08-.15,1.6-.15,1.28,0,2.23.29,2.87.87.63.58.95,1.37.95,2.36v5.2h-1.56v-3.3c-.75-.38-1.6-.57-2.56-.57-.67,0-1.15.12-1.46.37-.31.25-.47.61-.47,1.1,0,.93.6,1.4,1.79,1.4.37,0,.69-.05.97-.15v1.21c-.37.11-.82.17-1.35.17-.91,0-1.63-.23-2.17-.68Z" style="fill: #fff;"/>
      <path d="M20.43,11.92c-.59-.29-1.05-.69-1.37-1.2-.32-.52-.48-1.11-.48-1.77V3.91h1.56v5c0,.69.2,1.22.61,1.62.4.39,1,.59,1.77.59s1.35-.2,1.76-.59c.4-.39.61-.93.61-1.62V3.91h1.56v5.03c0,.66-.16,1.26-.48,1.77-.32.52-.78.92-1.37,1.2-.59.29-1.28.43-2.07.43s-1.49-.14-2.09-.43Z" style="fill: #fff;"/>
      <path d="M25.02,14.59c0-.18-.03-.31-.1-.38-.07-.07-.2-.1-.39-.1h-.51v-1.12h1.26c.46,0,.77.09.93.28.16.18.24.51.24.98v1.9h-1.43v-1.56Z" style="fill: #fff;"/>
      <path d="M29.54,12.16c-.58-.13-1.04-.31-1.37-.56v-1.26c.44.27.92.47,1.45.61s1.03.21,1.51.21c.67,0,1.16-.08,1.46-.24.3-.16.45-.43.45-.82,0-.27-.07-.48-.21-.64-.14-.16-.36-.31-.65-.43-.29-.12-.75-.28-1.37-.46-.9-.28-1.57-.6-2.01-.97-.44-.37-.66-.89-.66-1.56,0-.76.29-1.34.87-1.74s1.38-.61,2.39-.61c.52,0,1.03.06,1.51.18.49.12.89.27,1.2.47v1.29c-.35-.21-.75-.38-1.2-.51-.45-.12-.91-.18-1.38-.18-1.23,0-1.84.37-1.84,1.1,0,.28.08.5.25.66s.39.3.67.41c.28.11.75.26,1.42.45.65.19,1.17.4,1.53.63.37.23.63.49.78.8.15.31.23.69.23,1.14,0,.67-.28,1.22-.83,1.63-.55.41-1.39.61-2.5.61-.56,0-1.13-.06-1.72-.19Z" style="fill: #fff;"/>
      <path d="M27.64,1.64h5.2V0h1.43v2.7h-6.63v-1.06Z" style="fill: #fff;"/>
    </g>
  </g>
</svg>