<?xml version="1.0" encoding="UTF-8"?>
<svg id="Layer_2" data-name="Layer 2" xmlns="http://www.w3.org/2000/svg" viewBox="0 0 25.85 12">
  <g id="Layer_1-2" data-name="Layer 1">
    <g id="id-krabi">
      <g>
        <path d="M.64,7.54l-.64-1.04c.45-.57.97-1.01,1.55-1.3.58-.29,1.27-.44,2.06-.44,1.03,0,1.81.23,2.36.7s.82,1.12.82,1.96v4.4h-1.31v-4.29c0-.59-.16-1.02-.47-1.3s-.78-.42-1.4-.42c-.47,0-.88.07-1.24.21-.36.14-.68.37-.97.67l.55.86v4.27H.64v-4.27Z" style="fill: #fff;"/>
        <path d="M9.39,11.84c-.49-.11-.87-.26-1.14-.47v-1.05c.37.22.77.39,1.21.51.44.12.86.17,1.26.17.56,0,.97-.07,1.22-.2.25-.13.37-.36.37-.69,0-.22-.06-.4-.18-.54-.12-.14-.3-.26-.54-.36-.24-.1-.63-.23-1.15-.38-.75-.23-1.31-.5-1.68-.81-.37-.31-.55-.75-.55-1.3,0-.63.24-1.12.73-1.46.49-.34,1.15-.51,2-.51.44,0,.86.05,1.26.15.41.1.74.23,1.01.39v1.08c-.29-.18-.62-.32-1-.42s-.76-.15-1.15-.15c-1.03,0-1.54.31-1.54.92,0,.23.07.41.21.55.14.14.33.25.56.34.24.09.63.22,1.19.38.55.16.97.34,1.28.53.31.19.53.41.65.67.13.26.19.57.19.95,0,.56-.23,1.02-.69,1.36-.46.34-1.16.51-2.09.51-.47,0-.95-.05-1.44-.16Z" style="fill: #fff;"/>
        <path d="M14.99,7.39c-.15-.17-.23-.43-.23-.78v-.73h1.18v.49c0,.14.03.23.09.29.06.06.17.08.32.08h1.5v.91h-2.06c-.38,0-.64-.09-.79-.26ZM14.99,10.89c-.15-.17-.23-.43-.23-.78v-.73h1.18v.49c0,.14.03.23.09.29.06.06.17.08.32.08h1.5v.91h-2.06c-.38,0-.64-.08-.79-.26Z" style="fill: #fff;"/>
        <path d="M20.81,11.65c-.5-.24-.88-.57-1.15-1.01s-.4-.93-.4-1.48v-4.21h1.31v4.18c0,.57.17,1.02.51,1.35s.83.49,1.48.49,1.13-.17,1.47-.49.51-.78.51-1.35v-4.18h1.31v4.21c0,.56-.13,1.05-.4,1.48-.27.43-.65.77-1.15,1.01-.5.24-1.07.36-1.73.36s-1.25-.12-1.74-.36Z" style="fill: #fff;"/>
        <path d="M20.28,3.05h4.35v-1.37h1.19v2.26h-5.54v-.88Z" style="fill: #fff;"/>
      </g>
      <rect x="24.63" width="1.22" height="1.03" style="fill: #fff;"/>
    </g>
  </g>
</svg>