<?xml version="1.0" encoding="UTF-8"?>
<svg id="Layer_2" data-name="Layer 2" xmlns="http://www.w3.org/2000/svg" viewBox="0 0 83.01 20.12">
  <g id="Layer_1-2" data-name="Layer 1">
    <g id="id-kanchanaburi">
      <path d="M.96,8.73l-.96-1.55c.67-.85,1.45-1.5,2.31-1.94.87-.44,1.89-.66,3.08-.66,1.53,0,2.7.35,3.52,1.04s1.22,1.67,1.22,2.91v6.55h-1.95v-6.4c0-.88-.23-1.53-.7-1.94-.46-.41-1.16-.62-2.09-.62-.7,0-1.32.1-1.85.32-.54.21-1.02.54-1.45,1l.82,1.28v6.36H.96v-6.36Z" style="fill: #fff;"/>
      <path d="M16.21,8.48c0-.81-.17-1.41-.5-1.79s-.92-.56-1.76-.56-1.58.18-2.29.54v-1.53c.31-.15.7-.28,1.19-.39.49-.11.98-.16,1.46-.16,1.29,0,2.25.35,2.89,1.04s.96,1.69.96,2.99v6.48h-1.95v-6.61Z" style="fill: #fff;"/>
      <path d="M30.8,16.75c-.68-.15-1.21-.34-1.61-.58v-1.62c1.07.6,2.28.9,3.63.9.9,0,1.62-.12,2.14-.36s.78-.6.78-1.09c0-.38-.12-.7-.36-.96-.34.22-.76.39-1.25.52-.49.13-1,.19-1.54.19-1.46,0-2.59-.38-3.37-1.13-.78-.75-1.18-1.76-1.18-3.04v-.88c0-.88-.21-1.53-.64-1.94-.43-.41-1.08-.62-1.96-.62-.66,0-1.24.1-1.73.31-.49.2-.95.54-1.39,1.01l.82,1.28v3.78c0,.36.07.6.22.75s.39.21.74.21h1.07v1.62h-2.03c-.64,0-1.12-.18-1.45-.54-.33-.36-.5-.85-.5-1.47v-4.36l-.96-1.55c.67-.85,1.43-1.5,2.25-1.94.83-.44,1.81-.66,2.94-.66,1.48,0,2.6.35,3.37,1.04.77.69,1.16,1.67,1.16,2.91v.96c0,.88.2,1.55.61,2.02.41.47,1.08.7,2.01.7s1.63-.25,2.09-.74.7-1.16.7-2.02v-4.59h1.95v4.7c0,.96-.24,1.76-.71,2.43.32.28.55.58.7.9.15.32.22.68.22,1.09,0,.96-.44,1.69-1.31,2.21-.87.52-2.01.77-3.41.77-.67,0-1.35-.07-2.03-.22Z" style="fill: #fff;"/>
      <path d="M39.98,9.48h1.93l.99,4.09c1.24,0,2.23-.33,2.97-1,.75-.67,1.12-1.6,1.12-2.78,0-1.29-.31-2.22-.92-2.79s-1.62-.86-3.02-.86c-.64,0-1.28.06-1.94.18s-1.21.28-1.65.49v-1.53c.47-.22,1.05-.39,1.73-.51s1.38-.18,2.09-.18c1.81,0,3.21.43,4.19,1.3.99.87,1.48,2.17,1.48,3.9,0,1.01-.25,1.91-.76,2.72-.51.81-1.2,1.44-2.07,1.9-.87.46-1.83.69-2.88.69h-1.89l-1.38-5.62Z" style="fill: #fff;"/>
      <path d="M52.1,14.33c-.69-.7-1.04-1.61-1.04-2.71v-6.75h1.95v6.67c0,.76.21,1.34.64,1.73s1.05.58,1.88.58c1.31,0,2.34-.59,3.1-1.76v-7.22h1.95v10.22h-1.89v-1.38c-.96,1.11-2.18,1.66-3.67,1.66-1.25,0-2.22-.35-2.91-1.05Z" style="fill: #fff;"/>
      <path d="M65.37,14.85c-.74-.36-1.31-.86-1.71-1.5-.4-.64-.6-1.38-.6-2.21v-6.27h1.95v6.23c0,.85.25,1.53.75,2.02.5.49,1.24.74,2.21.74s1.68-.25,2.19-.74c.5-.49.75-1.16.75-2.02v-6.23h1.95v6.27c0,.83-.2,1.56-.6,2.21-.4.64-.97,1.14-1.71,1.5-.74.36-1.6.54-2.58.54s-1.86-.18-2.6-.54Z" style="fill: #fff;"/>
      <path d="M71.08,18.17c0-.23-.04-.39-.12-.47-.08-.08-.25-.12-.49-.12h-.63v-1.4h1.57c.57,0,.96.11,1.16.34.2.23.3.64.3,1.22v2.37h-1.78v-1.95Z" style="fill: #fff;"/>
      <path d="M76.72,15.14c-.73-.16-1.29-.39-1.7-.7v-1.57c.55.33,1.15.58,1.81.75s1.28.26,1.88.26c.84,0,1.45-.1,1.82-.3.37-.2.55-.54.55-1.02,0-.33-.09-.6-.27-.8-.18-.2-.45-.38-.81-.53-.36-.15-.93-.34-1.71-.57-1.12-.34-1.96-.75-2.5-1.21-.55-.46-.82-1.11-.82-1.94,0-.94.36-1.67,1.09-2.17.73-.5,1.72-.75,2.98-.75.65,0,1.28.07,1.88.22.6.15,1.11.34,1.5.58v1.6c-.43-.27-.93-.48-1.49-.63s-1.13-.23-1.72-.23c-1.53,0-2.29.46-2.29,1.38,0,.34.11.62.32.82.21.2.49.37.84.51s.94.32,1.77.56c.82.24,1.45.5,1.91.78.46.28.78.61.97.99s.29.85.29,1.41c0,.84-.34,1.52-1.03,2.03-.69.51-1.73.76-3.12.76-.7,0-1.41-.08-2.14-.24Z" style="fill: #fff;"/>
      <path d="M74.35,2.04h6.48V0h1.78v3.36h-8.26v-1.32Z" style="fill: #fff;"/>
    </g>
  </g>
</svg>