<?xml version="1.0" encoding="UTF-8"?>
<svg id="Layer_2" data-name="Layer 2" xmlns="http://www.w3.org/2000/svg" viewBox="0 0 64.18 14.13">
  <g id="Layer_1-2" data-name="Layer 1">
    <g id="id-khon-kaen">
      <path d="M2.17,13.67c-.66-.3-1.17-.72-1.53-1.26s-.53-1.15-.53-1.84v-.44c0-.41.09-.79.26-1.14s.41-.73.72-1.17c.2-.28.35-.51.44-.68.09-.17.14-.33.14-.48,0-.36-.22-.53-.66-.53H0v-1.78h2.2c.53,0,.96.15,1.27.45.31.3.47.71.47,1.22,0,.36-.07.68-.2.98-.14.3-.34.66-.6,1.08-.26.43-.46.78-.59,1.06-.13.28-.2.58-.2.9v.44c0,.6.18,1.07.53,1.39.36.33.89.49,1.6.49,1.39,0,2.08-.66,2.08-1.97v-6.04h2.26v5.67c0,1.26-.38,2.25-1.13,2.99-.75.74-1.82,1.11-3.21,1.11-.89,0-1.67-.15-2.33-.45Z" style="fill: #fff;"/>
      <path d="M12.44,13.88c-.73-.17-1.34-.4-1.83-.69v-4.98h4.26v1.83h-2.01v1.97c.44.24,1.04.36,1.81.36,1.04,0,1.83-.28,2.36-.85.53-.57.8-1.4.8-2.49,0-.75-.12-1.35-.36-1.81s-.63-.81-1.17-1.03c-.54-.23-1.28-.34-2.2-.34-.6,0-1.22.06-1.84.19-.62.12-1.14.31-1.55.54v-1.76c.47-.24,1.04-.42,1.7-.54s1.35-.19,2.09-.19c1.8,0,3.19.43,4.18,1.29s1.47,2.08,1.47,3.65-.47,2.82-1.41,3.73c-.94.91-2.3,1.37-4.06,1.37-.76,0-1.5-.08-2.24-.25Z" style="fill: #fff;"/>
      <path d="M23.63,13.66c-.56-.31-.98-.75-1.27-1.3-.29-.55-.44-1.16-.44-1.84v-6.17h2.26v6.06c0,1.3.69,1.95,2.08,1.95,1.09,0,1.94-.49,2.56-1.46v-6.56h2.26v9.51h-2.17v-1.17c-.45.47-.96.83-1.54,1.08-.57.24-1.16.36-1.75.36-.77,0-1.43-.16-1.99-.47Z" style="fill: #fff;"/>
      <path d="M33.7,13.34c-.33-.35-.49-.84-.49-1.47v-7.52h2.26v6.81c0,.31.06.52.2.64.13.12.34.18.64.18h.62v1.88h-1.81c-.62,0-1.09-.17-1.41-.52ZM38.48,13.34c-.33-.35-.49-.84-.49-1.47v-7.52h2.26v6.81c0,.31.06.52.2.64.13.12.34.18.64.18h.62v1.88h-1.81c-.62,0-1.09-.17-1.41-.52Z" style="fill: #fff;"/>
      <path d="M44.02,8.07l-.89-1.47c.65-.82,1.4-1.44,2.25-1.87.85-.43,1.83-.64,2.94-.64,1.48,0,2.62.33,3.4,1s1.18,1.58,1.18,2.75v6.02h-2.26v-5.85c0-.73-.2-1.28-.59-1.63-.39-.36-.97-.53-1.74-.53-.58,0-1.09.08-1.54.25s-.86.44-1.23.82l.73,1.17v5.78h-2.26v-5.79Z" style="fill: #fff;"/>
      <path d="M50.66,0h2.26v3.06h-2.26V0Z" style="fill: #fff;"/>
      <path d="M56.74,13.66c-.56-.31-.98-.75-1.27-1.3-.29-.55-.44-1.16-.44-1.84v-6.17h2.26v6.06c0,1.3.69,1.95,2.08,1.95,1.09,0,1.94-.49,2.56-1.46v-6.56h2.26v9.51h-2.17v-1.17c-.45.47-.96.83-1.54,1.08-.57.24-1.16.36-1.75.36-.77,0-1.43-.16-1.99-.47Z" style="fill: #fff;"/>
    </g>
  </g>
</svg>