<?xml version="1.0" encoding="UTF-8"?>
<svg id="Layer_2" data-name="Layer 2" xmlns="http://www.w3.org/2000/svg" viewBox="0 0 67.4 10.84">
  <g id="Layer_1-2" data-name="Layer 1">
    <g id="id-kamphaeng-phet">
      <path d="M.66,6.24l-.66-1.07c.47-.59,1-1.04,1.6-1.34s1.31-.46,2.13-.46c1.06,0,1.87.24,2.43.72.56.48.85,1.15.85,2.02v4.54h-1.35v-4.43c0-.61-.16-1.06-.48-1.34-.32-.29-.8-.43-1.45-.43-.48,0-.91.07-1.28.22s-.71.38-1,.69l.57.89v4.4H.66v-4.4Z" style="fill: #fff;"/>
      <path d="M5.14,2.49c-.29-.28-.43-.62-.43-1.02s.14-.75.43-1.04c.29-.29.63-.43,1.03-.43s.74.14,1.03.43c.29.29.43.63.43,1.04s-.14.74-.43,1.02c-.29.28-.63.42-1.03.42s-.74-.14-1.03-.42ZM6.58,1.9c.12-.13.18-.27.18-.43s-.06-.3-.18-.42c-.12-.12-.26-.19-.42-.19s-.3.06-.42.19c-.12.12-.18.26-.18.42s.06.3.18.43c.12.13.26.19.42.19s.3-.06.42-.19ZM11.27,6.07c0-.56-.11-.98-.34-1.24-.23-.26-.63-.39-1.22-.39s-1.11.12-1.6.37v-1.06c.21-.11.49-.2.83-.27.34-.07.68-.11,1.01-.11.89,0,1.56.24,2,.72.45.48.67,1.17.67,2.07v4.48h-1.35v-4.58Z" style="fill: #fff;"/>
      <path d="M14.67,10.28c-.23-.24-.34-.58-.34-1.02V3.57h1.35v5.32c0,.24.05.4.15.5.1.09.26.14.5.14h.48v1.12h-1.15c-.43,0-.76-.12-.99-.36ZM18.08,10.28c-.23-.25-.34-.59-.34-1.02V3.57h1.35v5.32c0,.24.05.4.15.5.1.09.27.14.51.14h.48v1.12h-1.16c-.42,0-.75-.12-.98-.37Z" style="fill: #fff;"/>
      <path d="M21.28,3.57h1.35l1.28,5.18,1.53-5.18h1.03l1.52,5.18,1.3-5.18h1.35l-1.97,7.08h-1.14l-1.57-5.32-1.59,5.32h-1.14l-1.96-7.08Z" style="fill: #fff;"/>
      <path d="M31.7,4.46h1.35l1.68,5.13c.83,0,1.47-.23,1.92-.69.45-.46.67-1.11.67-1.94s-.15-1.45-.46-1.88-.8-.63-1.48-.63c-.32,0-.63.04-.93.12v-1.04c.35-.1.74-.15,1.15-.15,1,0,1.77.32,2.3.95s.79,1.51.79,2.63c0,.77-.17,1.43-.5,1.98-.33.56-.78.98-1.34,1.27s-1.19.44-1.88.44h-1.27l-2.01-6.19Z" style="fill: #fff;"/>
      <path d="M40.49,10.28c-.23-.24-.34-.58-.34-1.02V3.57h1.35v5.32c0,.24.05.4.15.5.1.09.26.14.5.14h.48v1.12h-1.15c-.43,0-.76-.12-.99-.36Z" style="fill: #fff;"/>
      <path d="M43.68,3.57h1.35l1.28,5.18,1.53-5.18h1.03l1.52,5.18,1.3-5.18h1.35l-1.97,7.08h-1.14l-1.57-5.32-1.59,5.32h-1.14l-1.96-7.08Z" style="fill: #fff;"/>
      <path d="M55.67,10.51c-.48-.22-.84-.53-1.1-.93-.26-.4-.39-.86-.39-1.38v-.45c0-.3.07-.58.2-.84.13-.26.31-.54.54-.85.17-.23.29-.41.36-.56s.11-.27.11-.4c0-.17-.04-.29-.13-.36-.08-.07-.22-.11-.42-.11h-.74v-1.07h1.39c.39,0,.69.11.92.34.22.22.34.52.34.89,0,.26-.05.49-.16.71-.11.22-.26.48-.48.79-.21.32-.36.57-.46.77-.09.19-.14.41-.14.63v.49c0,.5.16.9.48,1.18s.76.42,1.32.42c.6,0,1.07-.16,1.4-.49.33-.33.5-.81.5-1.44s-.13-1.11-.4-1.43-.65-.48-1.16-.48v-.73l1.42-1.85h1.45l-1.49,1.97c.54.2.93.51,1.17.93.24.42.36.95.36,1.58s-.13,1.14-.4,1.59c-.27.45-.65.8-1.14,1.04-.49.24-1.06.36-1.71.36s-1.18-.11-1.65-.33Z" style="fill: #fff;"/>
      <path d="M63.04,10.68c-.5-.11-.89-.27-1.18-.48v-1.08c.38.23.8.4,1.25.52s.89.18,1.3.18c.58,0,1-.07,1.26-.21s.38-.37.38-.71c0-.23-.06-.41-.18-.56-.12-.14-.31-.26-.56-.37-.25-.11-.65-.24-1.18-.4-.78-.24-1.35-.52-1.73-.84-.38-.32-.57-.77-.57-1.34,0-.65.25-1.15.75-1.5.5-.35,1.19-.52,2.06-.52.45,0,.88.05,1.3.15.42.1.76.24,1.04.4v1.11c-.3-.19-.64-.33-1.03-.44-.39-.11-.79-.16-1.19-.16-1.06,0-1.59.32-1.59.95,0,.24.07.43.22.57s.34.26.58.35c.24.09.65.22,1.22.39.56.17,1,.35,1.32.54s.54.42.67.69c.13.26.2.59.2.98,0,.58-.24,1.05-.71,1.4-.48.35-1.2.53-2.16.53-.48,0-.98-.06-1.48-.17Z" style="fill: #fff;"/>
    </g>
  </g>
</svg>