<?xml version="1.0" encoding="UTF-8"?>
<svg id="Layer_2" data-name="Layer 2" xmlns="http://www.w3.org/2000/svg" viewBox="0 0 54.56 15.83">
  <g id="Layer_1-2" data-name="Layer 1">
    <g id="id-kalasin">
      <path d="M.77,6.66l-.77-1.28c.57-.71,1.22-1.25,1.95-1.62.74-.37,1.59-.56,2.56-.56,1.29,0,2.27.29,2.96.86.68.58,1.03,1.37,1.03,2.39v5.23h-1.96v-5.08c0-.64-.17-1.11-.51-1.42-.34-.31-.84-.46-1.51-.46-.5,0-.95.07-1.34.22s-.74.38-1.07.71l.63,1.02v5.02H.77v-5.03Z" style="fill: #fff;"/>
      <path d="M13,6.41c0-.61-.12-1.04-.36-1.3s-.68-.39-1.3-.39c-.58,0-1.16.15-1.76.45v-1.53c.25-.12.57-.23.98-.32.41-.09.81-.13,1.2-.13,1.06,0,1.86.29,2.4.86.54.58.81,1.4.81,2.47v5.16h-1.96v-5.28Z" style="fill: #fff;"/>
      <path d="M16.82,3.43h1.95v5.4l1.85-3.17h.77l1.85,3.17v-3.32c0-.54-.12-.91-.36-1.14-.24-.22-.66-.33-1.27-.33v-1.08l1.68-2.3h2.16l-1.78,2.42c.58.19.97.47,1.18.86s.32.93.32,1.61v6.13h-1.76l-2.42-4.11-2.42,4.11h-1.76V3.43Z" style="fill: #fff;"/>
      <path d="M27.57,11.23c-.56-.46-.84-1.12-.84-1.96,0-.56.14-1.04.42-1.47.28-.42.68-.75,1.21-.99.52-.24,1.13-.35,1.83-.35,1,0,1.86.17,2.59.51v-.37c0-.64-.19-1.11-.56-1.41s-.98-.46-1.81-.46c-.5,0-1,.05-1.49.15-.49.1-.91.24-1.27.42v-1.53c.33-.15.79-.29,1.37-.4.58-.11,1.15-.17,1.71-.17.83,0,1.55.13,2.16.39l.68-.77h2.16l-1.59,1.82c.4.45.6,1.09.6,1.92v5.14h-1.95v-3.18c-.69-.35-1.48-.52-2.36-.52-.58,0-1.01.11-1.29.33s-.42.54-.42.96c0,.38.13.66.39.84.26.18.66.27,1.22.27.35,0,.65-.05.91-.15v1.5c-.38.12-.86.19-1.44.19-.92,0-1.65-.23-2.22-.69Z" style="fill: #fff;"/>
      <path d="M28.2,1.05h6.9v1.25h-6.9v-1.25Z" style="fill: #fff;"/>
      <path d="M38.43,11.51c-.48-.27-.85-.65-1.1-1.13-.25-.48-.38-1.01-.38-1.6V3.43h1.96v5.27c0,1.13.6,1.7,1.81,1.7.95,0,1.69-.42,2.22-1.27V3.43h1.96v8.26h-1.88v-1.02c-.39.41-.84.72-1.34.93-.5.21-1.01.32-1.52.32-.67,0-1.25-.14-1.73-.41Z" style="fill: #fff;"/>
      <path d="M47.5,11.25c-.68-.45-1.02-1.06-1.02-1.83v-1h1.93v.86c0,.78.61,1.17,1.82,1.17s1.74-.35,1.74-1.05c0-.3-.07-.53-.22-.69-.14-.16-.37-.3-.68-.4-.31-.1-.82-.24-1.53-.4-1.04-.25-1.82-.55-2.33-.9s-.77-.87-.77-1.54c0-.77.34-1.34,1.02-1.71s1.55-.56,2.62-.56c.64,0,1.26.06,1.87.19.61.13,1.1.29,1.47.49v1.61c-.39-.24-.87-.42-1.43-.56s-1.12-.2-1.69-.2c-.64,0-1.12.05-1.43.14-.31.09-.47.29-.47.6,0,.27.14.47.42.6.28.13.79.3,1.54.49l.66.17c.72.2,1.28.4,1.69.62.41.22.71.48.9.8.2.32.29.74.29,1.25,0,.75-.32,1.36-.96,1.82-.64.46-1.55.69-2.73.69s-2.05-.22-2.73-.67Z" style="fill: #fff;"/>
      <path d="M51.9,14.24c0-.19-.03-.31-.09-.39-.06-.07-.19-.11-.37-.11h-.54v-1.25h1.44c.51,0,.86.09,1.05.29.19.19.28.54.28,1.04v2.01h-1.76v-1.59Z" style="fill: #fff;"/>
      <path d="M49.71,1.31c0-.43.11-.76.34-.98.23-.22.59-.33,1.1-.33h3.41v1.25h-2.62c-.17,0-.3.04-.36.11-.07.07-.1.2-.1.37v.57h-1.76v-.99Z" style="fill: #fff;"/>
    </g>
  </g>
</svg>