<?xml version="1.0" encoding="UTF-8"?>
<svg id="Layer_2" data-name="Layer 2" xmlns="http://www.w3.org/2000/svg" viewBox="0 0 43.75 13.74">
  <g id="Layer_1-2" data-name="Layer 1">
    <g id="id-lampang">
      <path d="M.9,13c-.6-.49-.9-1.19-.9-2.09,0-.59.15-1.11.45-1.56.3-.45.73-.8,1.28-1.05.55-.25,1.2-.38,1.95-.38,1.06,0,1.98.18,2.76.54v-.4c0-.68-.2-1.18-.6-1.5-.4-.32-1.04-.48-1.93-.48-.54,0-1.07.05-1.59.16-.52.11-.97.26-1.36.44v-1.63c.35-.16.83-.31,1.45-.43s1.23-.18,1.82-.18c1.42,0,2.49.32,3.21.97.71.65,1.07,1.51,1.07,2.6v5.47h-2.07v-3.39c-.73-.37-1.57-.56-2.51-.56-.61,0-1.07.12-1.37.35-.3.24-.45.58-.45,1.03,0,.41.14.7.41.9.27.19.71.29,1.3.29.37,0,.7-.05.97-.16v1.59c-.41.13-.92.2-1.53.2-.98,0-1.76-.25-2.36-.74Z" style="fill: #fff;"/>
      <path d="M5.99,3.22c-.37-.36-.55-.81-.55-1.33s.19-.96.56-1.33c.37-.37.82-.56,1.33-.56s.96.19,1.32.56.55.82.55,1.33-.18.97-.55,1.33c-.37.36-.81.54-1.32.54s-.97-.18-1.34-.54ZM7.81,2.41c.14-.15.21-.31.21-.5s-.07-.35-.21-.5c-.14-.15-.3-.22-.49-.22-.2,0-.36.07-.5.21-.14.14-.21.31-.21.51,0,.19.07.35.21.5.14.15.3.22.5.22.18,0,.33-.07.48-.22ZM13.4,7.87c0-.65-.13-1.11-.39-1.38-.26-.27-.72-.41-1.39-.41-.61,0-1.24.16-1.87.48v-1.63c.26-.13.61-.24,1.04-.34.43-.09.86-.14,1.27-.14,1.13,0,1.98.31,2.56.92s.86,1.49.86,2.63v5.49h-2.09v-5.62Z" style="fill: #fff;"/>
      <path d="M19.52,13.27c-.66-.32-1.17-.76-1.53-1.32-.36-.56-.53-1.21-.53-1.93v-5.31h2.09v5.23c0,.69.19,1.23.58,1.61.38.38.95.58,1.71.58s1.31-.19,1.69-.58c.38-.38.58-.92.58-1.61V1.76h2.09v8.25c0,.72-.18,1.37-.53,1.93-.36.56-.86,1.01-1.52,1.32-.66.32-1.42.48-2.3.48s-1.65-.16-2.31-.48Z" style="fill: #fff;"/>
      <path d="M30.99,7.87c0-.65-.13-1.11-.39-1.38-.26-.27-.72-.41-1.39-.41-.61,0-1.24.16-1.87.48v-1.63c.26-.13.61-.24,1.04-.34.43-.09.86-.14,1.27-.14,1.13,0,1.98.31,2.56.92.58.61.86,1.49.86,2.63v5.49h-2.09v-5.62Z" style="fill: #fff;"/>
      <path d="M34.72,5.8h2.09l1.92,6.07c.92,0,1.63-.26,2.13-.78.5-.52.75-1.26.75-2.23s-.17-1.63-.51-2.09c-.34-.46-.88-.69-1.63-.69-.41,0-.78.05-1.13.16v-1.59c.43-.13.93-.2,1.5-.2,1.28,0,2.25.39,2.92,1.17s.99,1.86.99,3.24c0,.96-.21,1.8-.63,2.5-.42.7-.99,1.23-1.7,1.59-.71.36-1.5.54-2.37.54h-1.89l-2.43-7.69Z" style="fill: #fff;"/>
    </g>
  </g>
</svg>