<?xml version="1.0" encoding="UTF-8"?>
<svg id="Layer_2" data-name="Layer 2" xmlns="http://www.w3.org/2000/svg" viewBox="0 0 22.65 10.49">
  <g id="Layer_1-2" data-name="Layer 1">
    <g id="id-lamphun">
      <path d="M.52,7.57c-.35-.29-.52-.69-.52-1.22,0-.34.09-.65.26-.91.18-.26.42-.47.75-.61s.7-.22,1.13-.22c.62,0,1.16.11,1.61.32v-.23c0-.4-.12-.69-.35-.88-.23-.19-.61-.28-1.13-.28-.31,0-.62.03-.92.1-.3.06-.57.15-.79.26v-.95c.2-.1.49-.18.85-.25s.71-.11,1.06-.11c.83,0,1.45.19,1.87.56.41.38.62.88.62,1.51v3.19h-1.21v-1.97c-.43-.22-.92-.33-1.46-.33-.36,0-.62.07-.8.21s-.26.34-.26.6c0,.24.08.41.24.52.16.11.41.17.76.17.22,0,.4-.03.56-.1v.93c-.24.08-.53.11-.89.11-.57,0-1.03-.14-1.37-.43Z" style="fill: #fff;"/>
      <path d="M3.49,1.88c-.21-.21-.32-.47-.32-.78s.11-.56.33-.78c.22-.22.48-.33.78-.33s.56.11.77.33c.21.22.32.48.32.78s-.11.57-.32.78c-.21.21-.47.32-.77.32s-.57-.11-.78-.32ZM4.55,1.4c.08-.09.12-.18.12-.29s-.04-.21-.12-.29c-.08-.09-.17-.13-.28-.13-.11,0-.21.04-.29.12-.08.08-.12.18-.12.3,0,.11.04.21.12.29.08.09.18.13.29.13.1,0,.2-.04.28-.13ZM7.8,4.59c0-.38-.08-.64-.23-.8-.15-.16-.42-.24-.81-.24-.36,0-.72.09-1.09.28v-.95c.15-.08.36-.14.61-.2s.5-.08.74-.08c.66,0,1.15.18,1.49.54.34.36.5.87.5,1.53v3.2h-1.22v-3.27Z" style="fill: #fff;"/>
      <path d="M9.88,2.74h1.22l.82,3.44,1-3.44h.9l1,3.44.82-3.44h1.22l-1.43,5.12h-1.03l-1.03-3.52-1.03,3.52h-1.02l-1.43-5.12Z" style="fill: #fff;"/>
      <path d="M14.29,10.23c-.24-.18-.36-.41-.36-.7v-.17c0-.09-.01-.15-.04-.18-.03-.03-.08-.04-.16-.04h-.33v-.78h.97c.18,0,.3.04.37.12s.1.21.1.39v.54c0,.26.14.38.41.38s.4-.13.4-.38v-1.04h.92v1.14c0,.29-.11.53-.34.72s-.54.28-.95.28c-.43,0-.77-.09-1.01-.26Z" style="fill: #fff;"/>
      <path d="M18.63,7.75c-.3-.17-.53-.4-.68-.7-.16-.3-.24-.63-.24-.99v-3.32h1.22v3.27c0,.7.37,1.05,1.12,1.05.59,0,1.05-.26,1.38-.79v-3.53h1.22v5.12h-1.17v-.63c-.24.26-.52.45-.83.58-.31.13-.62.2-.94.2-.42,0-.77-.08-1.07-.25Z" style="fill: #fff;"/>
    </g>
  </g>
</svg>