<?xml version="1.0" encoding="UTF-8"?>
<svg id="Layer_2" data-name="Layer 2" xmlns="http://www.w3.org/2000/svg" viewBox="0 0 45.84 17.89">
  <g id="Layer_1-2" data-name="Layer 1">
    <g id="id-loei">
      <path d="M.87,16.48c-.58-.62-.87-1.49-.87-2.61V.47h4.02v12.13c0,.55.12.93.35,1.14s.61.32,1.14.32h1.11v3.36h-3.23c-1.1,0-1.94-.31-2.52-.93Z" style="fill: #fff;"/>
      <path d="M10.88,16.46c-1.15-.95-1.73-2.29-1.73-4.02,0-1.14.29-2.14.87-3.01.58-.87,1.4-1.54,2.47-2.03,1.07-.48,2.32-.73,3.75-.73,2.05,0,3.82.35,5.32,1.04v-.76c0-1.31-.39-2.27-1.16-2.9s-2.01-.93-3.72-.93c-1.03,0-2.05.11-3.06.32-1,.21-1.87.5-2.61.85V1.17c.67-.32,1.61-.59,2.8-.82,1.19-.23,2.36-.35,3.5-.35,2.74,0,4.8.62,6.17,1.87,1.37,1.25,2.06,2.91,2.06,5v10.54h-3.99v-6.52c-1.42-.72-3.03-1.08-4.84-1.08-1.18,0-2.06.23-2.64.68-.58.45-.87,1.11-.87,1.98,0,.78.26,1.36.79,1.73.53.37,1.36.55,2.5.55.72,0,1.34-.1,1.87-.32v3.07c-.78.25-1.76.38-2.94.38-1.88,0-3.39-.48-4.54-1.42Z" style="fill: #fff;"/>
      <path d="M31,16.43c-1.52-.97-2.28-2.34-2.28-4.12,0-.87.25-1.65.76-2.34.51-.7,1.16-1.18,1.96-1.46-.76-.36-1.38-.88-1.85-1.55-.47-.68-.71-1.44-.71-2.28,0-1.41.49-2.55,1.46-3.4s2.41-1.28,4.31-1.28c.59,0,1.16.04,1.71.11.55.07.98.16,1.3.27v3.13c-.27-.13-.63-.22-1.06-.28-.43-.06-.82-.1-1.16-.1-1.63,0-2.44.6-2.44,1.8,0,.65.2,1.14.6,1.46.4.32,1.04.47,1.93.47h2.12v3.26h-2.12c-1.79,0-2.69.73-2.69,2.18,0,.76.38,1.36,1.12,1.79.75.43,1.78.65,3.09.65,1.65,0,2.85-.34,3.62-1.01s1.16-1.67,1.16-2.98V.44h4.02v10.26c0,1.2-.29,2.35-.87,3.44-.58,1.09-1.53,1.98-2.85,2.69-1.32.71-3.01,1.06-5.08,1.06-2.51,0-4.53-.49-6.05-1.46Z" style="fill: #fff;"/>
    </g>
  </g>
</svg>