<?xml version="1.0" encoding="UTF-8"?>
<svg id="Layer_2" data-name="Layer 2" xmlns="http://www.w3.org/2000/svg" viewBox="0 0 45.89 19.73">
  <g id="Layer_1-2" data-name="Layer 1">
    <g id="id-lop-buri">
      <path d="M.98,14.25c-.66-.56-.98-1.35-.98-2.37s.37-1.82,1.1-2.42c.73-.6,1.72-.9,2.97-.9s2.35.23,3.34.69v-.77c0-.86-.23-1.49-.7-1.88s-1.25-.59-2.33-.59c-.6,0-1.19.06-1.76.17-.58.11-1.07.27-1.5.47v-1.5c.39-.19.92-.34,1.58-.47.67-.12,1.32-.19,1.96-.19,1.56,0,2.73.36,3.5,1.07.77.71,1.16,1.67,1.16,2.89v6.35h-1.91v-4.03c-.91-.46-1.96-.69-3.13-.69-.81,0-1.41.15-1.79.45s-.57.75-.57,1.35c0,1.14.73,1.71,2.19,1.71.45,0,.84-.06,1.18-.19v1.48c-.45.14-1,.21-1.65.21-1.11,0-2-.28-2.65-.83Z" style="fill: #fff;"/>
      <path d="M11.19,4.78h1.91l1.82,7.35,2.17-7.35h1.46l2.16,7.35,1.84-7.35h1.91l-2.79,10.03h-1.61l-2.23-7.53-2.25,7.53h-1.61l-2.77-10.03Z" style="fill: #fff;"/>
      <path d="M28.6,14.56c-.72-.35-1.28-.84-1.68-1.47-.39-.63-.59-1.35-.59-2.16v-6.15h1.91v6.11c0,.84.25,1.5.74,1.98.49.48,1.21.72,2.16.72s1.65-.24,2.15-.72c.49-.48.74-1.14.74-1.98v-6.11h1.91v6.15c0,.81-.2,1.53-.59,2.16-.39.63-.95,1.12-1.68,1.47s-1.57.52-2.53.52-1.82-.18-2.55-.52Z" style="fill: #fff;"/>
      <path d="M34.2,17.82c0-.22-.04-.38-.12-.46-.08-.08-.24-.12-.48-.12h-.62v-1.37h1.54c.56,0,.94.11,1.13.34.19.22.29.62.29,1.2v2.32h-1.74v-1.91Z" style="fill: #fff;"/>
      <path d="M39.73,14.85c-.71-.16-1.27-.38-1.67-.68v-1.54c.54.33,1.13.57,1.77.74.64.17,1.26.25,1.85.25.82,0,1.42-.1,1.78-.29.36-.19.54-.53.54-1,0-.32-.09-.59-.26-.79-.18-.2-.44-.38-.8-.52-.36-.15-.92-.34-1.68-.56-1.1-.34-1.92-.73-2.46-1.19s-.81-1.09-.81-1.9c0-.92.36-1.63,1.07-2.13.71-.49,1.69-.74,2.92-.74.64,0,1.25.07,1.85.22.59.14,1.08.33,1.47.57v1.57c-.42-.26-.91-.47-1.46-.62s-1.11-.22-1.69-.22c-1.5,0-2.25.45-2.25,1.35,0,.34.1.61.31.81.21.2.48.37.82.5.34.13.92.32,1.73.55.8.24,1.42.49,1.87.77.45.27.77.6.96.97s.28.84.28,1.39c0,.82-.34,1.49-1.01,1.99-.67.5-1.69.75-3.05.75-.69,0-1.39-.08-2.1-.23Z" style="fill: #fff;"/>
      <path d="M37.4,2h6.35V0h1.74v3.3h-8.1v-1.29Z" style="fill: #fff;"/>
    </g>
  </g>
</svg>