<?xml version="1.0" encoding="UTF-8"?>
<svg id="Layer_2" data-name="Layer 2" xmlns="http://www.w3.org/2000/svg" viewBox="0 0 59.04 9.64">
  <g id="Layer_1-2" data-name="Layer 1">
    <g id="id-mae-hong-son">
      <path d="M.33,9.1c-.22-.24-.33-.57-.33-1V2.97h1.54v4.65c0,.21.04.36.13.44.09.08.23.12.44.12h.42v1.29h-1.24c-.42,0-.74-.12-.96-.36ZM3.6,9.1c-.22-.24-.33-.57-.33-1V2.97h1.54v4.65c0,.21.04.36.13.44.09.08.23.12.44.12h.42v1.29h-1.24c-.42,0-.74-.12-.96-.36Z" style="fill: #fff;"/>
      <path d="M9.54,9.39c-.39-.17-.74-.41-1.05-.73v.8h-1.48V2.97h1.54v4.48c.42.66,1,.99,1.75.99.95,0,1.43-.44,1.43-1.33V2.97h1.53v4.21c0,.46-.1.88-.3,1.26s-.49.67-.87.89c-.38.21-.83.32-1.36.32-.41,0-.8-.08-1.2-.25Z" style="fill: #fff;"/>
      <path d="M11.73,0h1.54v2.09h-1.54V0Z" style="fill: #fff;"/>
      <path d="M15.72,9.47c-.5-.11-.92-.27-1.25-.47v-3.4h2.91v1.25h-1.37v1.35c.3.16.71.24,1.24.24.71,0,1.25-.19,1.61-.58.36-.39.55-.95.55-1.7s-.2-1.3-.61-1.65c-.4-.35-1.05-.52-1.94-.52-.41,0-.83.04-1.26.13s-.78.21-1.06.37v-1.2c.32-.16.71-.29,1.16-.37.45-.08.92-.13,1.42-.13.77,0,1.44.13,2,.4l.61-.7h1.7l-1.26,1.46c.54.59.81,1.33.81,2.22,0,1.08-.32,1.92-.96,2.55-.64.62-1.57.93-2.77.93-.52,0-1.03-.06-1.53-.17Z" style="fill: #fff;"/>
      <path d="M19.42,0h1.54v2.09h-1.54V0Z" style="fill: #fff;"/>
      <path d="M23.41,9.47c-.5-.11-.92-.27-1.25-.47v-3.4h2.91v1.25h-1.37v1.35c.3.16.71.24,1.24.24.71,0,1.25-.19,1.61-.58.36-.39.55-.95.55-1.7,0-.51-.08-.92-.24-1.24-.16-.32-.43-.55-.8-.7-.37-.15-.87-.23-1.5-.23-.41,0-.83.04-1.26.13s-.78.21-1.06.37v-1.2c.32-.16.71-.29,1.16-.37.45-.08.92-.13,1.42-.13,1.23,0,2.18.29,2.85.88s1.01,1.42,1.01,2.49-.32,1.92-.96,2.55c-.64.62-1.57.93-2.77.93-.52,0-1.03-.06-1.53-.17Z" style="fill: #fff;"/>
      <path d="M29.65,3.78h1.54l1.42,4.48c.68,0,1.2-.19,1.57-.58.37-.38.55-.93.55-1.64s-.12-1.2-.38-1.54c-.25-.34-.65-.51-1.2-.51-.3,0-.58.04-.84.12v-1.18c.31-.1.68-.15,1.1-.15.95,0,1.66.29,2.15.86.49.57.73,1.37.73,2.39,0,.71-.16,1.33-.47,1.84-.31.52-.73.91-1.26,1.18-.53.27-1.11.4-1.75.4h-1.4l-1.79-5.68Z" style="fill: #fff;"/>
      <path d="M37.94,9.1c-.44-.36-.66-.88-.66-1.54,0-.44.11-.82.33-1.15.22-.33.54-.59.95-.78s.89-.28,1.44-.28c.78,0,1.46.13,2.04.4v-.29c0-.5-.15-.87-.44-1.11-.3-.24-.77-.36-1.43-.36-.4,0-.79.04-1.17.12-.38.08-.72.19-1,.33v-1.2c.26-.12.62-.23,1.07-.32s.9-.13,1.34-.13c.65,0,1.22.1,1.7.3l.53-.61h1.7l-1.25,1.43c.32.36.47.86.47,1.5v4.04h-1.53v-2.5c-.54-.27-1.16-.41-1.86-.41-.45,0-.79.09-1.01.26s-.33.43-.33.76c0,.3.1.52.3.66.2.14.52.21.96.21.27,0,.51-.04.71-.12v1.18c-.3.1-.67.15-1.13.15-.72,0-1.3-.18-1.74-.55Z" style="fill: #fff;"/>
      <path d="M46.31,9.47c-.5-.11-.92-.27-1.25-.47v-3.4h2.91v1.25h-1.37v1.35c.3.16.71.24,1.24.24.71,0,1.25-.19,1.61-.58.36-.39.55-.95.55-1.7,0-.51-.08-.92-.24-1.24-.16-.32-.43-.55-.8-.7-.37-.15-.87-.23-1.5-.23-.41,0-.83.04-1.26.13s-.78.21-1.06.37v-1.2c.32-.16.71-.29,1.16-.37.45-.08.92-.13,1.42-.13,1.23,0,2.18.29,2.85.88s1.01,1.42,1.01,2.49-.32,1.92-.96,2.55c-.64.62-1.57.93-2.77.93-.52,0-1.03-.06-1.53-.17Z" style="fill: #fff;"/>
      <path d="M53.95,9.32c-.38-.21-.67-.51-.87-.89-.2-.38-.3-.79-.3-1.26V2.97h1.54v4.14c0,.89.47,1.33,1.42,1.33.74,0,1.33-.33,1.75-.99V2.97h1.54v6.49h-1.48v-.8c-.31.32-.66.57-1.05.73-.39.17-.79.25-1.19.25-.53,0-.98-.11-1.36-.32Z" style="fill: #fff;"/>
    </g>
  </g>
</svg>