<?xml version="1.0" encoding="UTF-8"?>
<svg id="Layer_2" data-name="Layer 2" xmlns="http://www.w3.org/2000/svg" viewBox="0 0 41.86 5.1">
  <g id="Layer_1-2" data-name="Layer 1">
    <g id="id-maha-sarakham">
      <path d="M1.8,4.92c-.28-.12-.53-.29-.75-.52v.57H0V.35h1.1v3.19c.3.47.71.71,1.25.71.68,0,1.02-.32,1.02-.95V.35h1.09v3c0,.33-.07.63-.21.9s-.35.48-.62.63c-.27.15-.59.23-.97.23-.29,0-.57-.06-.85-.18Z" style="fill: #fff;"/>
      <path d="M5.49.35h1.1v1.85l2-1.85h1.26l-1.26,1.17c.47.12.79.32.98.59s.28.63.28,1.08v1.79h-1.1v-1.71c0-.33-.06-.58-.18-.74-.12-.17-.33-.29-.64-.35l-1.33,1.24v1.57h-1.1V.35Z" style="fill: #fff;"/>
      <path d="M12.37,2.01c0-.34-.07-.58-.2-.73s-.38-.22-.73-.22c-.32,0-.65.08-.99.25V.47c.14-.07.32-.13.55-.18.23-.05.45-.07.67-.07.59,0,1.04.16,1.34.48.3.32.45.78.45,1.38v2.89h-1.1v-2.96Z" style="fill: #fff;"/>
      <path d="M14.81,4.71c-.31-.26-.47-.63-.47-1.1,0-.31.08-.58.24-.82.16-.24.38-.42.67-.55.29-.13.63-.2,1.02-.2.56,0,1.04.1,1.45.29v-.21c0-.36-.11-.62-.32-.79-.21-.17-.55-.25-1.02-.25-.28,0-.56.03-.83.09s-.51.14-.71.23v-.86c.18-.09.44-.16.76-.22s.64-.1.96-.1c.47,0,.87.07,1.21.22l.38-.43h1.21l-.89,1.02c.22.25.34.61.34,1.07v2.88h-1.09v-1.78c-.39-.2-.83-.29-1.32-.29-.32,0-.56.06-.72.19s-.24.3-.24.54c0,.21.07.37.22.47.14.1.37.15.68.15.2,0,.37-.03.51-.09v.84c-.21.07-.48.1-.8.1-.51,0-.93-.13-1.24-.39Z" style="fill: #fff;"/>
      <path d="M21.55,2.01c0-.34-.07-.58-.2-.73s-.38-.22-.73-.22c-.32,0-.65.08-.99.25V.47c.14-.07.32-.13.55-.18.23-.05.45-.07.67-.07.59,0,1.04.16,1.34.48.3.32.45.78.45,1.38v2.89h-1.1v-2.96Z" style="fill: #fff;"/>
      <path d="M24.33,5c-.34-.07-.6-.17-.79-.31v-.86c.25.15.53.26.84.34.31.08.59.11.85.11.35,0,.59-.03.75-.1.15-.07.23-.2.23-.39,0-.13-.04-.24-.12-.32-.08-.08-.19-.14-.33-.19-.14-.05-.4-.14-.78-.25-.5-.16-.87-.34-1.11-.56s-.37-.52-.37-.89c0-.43.17-.77.52-1,.35-.24.81-.35,1.4-.35.31,0,.61.03.89.1.29.07.52.15.71.26v.9c-.19-.12-.42-.22-.69-.29-.27-.07-.54-.11-.81-.11-.62,0-.92.17-.92.5,0,.12.04.22.11.29.07.08.18.14.3.19.13.05.32.11.58.19l.29.09c.37.12.66.24.86.37.2.13.35.29.43.46.08.17.12.39.12.64,0,.39-.16.7-.49.94-.33.24-.82.36-1.48.36-.33,0-.66-.03-1-.1Z" style="fill: #fff;"/>
      <path d="M28.17,2.17c0-.62.21-1.1.62-1.44.41-.34.97-.51,1.67-.51s1.26.17,1.67.51c.41.34.61.82.61,1.44v2.8h-1.1v-2.84c0-.35-.1-.62-.31-.79-.2-.18-.5-.26-.88-.26s-.67.09-.88.26c-.21.17-.31.44-.31.8v.76c.07-.12.19-.22.33-.29.15-.07.32-.11.51-.11h.7v.92h-.78c-.23,0-.41.07-.55.22-.14.15-.22.32-.22.53v.82h-1.1v-2.8Z" style="fill: #fff;"/>
      <path d="M35.27,2.01c0-.34-.07-.58-.2-.73s-.38-.22-.73-.22c-.32,0-.65.08-.99.25V.47c.14-.07.32-.13.55-.18.23-.05.45-.07.67-.07.59,0,1.04.16,1.34.48.3.32.45.78.45,1.38v2.89h-1.1v-2.96Z" style="fill: #fff;"/>
      <path d="M39.21,4.92c-.28-.12-.53-.29-.75-.52v.57h-1.05V.35h1.1v3.19c.3.47.71.71,1.25.71.68,0,1.02-.32,1.02-.95V.35h1.09v3c0,.33-.07.63-.21.9s-.35.48-.62.63c-.27.15-.59.23-.97.23-.29,0-.57-.06-.85-.18Z" style="fill: #fff;"/>
    </g>
  </g>
</svg>