<?xml version="1.0" encoding="UTF-8"?>
<svg id="Layer_2" data-name="Layer 2" xmlns="http://www.w3.org/2000/svg" viewBox="0 0 35.06 7.44">
  <g id="Layer_1-2" data-name="Layer 1">
    <g id="id-mukdahan">
      <path d="M1.9,4.96c-.29-.12-.56-.31-.79-.55v.6H0V.14h1.16v3.36c.32.5.75.75,1.31.75.72,0,1.07-.33,1.07-1V.14h1.15v3.16c0,.35-.07.66-.22.94-.15.28-.37.5-.65.66s-.62.24-1.02.24c-.3,0-.6-.06-.9-.19Z" style="fill: #fff;"/>
      <path d="M3.68,6.51c0-.11-.02-.19-.05-.23-.04-.04-.11-.06-.22-.06h-.32v-.74h.85c.3,0,.51.06.62.17s.16.32.16.61v1.18h-1.04v-.94Z" style="fill: #fff;"/>
      <path d="M6.05,2.04l-.46-.76c.33-.42.72-.74,1.15-.96.43-.22.94-.33,1.51-.33.76,0,1.34.17,1.74.51s.61.81.61,1.41v3.09h-1.16v-2.99c0-.38-.1-.66-.3-.84-.2-.18-.5-.27-.89-.27-.3,0-.56.04-.79.13-.23.09-.44.22-.63.42l.37.6v2.96h-1.16v-2.97Z" style="fill: #fff;"/>
      <path d="M12.16,4.52c-.43-.42-.64-1.02-.64-1.82,0-.56.11-1.04.33-1.44.22-.4.54-.71.96-.93.42-.22.91-.32,1.47-.32.89,0,1.54.21,1.96.62.41.41.62.95.62,1.61v2.78h-1.16v-2.79c0-.42-.11-.75-.33-.98-.22-.23-.58-.34-1.09-.34s-.87.16-1.15.47c-.28.31-.42.75-.42,1.32,0,.52.12.91.36,1.16.24.25.59.38,1.05.38.22,0,.43-.03.63-.09v.88c-.24.07-.51.11-.83.11-.74,0-1.32-.21-1.75-.62Z" style="fill: #fff;"/>
      <path d="M19.5,1.89c0-.36-.07-.61-.21-.76-.14-.15-.4-.23-.77-.23-.34,0-.69.09-1.04.26V.26c.15-.07.34-.14.58-.19.24-.05.47-.08.71-.08.62,0,1.1.17,1.42.51.32.34.48.83.48,1.46v3.04h-1.16V1.89Z" style="fill: #fff;"/>
      <path d="M21.75.14h1.16v1.95l2.1-1.95h1.33l-1.33,1.23c.49.13.83.33,1.03.62s.29.66.29,1.14v1.88h-1.16v-1.8c0-.35-.06-.61-.19-.78-.12-.18-.35-.3-.68-.37l-1.4,1.3v1.66h-1.16V.14Z" style="fill: #fff;"/>
      <path d="M29,1.89c0-.36-.07-.61-.21-.76-.14-.15-.4-.23-.77-.23-.34,0-.69.09-1.04.26V.26c.15-.07.34-.14.58-.19.24-.05.47-.08.71-.08.62,0,1.1.17,1.42.51.32.34.48.83.48,1.46v3.04h-1.16V1.89Z" style="fill: #fff;"/>
      <path d="M31.93,5.03c-.36-.07-.63-.18-.83-.33v-.9c.27.16.56.28.89.35.32.08.62.12.9.12.36,0,.63-.04.79-.11.16-.07.24-.21.24-.41,0-.14-.04-.25-.13-.33s-.2-.15-.35-.2c-.15-.05-.42-.14-.82-.26-.52-.16-.91-.36-1.17-.59-.26-.23-.39-.54-.39-.94,0-.46.18-.81.55-1.06.36-.25.86-.37,1.47-.37.33,0,.64.04.94.1.3.07.55.16.74.28v.95c-.2-.13-.44-.23-.72-.31-.28-.08-.57-.12-.85-.12-.65,0-.97.18-.97.53,0,.13.04.23.12.31.08.08.18.14.32.2.13.05.34.12.61.2l.3.09c.39.12.69.25.91.39.22.14.37.3.46.48s.13.41.13.67c0,.41-.17.74-.52.99-.35.25-.86.38-1.56.38-.35,0-.7-.04-1.05-.11Z" style="fill: #fff;"/>
    </g>
  </g>
</svg>