<?xml version="1.0" encoding="UTF-8"?>
<svg id="Layer_2" data-name="Layer 2" xmlns="http://www.w3.org/2000/svg" viewBox="0 0 21.62 5.75">
  <g id="Layer_1-2" data-name="Layer 1">
    <g id="id-nakhon-pathom">
      <path d="M.33,4.13c-.22-.22-.33-.52-.33-.87V1.1h.63v2.14c0,.25.07.43.21.56.14.12.34.19.6.19.42,0,.75-.19.99-.56V1.1h.63v3.28h-.61v-.44c-.31.36-.7.53-1.18.53-.4,0-.71-.11-.94-.34Z" style="fill: #fff;"/>
      <path d="M3.85,2.35c0-.43.14-.76.42-.99.28-.24.66-.35,1.15-.35s.86.12,1.14.35c.28.23.42.56.42.99v2.03h-.63v-2.05c0-.28-.08-.49-.25-.62-.16-.14-.39-.21-.69-.21s-.53.07-.69.21c-.16.14-.25.34-.25.62v.63c.05-.1.14-.18.25-.24.11-.06.25-.09.4-.09h.49v.52h-.54c-.17,0-.32.06-.43.18-.12.12-.17.26-.17.41v.64h-.63v-2.03Z" style="fill: #fff;"/>
      <path d="M8.21,4.4c-.23-.05-.42-.13-.55-.22v-.5c.18.11.37.19.58.24s.41.08.6.08c.27,0,.46-.03.58-.1.12-.06.18-.17.18-.33,0-.11-.03-.19-.09-.26-.06-.07-.14-.12-.26-.17-.12-.05-.3-.11-.55-.18-.36-.11-.63-.24-.8-.39-.18-.15-.26-.36-.26-.62,0-.3.12-.53.35-.7.23-.16.55-.24.96-.24.21,0,.41.02.6.07.19.05.36.11.48.19v.52c-.14-.09-.3-.15-.48-.2-.18-.05-.36-.07-.55-.07-.49,0-.74.15-.74.44,0,.11.03.2.1.26s.16.12.27.16c.11.04.3.1.57.18.26.08.47.16.61.25.15.09.25.2.31.32.06.12.09.27.09.45,0,.27-.11.49-.33.65s-.55.25-1,.25c-.22,0-.45-.03-.69-.08Z" style="fill: #fff;"/>
      <path d="M11.65,4.3c-.24-.11-.42-.28-.55-.48-.13-.21-.19-.44-.19-.71V1.1h.63v2c0,.27.08.49.24.65.16.16.4.24.71.24s.54-.08.7-.24c.16-.16.24-.37.24-.65V0h.63v3.11c0,.27-.06.5-.19.71-.13.21-.31.37-.55.48-.24.11-.51.17-.83.17s-.6-.06-.83-.17Z" style="fill: #fff;"/>
      <path d="M14.89,2.58h.62l.32,1.31c.4,0,.71-.11.95-.32.24-.21.36-.51.36-.89,0-.41-.1-.71-.29-.9s-.52-.28-.97-.28c-.21,0-.41.02-.62.06-.21.04-.39.09-.53.16v-.49c.15-.07.34-.12.55-.16.22-.04.44-.06.67-.06.39,0,.72.06.99.19l.31-.34h.69l-.57.65c.27.28.4.67.4,1.17,0,.32-.08.61-.25.87-.16.26-.38.46-.67.61-.28.15-.59.22-.92.22h-.61l-.44-1.8ZM15.07,5.71c-.12-.03-.22-.08-.3-.13v-.45c.17.11.37.17.61.17.18,0,.32-.04.42-.11.1-.08.17-.2.21-.37h.33l.71.43v-.57h.63v1.07h-.58l-.8-.48c-.08.18-.19.31-.33.38-.14.08-.32.11-.53.11-.12,0-.24-.02-.37-.05Z" style="fill: #fff;"/>
      <path d="M19.71,4.34c-.2-.09-.38-.22-.54-.4v.44h-.6V1.1h.63v2.32c.24.38.57.56.99.56.27,0,.47-.06.6-.19.14-.12.21-.31.21-.56V1.1h.63v2.17c0,.36-.11.65-.34.87-.22.23-.54.34-.93.34-.22,0-.44-.04-.64-.13Z" style="fill: #fff;"/>
    </g>
  </g>
</svg>