<?xml version="1.0" encoding="UTF-8"?>
<svg id="Layer_2" data-name="Layer 2" xmlns="http://www.w3.org/2000/svg" viewBox="0 0 65.69 10.97">
  <g id="Layer_1-2" data-name="Layer 1">
    <g id="id-nakhon-sawan">
      <path d="M.78,10.18c-.52-.53-.78-1.21-.78-2.04V3.07h1.46v5.01c0,.57.16,1.01.48,1.3.32.29.79.44,1.41.44.99,0,1.76-.44,2.33-1.32V3.07h1.46v7.68h-1.42v-1.03c-.72.83-1.64,1.25-2.76,1.25-.94,0-1.67-.26-2.19-.79Z" style="fill: #fff;"/>
      <path d="M9.02,6c0-1,.33-1.77.98-2.32.65-.55,1.55-.83,2.69-.83s2.02.27,2.67.82c.65.55.98,1.32.98,2.33v4.75h-1.46v-4.8c0-.65-.19-1.14-.57-1.46-.38-.32-.92-.48-1.61-.48s-1.24.16-1.62.48-.57.81-.57,1.46v1.46c.12-.23.32-.41.59-.55.27-.14.58-.21.95-.21h1.15v1.21h-1.26c-.4,0-.74.14-1.01.42-.27.28-.41.61-.41.97v1.49h-1.46v-4.75Z" style="fill: #fff;"/>
      <path d="M19.23,10.79c-.55-.12-.97-.29-1.28-.52v-1.18c.41.25.86.44,1.36.57s.96.19,1.41.19c.63,0,1.09-.07,1.37-.22.28-.15.42-.4.42-.77,0-.25-.07-.45-.2-.6s-.34-.29-.61-.4c-.27-.11-.7-.26-1.29-.43-.84-.26-1.47-.56-1.88-.91-.41-.35-.62-.84-.62-1.46,0-.71.27-1.25.82-1.63s1.29-.57,2.24-.57c.49,0,.96.06,1.42.17.46.11.83.26,1.13.44v1.21c-.33-.2-.7-.36-1.12-.47-.42-.12-.85-.17-1.29-.17-1.15,0-1.72.34-1.72,1.03,0,.26.08.46.24.62.16.15.37.28.63.38.26.1.71.24,1.33.42.61.18,1.09.38,1.44.59.34.21.59.46.73.75s.22.64.22,1.06c0,.63-.26,1.14-.78,1.52-.52.38-1.3.57-2.34.57-.53,0-1.06-.06-1.61-.18Z" style="fill: #fff;"/>
      <path d="M26,10.33c-.5-.43-.75-1.03-.75-1.82s.28-1.39.84-1.85c.56-.46,1.32-.69,2.28-.69s1.8.18,2.56.53v-.59c0-.66-.18-1.14-.54-1.44-.36-.3-.96-.45-1.79-.45-.46,0-.91.04-1.35.13-.44.09-.82.21-1.15.36v-1.15c.3-.14.7-.26,1.21-.36.51-.1,1.01-.14,1.5-.14.86,0,1.58.16,2.15.47l.73-.83h1.62l-1.45,1.62c.34.49.52,1.08.52,1.77v4.87h-1.46v-3.09c-.7-.35-1.5-.53-2.4-.53-.62,0-1.08.11-1.37.34-.29.23-.44.57-.44,1.03,0,.87.56,1.31,1.68,1.31.34,0,.65-.05.9-.14v1.13c-.34.1-.77.16-1.26.16-.85,0-1.53-.21-2.03-.64Z" style="fill: #fff;"/>
      <path d="M34.18,10.33v-1.18c.64.45,1.48.67,2.51.67.94,0,1.67-.24,2.19-.73.52-.49.78-1.21.78-2.17s-.26-1.68-.78-2.17c-.52-.49-1.25-.73-2.19-.73-1.01,0-1.83.23-2.49.67v-1.19c.67-.43,1.59-.65,2.77-.65,1.29,0,2.31.36,3.06,1.07.75.71,1.12,1.71,1.12,2.99s-.37,2.28-1.12,2.99c-.75.71-1.77,1.06-3.06,1.06-1.21,0-2.14-.22-2.8-.65Z" style="fill: #fff;"/>
      <path d="M43.78,10.79c-.55-.12-.97-.29-1.28-.52v-1.18c.41.25.86.44,1.36.57s.96.19,1.41.19c.63,0,1.09-.07,1.37-.22.28-.15.42-.4.42-.77,0-.25-.07-.45-.2-.6s-.34-.29-.61-.4c-.27-.11-.7-.26-1.29-.43-.84-.26-1.47-.56-1.88-.91-.41-.35-.62-.84-.62-1.46,0-.71.27-1.25.82-1.63s1.29-.57,2.24-.57c.49,0,.96.06,1.42.17.46.11.83.26,1.13.44v1.21c-.33-.2-.7-.36-1.12-.47-.42-.12-.85-.17-1.29-.17-1.15,0-1.72.34-1.72,1.03,0,.26.08.46.24.62.16.15.37.28.63.38.26.1.71.24,1.33.42.61.18,1.09.38,1.44.59.34.21.59.46.73.75s.22.64.22,1.06c0,.63-.26,1.14-.78,1.52-.52.38-1.3.57-2.34.57-.53,0-1.06-.06-1.61-.18Z" style="fill: #fff;"/>
      <path d="M51.12,10.79c-.55-.12-.97-.29-1.28-.52v-1.18c.41.25.86.44,1.36.57s.96.19,1.41.19c.63,0,1.09-.07,1.37-.22.28-.15.42-.4.42-.77,0-.25-.07-.45-.2-.6s-.34-.29-.61-.4c-.27-.11-.7-.26-1.29-.43-.84-.26-1.47-.56-1.88-.91-.41-.35-.62-.84-.62-1.46,0-.71.27-1.25.82-1.63s1.29-.57,2.24-.57c.49,0,.96.06,1.42.17.46.11.83.26,1.13.44v1.21c-.33-.2-.7-.36-1.12-.47-.42-.12-.85-.17-1.29-.17-1.15,0-1.72.34-1.72,1.03,0,.26.08.46.24.62.16.15.37.28.63.38.26.1.71.24,1.33.42.61.18,1.09.38,1.44.59.34.21.59.46.73.75s.22.64.22,1.06c0,.63-.26,1.14-.78,1.52-.52.38-1.3.57-2.34.57-.53,0-1.06-.06-1.61-.18Z" style="fill: #fff;"/>
      <path d="M57.42,6c0-1,.33-1.77.98-2.32.65-.55,1.55-.83,2.69-.83s2.02.27,2.67.82c.65.55.98,1.32.98,2.33v4.75h-1.46v-4.8c0-.65-.19-1.14-.57-1.46-.38-.32-.92-.48-1.61-.48s-1.24.16-1.62.48-.57.81-.57,1.46v1.46c.12-.23.32-.41.59-.55.27-.14.58-.21.95-.21h1.15v1.21h-1.26c-.4,0-.74.14-1.01.42-.27.28-.41.61-.41.97v1.49h-1.46v-4.75Z" style="fill: #fff;"/>
      <path d="M61.3,1.12c0-.75.41-1.12,1.22-1.12h3.17v.96h-2.6c-.17,0-.29.03-.36.1-.07.07-.1.19-.1.36v.52h-1.34v-.82Z" style="fill: #fff;"/>
    </g>
  </g>
</svg>