<?xml version="1.0" encoding="UTF-8"?>
<svg id="Layer_2" data-name="Layer 2" xmlns="http://www.w3.org/2000/svg" viewBox="0 0 66.45 8.18">
  <g id="Layer_1-2" data-name="Layer 1">
    <g id="id-nakhon-si-thammarat">
      <path d="M.55,7.62c-.37-.37-.55-.85-.55-1.44v-3.59h1.04v3.55c0,.41.11.71.34.92.23.21.56.31,1,.31.7,0,1.25-.31,1.65-.93v-3.84h1.04v5.44h-1.01v-.73c-.51.59-1.16.88-1.95.88-.66,0-1.18-.19-1.55-.56Z" style="fill: #fff;"/>
      <path d="M6.38,4.66c0-.7.23-1.25.69-1.64.46-.39,1.09-.58,1.9-.58s1.43.19,1.89.58c.46.39.69.93.69,1.65v3.36h-1.04v-3.39c0-.46-.14-.8-.41-1.03-.27-.23-.65-.34-1.14-.34s-.88.11-1.15.34c-.27.23-.41.57-.41,1.03v1.04c.09-.16.23-.29.42-.39.19-.1.41-.15.67-.15h.81v.85h-.89c-.28,0-.52.1-.72.3-.19.2-.29.43-.29.69v1.06h-1.04v-3.36Z" style="fill: #fff;"/>
      <path d="M13.6,8.05c-.39-.08-.69-.21-.9-.37v-.83c.29.18.61.31.96.4.35.09.68.14,1,.14.45,0,.77-.05.97-.16.2-.1.29-.29.29-.54,0-.18-.05-.32-.14-.43-.1-.11-.24-.2-.43-.29-.19-.08-.5-.18-.91-.3-.6-.18-1.04-.4-1.33-.64-.29-.25-.44-.59-.44-1.03,0-.5.19-.89.58-1.15.39-.27.92-.4,1.58-.4.35,0,.68.04,1,.12.32.08.59.18.8.31v.85c-.23-.14-.5-.25-.79-.34-.3-.08-.6-.12-.91-.12-.81,0-1.22.24-1.22.73,0,.18.06.33.17.44s.26.2.45.27c.19.07.5.17.94.3.43.13.77.27,1.02.42.24.15.42.33.52.53s.15.45.15.75c0,.45-.18.81-.55,1.08-.37.27-.92.41-1.66.41-.37,0-.75-.04-1.14-.13Z" style="fill: #fff;"/>
      <path d="M18.06,4.66c0-.7.23-1.25.69-1.64.46-.39,1.09-.58,1.9-.58.52,0,.97.08,1.34.24l.44-.5h1.15l-.87,1c.35.39.53.88.53,1.48v3.36h-1.04v-3.39c0-.46-.14-.8-.41-1.03-.27-.23-.65-.34-1.14-.34s-.88.11-1.15.34c-.27.23-.41.57-.41,1.03v1.04c.09-.16.23-.29.42-.39.19-.1.41-.15.67-.15h.81v.85h-.89c-.28,0-.52.1-.72.3-.19.2-.29.43-.29.69v1.06h-1.04v-3.36Z" style="fill: #fff;"/>
      <path d="M25.33,8.05c-.39-.08-.69-.21-.9-.37v-.83c.29.18.61.31.96.4.35.09.68.14,1,.14.45,0,.77-.05.97-.16.2-.1.29-.29.29-.54,0-.18-.05-.32-.14-.43-.1-.11-.24-.2-.43-.29-.19-.08-.5-.18-.91-.3-.6-.18-1.04-.4-1.33-.64-.29-.25-.44-.59-.44-1.03,0-.5.19-.89.58-1.15.39-.27.92-.4,1.58-.4.35,0,.68.04,1,.12.32.08.59.18.8.31v.85c-.23-.14-.5-.25-.79-.34-.3-.08-.6-.12-.91-.12-.81,0-1.22.24-1.22.73,0,.18.06.33.17.44s.26.2.45.27c.19.07.5.17.94.3.43.13.77.27,1.02.42.24.15.42.33.52.53s.15.45.15.75c0,.45-.18.81-.55,1.08-.37.27-.92.41-1.66.41-.37,0-.75-.04-1.14-.13Z" style="fill: #fff;"/>
      <path d="M24.07,1.09h3.44V0h.94v1.79h-4.39v-.7Z" style="fill: #fff;"/>
      <path d="M30.27,7.75c-.44-.29-.66-.69-.66-1.19v-.68h1.03v.62c0,.3.12.53.37.68.25.15.58.22,1,.22s.74-.07.97-.2c.23-.13.34-.34.34-.62,0-.22-.05-.4-.15-.52s-.26-.22-.47-.3c-.21-.08-.56-.17-1.04-.29-.46-.11-.83-.22-1.12-.34-.29-.12-.52-.28-.69-.47-.17-.2-.25-.45-.25-.76,0-.49.21-.86.65-1.09.43-.23.99-.35,1.67-.35.39,0,.79.04,1.18.13s.7.19.93.32v.85c-.25-.15-.56-.27-.91-.35-.36-.08-.72-.13-1.09-.13-.46,0-.81.04-1.04.12-.23.08-.35.25-.35.5,0,.15.05.27.16.37s.25.17.44.24.46.14.82.24l.37.1c.47.13.85.26,1.12.39.27.13.47.3.61.52.14.21.2.49.2.83,0,.49-.2.88-.61,1.17-.41.29-.98.44-1.73.44s-1.3-.14-1.74-.43Z" style="fill: #fff;"/>
      <path d="M36.19,8.05c-.39-.08-.69-.21-.9-.37v-.83c.29.18.61.31.96.4.35.09.68.14,1,.14.45,0,.77-.05.97-.16.2-.1.29-.29.29-.54,0-.18-.05-.32-.14-.43-.1-.11-.24-.2-.43-.29-.19-.08-.5-.18-.91-.3-.6-.18-1.04-.4-1.33-.64-.29-.25-.44-.59-.44-1.03,0-.5.19-.89.58-1.15.39-.27.92-.4,1.58-.4.35,0,.68.04,1,.12.32.08.59.18.8.31v.85c-.23-.14-.5-.25-.79-.34-.3-.08-.6-.12-.91-.12-.81,0-1.22.24-1.22.73,0,.18.06.33.17.44s.26.2.45.27c.19.07.5.17.94.3.43.13.77.27,1.02.42.24.15.42.33.52.53s.15.45.15.75c0,.45-.18.81-.55,1.08-.37.27-.92.41-1.66.41-.37,0-.75-.04-1.14-.13Z" style="fill: #fff;"/>
      <path d="M41.38,8.05c-.39-.08-.69-.21-.9-.37v-.83c.29.18.61.31.96.4.35.09.68.14,1,.14.45,0,.77-.05.97-.16.2-.1.29-.29.29-.54,0-.18-.05-.32-.14-.43-.1-.11-.24-.2-.43-.29-.19-.08-.5-.18-.91-.3-.6-.18-1.04-.4-1.33-.64-.29-.25-.44-.59-.44-1.03,0-.5.19-.89.58-1.15.39-.27.92-.4,1.58-.4.35,0,.68.04,1,.12.32.08.59.18.8.31v.85c-.23-.14-.5-.25-.79-.34-.3-.08-.6-.12-.91-.12-.81,0-1.22.24-1.22.73,0,.18.06.33.17.44s.26.2.45.27c.19.07.5.17.94.3.43.13.77.27,1.02.42.24.15.42.33.52.53s.15.45.15.75c0,.45-.18.81-.55,1.08-.37.27-.92.41-1.66.41-.37,0-.75-.04-1.14-.13Z" style="fill: #fff;"/>
      <path d="M47.74,7.96c-.34-.15-.64-.37-.9-.66v.73h-1V2.59h1.04v3.84c.4.62.95.93,1.65.93.44,0,.77-.1,1-.31.23-.21.34-.51.34-.92v-3.55h1.04v3.59c0,.59-.19,1.07-.56,1.44-.37.37-.89.56-1.54.56-.37,0-.73-.07-1.06-.22Z" style="fill: #fff;"/>
      <path d="M52.95,8.05c-.39-.08-.69-.21-.9-.37v-.83c.29.18.61.31.96.4.35.09.68.14,1,.14.45,0,.77-.05.97-.16.2-.1.29-.29.29-.54,0-.18-.05-.32-.14-.43-.1-.11-.24-.2-.43-.29-.19-.08-.5-.18-.91-.3-.6-.18-1.04-.4-1.33-.64-.29-.25-.44-.59-.44-1.03,0-.5.19-.89.58-1.15.39-.27.92-.4,1.58-.4.35,0,.68.04,1,.12.32.08.59.18.8.31v.85c-.23-.14-.5-.25-.79-.34-.3-.08-.6-.12-.91-.12-.81,0-1.22.24-1.22.73,0,.18.06.33.17.44s.26.2.45.27c.19.07.5.17.94.3.43.13.77.27,1.02.42.24.15.42.33.52.53s.15.45.15.75c0,.45-.18.81-.55,1.08-.37.27-.92.41-1.66.41-.37,0-.75-.04-1.14-.13Z" style="fill: #fff;"/>
      <path d="M59.32,4.51c0-.43-.09-.75-.26-.95-.18-.2-.49-.3-.93-.3s-.84.09-1.22.28v-.81c.16-.08.37-.15.63-.21.26-.06.52-.09.78-.09.68,0,1.2.18,1.53.55s.51.9.51,1.59v3.44h-1.04v-3.52Z" style="fill: #fff;"/>
      <path d="M62.68,7.92c-.37-.17-.65-.41-.85-.72-.2-.31-.3-.66-.3-1.06v-.34c0-.23.05-.45.15-.65s.24-.42.42-.66c.13-.18.22-.32.28-.43s.09-.21.09-.3c0-.13-.03-.22-.1-.27-.06-.05-.17-.08-.32-.08h-.57v-.82h1.07c.3,0,.53.09.71.26.17.17.26.4.26.69,0,.2-.04.38-.12.54s-.2.37-.37.6c-.16.24-.28.44-.35.59-.07.15-.11.31-.11.49v.38c0,.39.12.69.37.9s.58.33,1.02.33c.46,0,.82-.13,1.08-.38.26-.25.39-.62.39-1.11s-.1-.85-.3-1.1c-.2-.24-.5-.37-.89-.37v-.56l1.09-1.42h1.12l-1.15,1.51c.41.16.71.39.9.72.19.32.28.73.28,1.21s-.1.87-.31,1.22c-.21.35-.5.61-.88.8-.38.19-.82.28-1.31.28s-.9-.08-1.27-.25Z" style="fill: #fff;"/>
    </g>
  </g>
</svg>