<?xml version="1.0" encoding="UTF-8"?>
<svg id="Layer_2" data-name="Layer 2" xmlns="http://www.w3.org/2000/svg" viewBox="0 0 30.01 6.18">
  <g id="Layer_1-2" data-name="Layer 1">
    <g id="id-nong-bua-lam-phu">
      <path d="M0,1.61h.72v1.21l1.3-1.21h.82l-.82.76c.3.08.52.21.64.38.12.18.18.41.18.71v1.17h-.72v-1.12c0-.21-.04-.38-.12-.48-.08-.11-.22-.19-.42-.23l-.87.81v1.03h-.72V1.61Z" style="fill: #fff;"/>
      <path d="M4.06,4.57c-.18-.1-.31-.24-.4-.41s-.14-.37-.14-.58v-1.96h.72v1.92c0,.41.22.62.66.62.35,0,.62-.15.81-.46V1.61h.72v3.02h-.69v-.37c-.14.15-.31.26-.49.34-.18.08-.37.12-.56.12-.24,0-.46-.05-.63-.15Z" style="fill: #fff;"/>
      <path d="M7.57,4.64c-.23-.05-.43-.13-.58-.22v-1.58h1.35v.58h-.64v.63c.14.08.33.11.58.11.33,0,.58-.09.75-.27.17-.18.25-.44.25-.79,0-.24-.04-.43-.11-.58s-.2-.26-.37-.33c-.17-.07-.41-.11-.7-.11-.19,0-.39.02-.58.06s-.36.1-.49.17v-.56c.15-.08.33-.13.54-.17.21-.04.43-.06.66-.06.57,0,1.01.14,1.33.41.31.27.47.66.47,1.16s-.15.9-.45,1.19-.73.43-1.29.43c-.24,0-.48-.03-.71-.08Z" style="fill: #fff;"/>
      <path d="M10.47,1.99h.72l.66,2.08c.32,0,.56-.09.73-.27.17-.18.26-.43.26-.76s-.06-.56-.18-.72c-.12-.16-.3-.24-.56-.24-.14,0-.27.02-.39.06v-.55c.15-.04.32-.07.51-.07.44,0,.77.13,1,.4s.34.64.34,1.11c0,.33-.07.62-.22.86s-.34.42-.58.55c-.24.12-.51.19-.81.19h-.65l-.83-2.64Z" style="fill: #fff;"/>
      <path d="M14.85,4.55c-.23-.11-.4-.26-.52-.45-.12-.19-.18-.41-.18-.66v-1.82h.72v1.79c0,.24.07.42.2.55.13.13.33.2.59.2s.45-.07.58-.2c.13-.13.2-.32.2-.55v-1.79h.72v1.82c0,.25-.06.47-.18.66-.12.19-.3.35-.52.45-.23.11-.49.16-.79.16s-.57-.05-.79-.16Z" style="fill: #fff;"/>
      <path d="M15.61,1.07c-.08-.09-.12-.23-.12-.41v-.33h.64v.26c0,.06.01.1.03.12s.06.03.12.03h1.34v.46h-1.64c-.18,0-.3-.04-.39-.14Z" style="fill: #fff;"/>
      <path d="M17.7,4.47v-.56c.23.17.56.25.98.25.34,0,.61-.09.8-.26.19-.17.28-.43.28-.78s-.09-.61-.28-.78-.45-.26-.8-.26c-.39,0-.71.08-.96.25v-.56c.26-.16.63-.24,1.11-.24.52,0,.93.14,1.22.42.3.28.44.67.44,1.18s-.15.89-.45,1.17c-.3.28-.7.42-1.22.42s-.87-.08-1.12-.24Z" style="fill: #fff;"/>
      <path d="M21.25,4.46c-.21-.17-.31-.41-.31-.72,0-.2.05-.38.16-.54.1-.15.25-.27.44-.36.19-.09.41-.13.67-.13.37,0,.68.06.95.19v-.14c0-.23-.07-.41-.21-.52-.14-.11-.36-.17-.66-.17-.18,0-.37.02-.54.06-.18.04-.33.09-.46.15v-.56c.12-.06.29-.11.5-.15.21-.04.42-.06.62-.06.49,0,.86.11,1.1.33.24.22.37.52.37.89v1.88h-.71v-1.16c-.25-.13-.54-.19-.86-.19-.21,0-.37.04-.47.12-.1.08-.16.2-.16.35,0,.14.05.24.14.31.09.07.24.1.45.1.13,0,.24-.02.33-.06v.55c-.14.04-.31.07-.52.07-.33,0-.6-.08-.81-.25Z" style="fill: #fff;"/>
      <path d="M23,1.11c-.13-.12-.19-.28-.19-.46s.06-.33.19-.46c.13-.13.28-.19.46-.19s.33.06.45.19c.13.13.19.28.19.46s-.06.33-.19.46c-.12.12-.28.19-.45.19s-.33-.06-.46-.19ZM23.62.83c.05-.05.07-.11.07-.17s-.02-.12-.07-.17-.1-.08-.17-.08-.12.02-.17.07-.07.11-.07.17c0,.06.02.12.07.17s.1.08.17.08c.06,0,.12-.03.16-.08ZM25.54,2.7c0-.22-.04-.38-.13-.47-.09-.09-.25-.14-.48-.14-.21,0-.42.05-.64.16v-.56c.09-.05.21-.08.36-.12.15-.03.29-.05.44-.05.39,0,.68.1.88.32.2.21.3.51.3.9v1.88h-.72v-1.93Z" style="fill: #fff;"/>
      <path d="M26.82,4.03h.22c.1,0,.17-.02.2-.06.04-.04.05-.11.05-.21v-.98l-.39-.47c.4-.53.95-.8,1.65-.8.47,0,.82.1,1.07.32.25.21.38.5.38.87v1.91h-.72v-1.86c0-.23-.06-.41-.19-.52s-.31-.17-.55-.17c-.18,0-.34.03-.48.08-.14.05-.27.13-.39.24l.33.39v1.2c0,.2-.05.36-.16.47-.11.11-.26.17-.45.17h-.58v-.6Z" style="fill: #fff;"/>
      <path d="M28.66,6.03c-.14-.1-.21-.24-.21-.42v-.1c0-.05,0-.09-.02-.1-.02-.02-.05-.03-.1-.03h-.19v-.46h.57c.1,0,.18.02.22.07.04.05.06.12.06.23v.32c0,.15.08.23.24.23s.24-.08.24-.23v-.61h.54v.67c0,.17-.07.31-.2.42s-.32.16-.56.16c-.26,0-.45-.05-.6-.15Z" style="fill: #fff;"/>
    </g>
  </g>
</svg>