<?xml version="1.0" encoding="UTF-8"?>
<svg id="Layer_2" data-name="Layer 2" xmlns="http://www.w3.org/2000/svg" viewBox="0 0 27.1 3.8">
  <g id="Layer_1-2" data-name="Layer 1">
    <g id="id-nakhon-nayok">
      <g>
        <path d="M.65,3.62c-.21-.12-.37-.28-.48-.49-.11-.21-.17-.44-.17-.7V.1h.85v2.29c0,.49.26.74.79.74.41,0,.74-.18.97-.55V.1h.85v3.6h-.82v-.44c-.17.18-.36.31-.58.41s-.44.14-.66.14c-.29,0-.54-.06-.75-.18Z" style="fill: #fff;"/>
        <path d="M4.27,1.52c0-.48.16-.86.48-1.12s.75-.4,1.3-.4.98.13,1.3.4.48.64.48,1.12v2.18h-.85V1.49c0-.27-.08-.48-.24-.62-.16-.14-.39-.21-.68-.21s-.52.07-.69.2c-.16.13-.24.34-.24.62v.59c.06-.09.15-.17.26-.23.11-.06.25-.09.4-.09h.54v.71h-.61c-.18,0-.32.06-.43.17-.11.11-.17.25-.17.41v.64h-.85V1.52Z" style="fill: #fff;"/>
        <path d="M9.15,3.72c-.26-.05-.47-.13-.62-.24v-.67c.2.12.42.2.66.26.24.06.46.09.66.09.27,0,.46-.03.58-.08.12-.05.18-.15.18-.3,0-.1-.03-.19-.09-.25-.06-.06-.15-.11-.26-.15s-.31-.11-.61-.19c-.39-.12-.67-.27-.87-.44-.19-.17-.29-.4-.29-.69,0-.34.13-.6.4-.78.27-.18.63-.28,1.09-.28.24,0,.47.03.7.08.22.05.41.12.55.21v.7c-.15-.09-.33-.17-.54-.23-.21-.06-.42-.09-.63-.09-.48,0-.72.13-.72.39,0,.09.03.17.09.23.06.06.14.11.24.14s.25.09.45.15l.22.07c.29.09.51.19.67.29.16.1.27.22.34.36.07.13.1.3.1.5,0,.3-.13.54-.38.73-.26.19-.64.28-1.15.28-.25,0-.51-.03-.78-.08Z" style="fill: #fff;"/>
        <path d="M12.78,3.62c-.21-.12-.37-.28-.48-.49-.11-.21-.17-.44-.17-.7V.1h.85v2.29c0,.49.26.74.79.74.41,0,.74-.18.97-.55V.1h.85v3.6h-.82v-.44c-.17.18-.36.31-.58.41s-.44.14-.66.14c-.29,0-.54-.06-.75-.18Z" style="fill: #fff;"/>
        <path d="M17.56,1.4c0-.26-.05-.45-.16-.56-.11-.11-.3-.17-.57-.17-.25,0-.51.07-.77.2V.2c.11-.05.25-.1.43-.14.18-.04.35-.06.52-.06.46,0,.81.13,1.05.38.24.25.35.61.35,1.08v2.25h-.85V1.4Z" style="fill: #fff;"/>
        <path d="M19.57,3.49c-.32-.21-.48-.5-.48-.88,0-.18.05-.35.16-.5s.25-.25.42-.31c-.16-.08-.29-.19-.39-.33s-.15-.31-.15-.48c0-.3.1-.54.31-.72s.51-.27.92-.27c.13,0,.25,0,.36.02.12.02.21.04.28.06v.67c-.06-.03-.13-.05-.23-.06-.09-.01-.17-.02-.25-.02-.34,0-.52.13-.52.38,0,.14.04.24.13.31.08.07.22.1.41.1h.45v.69h-.45c-.38,0-.57.15-.57.46,0,.16.08.29.24.38s.38.14.66.14c.35,0,.61-.07.77-.21.16-.14.25-.35.25-.63V.09h.85v2.18c0,.26-.06.5-.18.73-.12.23-.33.42-.61.57s-.64.23-1.08.23c-.53,0-.96-.1-1.29-.31Z" style="fill: #fff;"/>
        <path d="M23.74,1.51l-.34-.56c.25-.31.53-.54.85-.71.32-.16.69-.24,1.11-.24.56,0,.99.13,1.29.38.3.25.45.6.45,1.04v2.28h-.85V1.49c0-.28-.07-.48-.22-.62-.15-.13-.37-.2-.66-.2-.22,0-.41.03-.58.09-.17.06-.32.17-.47.31l.28.44v2.19h-.85V1.51Z" style="fill: #fff;"/>
      </g>
    </g>
  </g>
</svg>