<?xml version="1.0" encoding="UTF-8"?>
<svg id="Layer_2" data-name="Layer 2" xmlns="http://www.w3.org/2000/svg" viewBox="0 0 79.86 13.21">
  <g id="Layer_1-2" data-name="Layer 1">
    <g id="id-nakhon-ratchasima">
      <path d="M1.56,12.78c-.51-.29-.9-.68-1.16-1.19s-.4-1.07-.4-1.68v-5.65h2.07v5.55c0,1.19.63,1.79,1.9,1.79,1,0,1.78-.44,2.34-1.33v-6h2.07v8.71h-1.98v-1.07c-.41.43-.88.76-1.41.98-.53.22-1.06.33-1.6.33-.71,0-1.31-.14-1.82-.43Z" style="fill: #fff;"/>
      <path d="M10.33,7.7c0-1.17.39-2.08,1.16-2.72.78-.64,1.83-.96,3.15-.96s2.37.32,3.14.96c.77.64,1.16,1.55,1.16,2.72v5.27h-2.07v-5.35c0-.66-.19-1.16-.58-1.49s-.94-.5-1.65-.5-1.27.16-1.66.49c-.39.33-.59.82-.59,1.5v1.43c.14-.23.35-.41.63-.55.28-.14.6-.21.97-.21h1.32v1.72h-1.46c-.42,0-.77.14-1.04.42-.27.28-.41.61-.41,1v1.55h-2.07v-5.27Z" style="fill: #fff;"/>
      <path d="M22.12,13.02c-.63-.13-1.13-.33-1.49-.59v-1.61c.48.28,1.01.49,1.59.63.58.14,1.11.21,1.6.21.65,0,1.12-.06,1.41-.2.29-.13.43-.37.43-.73,0-.25-.08-.45-.23-.59-.15-.15-.36-.27-.62-.37-.26-.1-.75-.25-1.46-.47-.93-.29-1.63-.65-2.09-1.06-.46-.41-.69-.97-.69-1.68,0-.81.33-1.44.98-1.89.65-.44,1.53-.67,2.64-.67.59,0,1.15.06,1.68.19.54.12.98.29,1.33.5v1.69c-.36-.23-.79-.41-1.29-.55-.5-.14-1.01-.21-1.52-.21-1.16,0-1.74.31-1.74.94,0,.23.07.41.21.55.14.14.33.26.57.35.24.09.6.21,1.09.37l.54.16c.69.22,1.23.45,1.62.7.38.25.66.54.81.86.16.33.24.73.24,1.2,0,.73-.31,1.32-.93,1.77s-1.55.68-2.78.68c-.62,0-1.25-.06-1.88-.2Z" style="fill: #fff;"/>
      <path d="M30.56,13.02c-.63-.13-1.13-.33-1.49-.59v-1.61c.48.28,1.01.49,1.59.63.58.14,1.11.21,1.6.21.65,0,1.12-.06,1.41-.2.29-.13.43-.37.43-.73,0-.25-.08-.45-.23-.59-.15-.15-.36-.27-.62-.37-.26-.1-.75-.25-1.46-.47-.93-.29-1.63-.65-2.09-1.06-.46-.41-.69-.97-.69-1.68,0-.81.33-1.44.98-1.89.65-.44,1.53-.67,2.64-.67.59,0,1.15.06,1.68.19.54.12.98.29,1.33.5v1.69c-.36-.23-.79-.41-1.29-.55-.5-.14-1.01-.21-1.52-.21-1.16,0-1.74.31-1.74.94,0,.23.07.41.21.55.14.14.33.26.57.35.24.09.6.21,1.09.37l.54.16c.69.22,1.23.45,1.62.7.38.25.66.54.81.86.16.33.24.73.24,1.2,0,.73-.31,1.32-.93,1.77s-1.55.68-2.78.68c-.62,0-1.25-.06-1.88-.2Z" style="fill: #fff;"/>
      <path d="M40.58,7.4c0-.64-.13-1.1-.38-1.37-.25-.27-.71-.41-1.38-.41-.61,0-1.23.16-1.85.47v-1.61c.26-.13.6-.24,1.03-.33.43-.09.85-.14,1.26-.14,1.12,0,1.96.3,2.53.91.57.61.85,1.48.85,2.6v5.43h-2.07v-5.56Z" style="fill: #fff;"/>
      <path d="M46.29,12.8c-.61-.28-1.08-.66-1.42-1.16-.34-.49-.5-1.05-.5-1.68v-.41c0-.38.08-.73.24-1.06.16-.33.39-.69.67-1.09.2-.29.33-.5.41-.63.08-.13.11-.26.11-.39,0-.33-.2-.49-.6-.49h-.93v-1.63h2.02c.49,0,.88.14,1.16.42.29.28.43.65.43,1.11,0,.33-.06.62-.19.89-.12.27-.31.6-.54.99-.24.39-.42.71-.54.97-.12.25-.18.53-.18.82v.41c0,.54.17.97.51,1.27s.83.46,1.46.46c.66,0,1.17-.18,1.52-.54.35-.36.53-.9.53-1.6,0-1.42-.58-2.13-1.74-2.13v-1.09l1.66-2.21h2.21l-1.81,2.41c.62.29,1.06.68,1.33,1.17.27.49.41,1.11.41,1.85s-.17,1.38-.5,1.94c-.34.57-.82,1.01-1.44,1.33-.62.32-1.35.48-2.17.48s-1.51-.14-2.12-.42Z" style="fill: #fff;"/>
      <path d="M54.78,12.48c-.59-.49-.89-1.18-.89-2.07,0-.59.15-1.1.45-1.55.3-.44.72-.79,1.27-1.04s1.19-.37,1.93-.37c1.05,0,1.96.18,2.73.54v-.39c0-.67-.2-1.17-.59-1.49-.4-.32-1.03-.48-1.91-.48-.53,0-1.05.05-1.57.16s-.96.25-1.34.44v-1.61c.35-.16.83-.3,1.44-.42.61-.12,1.21-.18,1.8-.18.88,0,1.64.14,2.28.41l.72-.81h2.28l-1.68,1.92c.42.48.63,1.15.63,2.02v5.42h-2.05v-3.35c-.73-.37-1.56-.55-2.49-.55-.61,0-1.06.12-1.36.35-.3.23-.45.57-.45,1.02,0,.4.14.7.41.89.27.19.7.28,1.29.28.37,0,.69-.05.96-.16v1.58c-.4.13-.91.2-1.51.2-.96,0-1.74-.24-2.33-.73Z" style="fill: #fff;"/>
      <path d="M55.47,1.76h5.42V0h1.86v3.08h-7.27v-1.32Z" style="fill: #fff;"/>
      <path d="M68.05,12.88c-.53-.22-1-.55-1.41-.98v1.07h-1.98V4.26h2.07v6c.56.89,1.34,1.33,2.34,1.33,1.28,0,1.92-.6,1.92-1.79v-5.55h2.05v5.65c0,.62-.13,1.18-.4,1.68s-.65.9-1.16,1.19c-.51.29-1.12.43-1.82.43-.54,0-1.08-.11-1.6-.33Z" style="fill: #fff;"/>
      <path d="M77.79,7.4c0-.64-.13-1.1-.38-1.37-.25-.27-.71-.41-1.38-.41-.61,0-1.23.16-1.85.47v-1.61c.26-.13.6-.24,1.03-.33.43-.09.85-.14,1.26-.14,1.12,0,1.96.3,2.53.91.57.61.85,1.48.85,2.6v5.43h-2.07v-5.56Z" style="fill: #fff;"/>
    </g>
  </g>
</svg>