<?xml version="1.0" encoding="UTF-8"?>
<svg id="Layer_2" data-name="Layer 2" xmlns="http://www.w3.org/2000/svg" viewBox="0 0 25.15 3.47">
  <g id="Layer_1-2" data-name="Layer 1">
    <g id="id-nong-khai">
      <path d="M0,.09h.78v1.31L2.2.09h.9l-.9.83c.33.09.56.23.69.42.13.19.2.45.2.77v1.27h-.78v-1.22c0-.23-.04-.41-.13-.53-.08-.12-.24-.2-.46-.25l-.95.88v1.12h-.78V.09Z" style="fill: #fff;"/>
      <path d="M4.42,3.31c-.19-.11-.34-.26-.44-.45-.1-.19-.15-.4-.15-.64V.09h.78v2.1c0,.45.24.68.72.68.38,0,.67-.17.88-.5V.09h.78v3.29h-.75v-.41c-.16.16-.33.29-.53.37-.2.08-.4.13-.61.13-.27,0-.5-.05-.69-.16Z" style="fill: #fff;"/>
      <path d="M8.24,3.39c-.25-.06-.46-.14-.63-.24v-1.72h1.47v.63h-.69v.68c.15.08.36.12.63.12.36,0,.63-.1.82-.29.18-.2.28-.48.28-.86,0-.26-.04-.47-.12-.63-.08-.16-.22-.28-.41-.36-.19-.08-.44-.12-.76-.12-.21,0-.42.02-.64.06s-.39.11-.54.19V.25c.16-.08.36-.14.59-.19s.47-.06.72-.06c.62,0,1.1.15,1.44.45.34.3.51.72.51,1.26s-.16.97-.49,1.29c-.33.32-.79.47-1.4.47-.26,0-.52-.03-.77-.09Z" style="fill: #fff;"/>
      <path d="M11.4.5h.78l.72,2.27c.34,0,.61-.1.8-.29.19-.19.28-.47.28-.83s-.06-.61-.19-.78-.33-.26-.61-.26c-.15,0-.29.02-.42.06V.07c.16-.05.35-.07.56-.07.48,0,.84.15,1.09.44.25.29.37.69.37,1.21,0,.36-.08.67-.24.93-.16.26-.37.46-.64.6-.27.14-.56.2-.88.2h-.71l-.91-2.88Z" style="fill: #fff;"/>
      <path d="M15.39,1.39c0-.44.15-.78.44-1.03.29-.24.69-.36,1.19-.36s.9.12,1.19.36c.29.24.44.58.44,1.03v1.99h-.78V1.36c0-.25-.07-.44-.22-.56-.15-.12-.35-.19-.62-.19s-.48.06-.63.18-.22.31-.22.56v.54c.05-.09.13-.16.24-.21.1-.05.23-.08.37-.08h.5v.65h-.55c-.16,0-.29.05-.39.16-.1.1-.15.23-.15.38v.58h-.78v-1.99Z" style="fill: #fff;"/>
      <path d="M20.43,1.28c0-.24-.05-.41-.14-.52s-.27-.15-.52-.15c-.23,0-.46.06-.7.18V.18c.1-.05.23-.09.39-.13s.32-.05.48-.05c.42,0,.74.12.96.34.22.23.32.56.32.98v2.05h-.78V1.28Z" style="fill: #fff;"/>
      <path d="M22.27,3.19c-.29-.19-.44-.45-.44-.8,0-.17.05-.32.15-.45s.22-.23.38-.28c-.15-.07-.27-.17-.36-.3-.09-.13-.14-.28-.14-.44,0-.27.09-.49.28-.66.19-.17.47-.25.84-.25.12,0,.23,0,.33.02s.19.03.25.05v.61c-.05-.02-.12-.04-.21-.06s-.16-.02-.22-.02c-.32,0-.47.12-.47.35,0,.13.04.22.12.28.08.06.2.09.37.09h.41v.63h-.41c-.35,0-.52.14-.52.42,0,.15.07.26.22.35s.35.13.6.13c.32,0,.55-.07.7-.2.15-.13.22-.32.22-.58V.09h.78v1.99c0,.23-.06.46-.17.67s-.3.38-.55.52c-.26.14-.58.21-.99.21-.49,0-.88-.09-1.17-.28Z" style="fill: #fff;"/>
    </g>
  </g>
</svg>