<?xml version="1.0" encoding="UTF-8"?>
<svg id="Layer_2" data-name="Layer 2" xmlns="http://www.w3.org/2000/svg" viewBox="0 0 41.05 20.8">
  <g id="Layer_1-2" data-name="Layer 1">
    <g id="id-nan">
      <path d="M2.51,20.11c-.82-.46-1.44-1.1-1.87-1.91-.43-.81-.64-1.71-.64-2.71V6.41h3.32v8.92c0,1.92,1.02,2.88,3.06,2.88,1.6,0,2.86-.71,3.77-2.15V6.41h3.32v14h-3.19v-1.73c-.66.7-1.42,1.23-2.26,1.58-.85.36-1.71.54-2.58.54-1.13,0-2.11-.23-2.93-.69Z" style="fill: #fff;"/>
      <path d="M10.18,0h3.32v4.5h-3.32V0Z" style="fill: #fff;"/>
      <path d="M21.11,11.46c0-1.03-.21-1.76-.61-2.2-.41-.44-1.15-.65-2.21-.65-.98,0-1.97.25-2.98.76v-2.59c.42-.21.97-.39,1.66-.54.69-.15,1.36-.22,2.03-.22,1.8,0,3.15.49,4.07,1.46.92.98,1.37,2.37,1.37,4.19v8.74h-3.32v-8.95Z" style="fill: #fff;"/>
      <path d="M30.09,20.11c-.82-.46-1.44-1.1-1.87-1.91-.43-.81-.64-1.71-.64-2.71V6.41h3.32v8.92c0,1.92,1.02,2.88,3.06,2.88,1.6,0,2.86-.71,3.77-2.15V6.41h3.32v14h-3.19v-1.73c-.66.7-1.42,1.23-2.26,1.58-.85.36-1.71.54-2.58.54-1.13,0-2.11-.23-2.93-.69Z" style="fill: #fff;"/>
    </g>
  </g>
</svg>