<?xml version="1.0" encoding="UTF-8"?>
<svg id="Layer_2" data-name="Layer 2" xmlns="http://www.w3.org/2000/svg" viewBox="0 0 17.3 6.22">
  <g id="Layer_1-2" data-name="Layer 1">
    <g id="id-nonthaburi">
      <path d="M.32,4.43c-.21-.22-.32-.5-.32-.84V1.51h.6v2.06c0,.24.07.41.2.53.13.12.33.18.58.18.41,0,.72-.18.96-.54V1.51h.6v3.16h-.58v-.43c-.29.34-.67.51-1.13.51-.39,0-.69-.11-.9-.33Z" style="fill: #fff;"/>
      <path d="M4.03,4.43c-.21-.22-.32-.5-.32-.84V1.51h.6v2.06c0,.24.07.41.2.53.13.12.33.18.58.18.41,0,.72-.18.96-.54V1.51h.6v3.16h-.58v-.43c-.29.34-.67.51-1.13.51-.39,0-.69-.11-.9-.33Z" style="fill: #fff;"/>
      <path d="M7.42,1.51h.58v.43c.15-.17.33-.3.54-.39.21-.08.42-.13.63-.13.39,0,.68.11.89.32.2.21.31.49.31.82v2.11h-.6v-2.08c0-.22-.06-.39-.18-.51-.12-.12-.31-.18-.57-.18-.43,0-.76.18-.99.54v2.23h-.6V1.51Z" style="fill: #fff;"/>
      <path d="M11.85,4.59c-.23-.11-.41-.27-.53-.46-.12-.2-.19-.43-.19-.68v-1.94h.6v1.93c0,.26.08.47.23.62.16.15.38.23.68.23s.52-.08.68-.23c.16-.15.23-.36.23-.62v-1.93h.6v1.94c0,.26-.06.48-.19.68-.12.2-.3.35-.53.46-.23.11-.5.17-.8.17s-.58-.06-.8-.17Z" style="fill: #fff;"/>
      <path d="M13.62,5.62c0-.07-.01-.12-.04-.15-.03-.03-.08-.04-.15-.04h-.2v-.43h.49c.18,0,.3.04.36.11.06.07.09.2.09.38v.73h-.55v-.6Z" style="fill: #fff;"/>
      <path d="M15.36,4.68c-.22-.05-.4-.12-.53-.22v-.48c.17.1.36.18.56.23.2.05.4.08.58.08.26,0,.45-.03.56-.09s.17-.17.17-.32c0-.1-.03-.19-.08-.25-.05-.06-.14-.12-.25-.17s-.29-.11-.53-.18c-.35-.11-.6-.23-.77-.38-.17-.14-.25-.34-.25-.6,0-.29.11-.52.34-.67s.53-.23.92-.23c.2,0,.4.02.58.07.19.05.34.11.46.18v.5c-.13-.08-.29-.15-.46-.2-.17-.05-.35-.07-.53-.07-.47,0-.71.14-.71.43,0,.11.03.19.1.25.06.06.15.12.26.16s.29.1.55.17c.25.07.45.16.59.24.14.09.24.19.3.31.06.12.09.26.09.44,0,.26-.11.47-.32.63-.21.16-.53.24-.96.24-.22,0-.44-.02-.66-.07Z" style="fill: #fff;"/>
      <path d="M14.63.63h2v-.63h.55v1.04h-2.55v-.41Z" style="fill: #fff;"/>
    </g>
  </g>
</svg>