<?xml version="1.0" encoding="UTF-8"?>
<svg id="Layer_2" data-name="Layer 2" xmlns="http://www.w3.org/2000/svg" viewBox="0 0 42.06 8.03">
  <g id="Layer_1-2" data-name="Layer 1">
    <g id="id-narathiwat">
      <path d="M.63,7.4c-.42-.42-.63-.97-.63-1.63V1.7h1.17v4.02c0,.46.13.81.38,1.04.26.23.63.35,1.13.35.79,0,1.41-.35,1.86-1.06V1.7h1.17v6.16h-1.14v-.83c-.58.67-1.31,1-2.21,1-.75,0-1.34-.21-1.75-.63Z" style="fill: #fff;"/>
      <path d="M8.05,7.89c-.44-.1-.78-.24-1.02-.42v-.94c.33.2.69.35,1.09.46s.77.16,1.13.16c.51,0,.87-.06,1.09-.18s.33-.32.33-.62c0-.2-.05-.36-.16-.48s-.27-.23-.49-.32-.56-.21-1.03-.35c-.67-.21-1.18-.45-1.51-.73-.33-.28-.5-.67-.5-1.17,0-.57.22-1,.66-1.31s1.04-.46,1.79-.46c.39,0,.77.04,1.13.13.36.09.67.21.9.35v.97c-.26-.16-.56-.29-.9-.38-.34-.09-.68-.14-1.04-.14-.92,0-1.38.28-1.38.83,0,.21.06.37.19.5.13.12.3.22.51.3.21.08.57.19,1.06.34.49.15.87.3,1.15.47s.47.37.59.6c.12.23.17.51.17.85,0,.51-.21.91-.62,1.22-.42.31-1.04.46-1.88.46-.42,0-.85-.05-1.29-.14Z" style="fill: #fff;"/>
      <path d="M15.27,3.88c0-.49-.1-.85-.3-1.08-.2-.23-.55-.34-1.06-.34s-.95.11-1.38.32v-.92c.18-.09.42-.17.72-.24.29-.07.59-.1.88-.1.77,0,1.35.21,1.74.63.38.42.58,1.02.58,1.8v3.9h-1.17v-3.98Z" style="fill: #fff;"/>
      <path d="M18.48,7.54c-.5-.33-.75-.78-.75-1.35v-.77h1.16v.7c0,.34.14.6.42.76.28.17.66.25,1.13.25s.84-.08,1.1-.23.39-.39.39-.7c0-.25-.06-.45-.17-.59-.12-.14-.29-.25-.54-.34-.24-.09-.63-.2-1.18-.33-.52-.12-.95-.25-1.27-.39-.33-.13-.58-.31-.78-.54-.19-.22-.29-.51-.29-.86,0-.56.24-.97.73-1.24.49-.26,1.12-.4,1.89-.4.44,0,.89.05,1.33.14.44.1.8.22,1.06.36v.97c-.28-.17-.63-.3-1.04-.4s-.82-.14-1.23-.14c-.52,0-.91.05-1.18.14-.26.09-.4.28-.4.56,0,.17.06.31.18.41.12.11.29.2.49.27.21.07.52.16.93.27l.41.11c.54.15.96.29,1.27.44s.54.35.69.59.23.55.23.94c0,.55-.23,1-.69,1.33-.46.33-1.11.5-1.96.5s-1.47-.16-1.97-.49Z" style="fill: #fff;"/>
      <path d="M17.88,0h4.97v.79h-4.97v-.79Z" style="fill: #fff;"/>
      <path d="M24.13,7.51v-.94c.51.36,1.19.54,2.01.54.75,0,1.34-.2,1.75-.59.42-.39.63-.97.63-1.74s-.21-1.35-.63-1.74c-.42-.39-1-.59-1.75-.59-.81,0-1.47.18-1.99.54v-.96c.54-.35,1.28-.52,2.22-.52,1.04,0,1.85.29,2.45.86.6.57.9,1.37.9,2.4s-.3,1.83-.9,2.39c-.6.57-1.42.85-2.45.85-.97,0-1.71-.17-2.24-.52Z" style="fill: #fff;"/>
      <path d="M33.15,3.88c0-.49-.1-.85-.3-1.08-.2-.23-.55-.34-1.06-.34s-.95.11-1.38.32v-.92c.18-.09.42-.17.72-.24.29-.07.59-.1.88-.1.77,0,1.35.21,1.74.63.38.42.58,1.02.58,1.8v3.9h-1.17v-3.98Z" style="fill: #fff;"/>
      <path d="M36.19,7.52c-.4-.34-.6-.83-.6-1.46s.22-1.12.67-1.48c.45-.37,1.06-.55,1.82-.55s1.44.14,2.05.43v-.47c0-.53-.14-.92-.43-1.16-.29-.24-.77-.36-1.43-.36-.37,0-.73.03-1.08.1s-.66.17-.92.29v-.92c.24-.12.56-.21.97-.29.41-.08.81-.12,1.2-.12.69,0,1.27.13,1.73.38l.59-.67h1.3l-1.16,1.3c.28.39.41.86.41,1.42v3.9h-1.17v-2.47c-.56-.28-1.2-.43-1.92-.43-.5,0-.87.09-1.1.28-.23.18-.35.46-.35.83,0,.7.45,1.05,1.35,1.05.28,0,.52-.04.72-.12v.91c-.28.08-.61.13-1.01.13-.68,0-1.23-.17-1.63-.51Z" style="fill: #fff;"/>
    </g>
  </g>
</svg>