<?xml version="1.0" encoding="UTF-8"?>
<svg id="Layer_2" data-name="Layer 2" xmlns="http://www.w3.org/2000/svg" viewBox="0 0 37.56 5.67">
  <g id="Layer_1-2" data-name="Layer 1">
    <g id="id-nakhon-phanom">
      <path d="M.96,5.41c-.32-.18-.55-.42-.72-.73-.16-.31-.25-.66-.25-1.04V.15h1.27v3.42c0,.74.39,1.1,1.17,1.1.62,0,1.1-.27,1.45-.82V.15h1.28v5.37h-1.22v-.66c-.25.27-.54.47-.87.61-.33.14-.65.21-.99.21-.44,0-.81-.09-1.12-.27Z" style="fill: #fff;"/>
      <path d="M6.38,2.27c0-.72.24-1.28.72-1.68s1.13-.59,1.94-.59,1.46.2,1.94.59.71.95.71,1.68v3.25h-1.28v-3.3c0-.41-.12-.71-.36-.92-.24-.2-.58-.31-1.02-.31s-.78.1-1.02.3c-.24.2-.36.51-.36.92v.88c.09-.14.22-.25.39-.34s.37-.13.6-.13h.81v1.06h-.9c-.26,0-.47.09-.64.26-.17.17-.25.38-.25.62v.95h-1.27v-3.25Z" style="fill: #fff;"/>
      <path d="M13.65,5.55c-.39-.08-.7-.2-.92-.36v-.99c.29.17.62.3.98.39.36.09.69.13.99.13.4,0,.69-.04.87-.12.18-.08.27-.23.27-.45,0-.15-.05-.28-.14-.37s-.22-.17-.38-.23c-.16-.06-.46-.16-.9-.29-.58-.18-1.01-.4-1.29-.65s-.43-.6-.43-1.03c0-.5.2-.89.6-1.16s.94-.41,1.63-.41c.36,0,.71.04,1.04.12.33.08.6.18.82.31v1.04c-.22-.14-.49-.25-.8-.34s-.62-.13-.94-.13c-.72,0-1.07.19-1.07.58,0,.14.04.25.13.34s.2.16.35.22c.15.06.37.13.67.23l.33.1c.43.13.76.28,1,.43.24.15.41.33.5.53s.15.45.15.74c0,.45-.19.81-.57,1.09-.38.28-.95.42-1.72.42-.38,0-.77-.04-1.16-.12Z" style="fill: #fff;"/>
      <path d="M17.8.15h1.28l.86,3.6,1.04-3.6h.94l1.04,3.6.86-3.6h1.27l-1.5,5.37h-1.07l-1.08-3.69-1.08,3.69h-1.07L17.8.15Z" style="fill: #fff;"/>
      <path d="M26.97,5.41c-.32-.18-.55-.42-.72-.73-.16-.31-.25-.66-.25-1.04V.15h1.27v3.42c0,.74.39,1.1,1.17,1.1.62,0,1.1-.27,1.45-.82V.15h1.28v5.37h-1.22v-.66c-.25.27-.54.47-.87.61-.33.14-.65.21-.99.21-.44,0-.81-.09-1.12-.27Z" style="fill: #fff;"/>
      <path d="M34.48,5.47c-.32-.14-.61-.34-.87-.61v.66h-1.22V.15h1.27v3.7c.35.55.83.82,1.45.82.79,0,1.18-.37,1.18-1.1V.15h1.26v3.48c0,.38-.08.73-.25,1.04-.16.31-.4.56-.72.73s-.69.27-1.12.27c-.33,0-.66-.07-.99-.21Z" style="fill: #fff;"/>
    </g>
  </g>
</svg>