<?xml version="1.0" encoding="UTF-8"?>
<svg id="Layer_2" data-name="Layer 2" xmlns="http://www.w3.org/2000/svg" viewBox="0 0 21.49 6.92">
  <g id="Layer_1-2" data-name="Layer 1">
    <g id="id-phangnga">
      <path d="M0,2h.94l.89,3.61,1.07-3.61h.72l1.06,3.61.9-3.61h.94l-1.37,4.92h-.79l-1.09-3.7-1.1,3.7h-.79L0,2Z" style="fill: #fff;"/>
      <path d="M3.93,1.07c-.12-.13-.18-.33-.18-.59v-.48h.85v.37c0,.1.02.17.06.21.04.04.11.05.22.05h2.17v.63h-2.55c-.26,0-.46-.07-.57-.2Z" style="fill: #fff;"/>
      <path d="M7.25,2.61h.94l1.17,3.57c.58,0,1.02-.16,1.33-.48.31-.32.47-.77.47-1.35s-.11-1.01-.32-1.31-.56-.44-1.03-.44c-.22,0-.44.03-.64.08v-.73c.25-.07.51-.1.8-.1.7,0,1.23.22,1.6.66s.55,1.05.55,1.83c0,.53-.12.99-.34,1.38-.23.39-.54.68-.93.88s-.83.3-1.31.3h-.88l-1.4-4.3Z" style="fill: #fff;"/>
      <path d="M12.94,2.61h.94l1.17,3.57c.58,0,1.02-.16,1.33-.48.31-.32.47-.77.47-1.35s-.11-1.01-.32-1.31-.56-.44-1.03-.44c-.22,0-.44.03-.64.08v-.73c.25-.07.51-.1.8-.1.7,0,1.23.22,1.6.66s.55,1.05.55,1.83c0,.53-.12.99-.34,1.38-.23.39-.54.68-.93.88s-.83.3-1.31.3h-.88l-1.4-4.3Z" style="fill: #fff;"/>
      <path d="M20.55,3.73c0-.39-.08-.68-.24-.86s-.44-.27-.85-.27-.76.09-1.1.26v-.74c.15-.07.34-.14.58-.19s.47-.08.7-.08c.62,0,1.08.17,1.39.5.31.33.46.81.46,1.44v3.12h-.94v-3.18Z" style="fill: #fff;"/>
    </g>
  </g>
</svg>