<?xml version="1.0" encoding="UTF-8"?>
<svg id="Layer_2" data-name="Layer 2" xmlns="http://www.w3.org/2000/svg" viewBox="0 0 40.8 9.57">
  <g id="Layer_1-2" data-name="Layer 1">
    <g id="id-phayao">
      <path d="M0,.25h2.15l1.46,6.08L5.37.25h1.59l1.76,6.08L10.18.25h2.15l-2.53,9.06h-1.81l-1.83-6.24-1.83,6.24h-1.81L0,.25Z" style="fill: #fff;"/>
      <path d="M13.85,3.54c-.22-.25-.33-.63-.33-1.15v-1.08h1.93v.69c0,.17.04.29.11.36.07.07.2.1.38.1h2v1.46h-2.95c-.54,0-.92-.12-1.14-.37ZM13.85,8.13c-.22-.25-.33-.63-.33-1.15v-1.08h1.93v.69c0,.17.04.29.11.36.07.07.2.1.38.1h2v1.46h-2.95c-.54,0-.92-.12-1.14-.37Z" style="fill: #fff;"/>
      <path d="M20.1,8.82c-.31-.33-.47-.8-.47-1.4V.25h2.15v6.49c0,.29.06.5.19.61.12.11.33.17.61.17h.59v1.8h-1.73c-.59,0-1.04-.17-1.35-.5Z" style="fill: #fff;"/>
      <path d="M25.75,8.79c-.81-.52-1.22-1.25-1.22-2.2,0-.46.14-.88.41-1.25.27-.37.62-.63,1.05-.78-.41-.19-.74-.47-.99-.83s-.38-.77-.38-1.22c0-.76.26-1.36.78-1.82s1.29-.69,2.3-.69c.32,0,.62.02.91.06.29.04.53.09.7.14v1.68c-.15-.07-.34-.12-.57-.15-.23-.03-.44-.05-.62-.05-.87,0-1.3.32-1.3.97,0,.35.11.61.32.78s.56.25,1.03.25h1.14v1.75h-1.14c-.96,0-1.44.39-1.44,1.17,0,.41.2.73.6.96.4.23.95.35,1.65.35.88,0,1.53-.18,1.94-.54.41-.36.62-.89.62-1.59V.24h2.15v5.49c0,.64-.16,1.26-.47,1.84-.31.58-.82,1.06-1.52,1.44s-1.61.57-2.72.57c-1.34,0-2.42-.26-3.24-.78Z" style="fill: #fff;"/>
      <path d="M38.65,3.52c0-.67-.13-1.14-.4-1.42-.27-.28-.74-.42-1.43-.42-.63,0-1.28.16-1.93.49V.49c.27-.14.63-.25,1.08-.35.45-.1.88-.14,1.31-.14,1.16,0,2.04.32,2.63.95s.89,1.54.89,2.71v5.66h-2.15V3.52Z" style="fill: #fff;"/>
    </g>
  </g>
</svg>