<?xml version="1.0" encoding="UTF-8"?>
<svg id="Layer_2" data-name="Layer 2" xmlns="http://www.w3.org/2000/svg" viewBox="0 0 27.54 10.96">
  <g id="Layer_1-2" data-name="Layer 1">
    <g id="id-phatthalung">
      <path d="M0,2.34h1.1l1.05,4.23,1.25-4.23h.84l1.24,4.23,1.06-4.23h1.1l-1.61,5.77h-.93l-1.28-4.34-1.3,4.34h-.93L0,2.34Z" style="fill: #fff;"/>
      <path d="M4.61,1.26c-.14-.15-.21-.39-.21-.7v-.56h.99v.43c0,.12.02.21.07.25.05.04.13.06.26.06h2.55v.75h-2.99c-.31,0-.53-.08-.67-.23Z" style="fill: #fff;"/>
      <path d="M8.72,2.34h1.06v.78c.28-.32.61-.55.99-.71.38-.16.76-.23,1.15-.23.71,0,1.25.19,1.62.58s.56.89.56,1.5v3.85h-1.1v-3.8c0-.4-.11-.71-.33-.93-.22-.22-.57-.33-1.04-.33-.79,0-1.39.33-1.8.98v4.08h-1.1V2.34Z" style="fill: #fff;"/>
      <path d="M15.85,7.8c-.38-.32-.57-.78-.57-1.37s.21-1.05.63-1.39.99-.52,1.71-.52,1.35.13,1.92.4v-.44c0-.5-.13-.86-.4-1.08-.27-.23-.72-.34-1.34-.34-.35,0-.68.03-1.01.1-.33.06-.62.15-.86.27v-.86c.22-.11.53-.2.91-.27.39-.07.76-.11,1.13-.11.9,0,1.57.21,2.02.62s.67.96.67,1.66v3.66h-1.1v-2.32c-.53-.27-1.13-.4-1.8-.4-.47,0-.81.09-1.03.26s-.33.43-.33.78c0,.65.42.98,1.26.98.26,0,.49-.04.68-.11v.85c-.26.08-.58.12-.95.12-.64,0-1.15-.16-1.53-.48Z" style="fill: #fff;"/>
      <path d="M19.64,9.85c0-.13-.02-.22-.07-.26s-.14-.07-.28-.07h-.36v-.79h.89c.32,0,.54.06.65.19.11.13.17.36.17.69v1.34h-1v-1.1Z" style="fill: #fff;"/>
      <path d="M21.83,3.07h1.1l1.37,4.19c.68,0,1.2-.19,1.57-.56s.55-.9.55-1.59-.13-1.19-.38-1.53c-.25-.35-.66-.52-1.21-.52-.26,0-.51.03-.76.1v-.85c.29-.08.6-.12.94-.12.82,0,1.45.26,1.88.78.43.52.65,1.23.65,2.15,0,.63-.13,1.17-.4,1.62-.27.45-.64.8-1.1,1.04-.46.24-.97.36-1.53.36h-1.04l-1.64-5.05Z" style="fill: #fff;"/>
    </g>
  </g>
</svg>