<?xml version="1.0" encoding="UTF-8"?>
<svg id="Layer_2" data-name="Layer 2" xmlns="http://www.w3.org/2000/svg" viewBox="0 0 39.97 11.29">
  <g id="Layer_1-2" data-name="Layer 1">
    <g id="id-phichit">
      <path d="M0,2.39h1.65l1.57,6.34,1.88-6.34h1.26l1.86,6.34,1.58-6.34h1.65l-2.41,8.65h-1.39l-1.92-6.5-1.94,6.5h-1.39L0,2.39Z" style="fill: #fff;"/>
      <path d="M3.96,0h6.99v1.12H3.96V0Z" style="fill: #fff;"/>
      <path d="M13.18,6.29h1.63l.84,3.46c1.05,0,1.88-.28,2.52-.85.63-.57.95-1.35.95-2.35,0-1.09-.26-1.88-.78-2.36s-1.37-.73-2.56-.73c-.54,0-1.09.05-1.64.15s-1.02.24-1.4.41v-1.29c.4-.18.89-.33,1.46-.43.58-.1,1.17-.15,1.77-.15,1.53,0,2.71.37,3.55,1.1.84.73,1.25,1.83,1.25,3.3,0,.85-.22,1.62-.65,2.31-.43.69-1.02,1.22-1.76,1.61-.74.39-1.55.58-2.43.58h-1.6l-1.16-4.76Z" style="fill: #fff;"/>
      <path d="M13.46,0h6.99v1.12h-6.99V0Z" style="fill: #fff;"/>
      <path d="M23.35,10.19c-.74-.73-1.11-1.81-1.11-3.24,0-.98.13-1.83.41-2.56.27-.72.64-1.28,1.11-1.67.47-.39,1.01-.58,1.61-.58.82,0,1.4.33,1.73.99.18-.33.46-.58.83-.74.37-.16.78-.24,1.23-.24.74,0,1.3.24,1.67.71.37.47.56,1.11.56,1.91v6.28h-1.65v-6.16c0-.49-.08-.84-.23-1.08-.15-.23-.41-.35-.78-.35-.62,0-1,.33-1.15,1h-.97c-.05-.33-.16-.58-.32-.75-.16-.17-.38-.25-.67-.25-.51,0-.92.3-1.24.91-.32.6-.48,1.47-.48,2.59,0,1.04.23,1.8.68,2.3.45.5,1.15.74,2.09.74.41,0,.79-.05,1.13-.16v1.28c-.38.12-.85.18-1.41.18-1.29,0-2.31-.37-3.05-1.1Z" style="fill: #fff;"/>
      <path d="M34.65,11.09c-.61-.13-1.09-.33-1.44-.59v-1.33c.46.28.97.49,1.53.64.56.15,1.09.22,1.59.22.71,0,1.22-.08,1.54-.25.31-.17.47-.46.47-.87,0-.28-.08-.51-.23-.68-.15-.17-.38-.32-.69-.45-.31-.13-.79-.29-1.45-.49-.95-.29-1.66-.63-2.12-1.03-.46-.39-.7-.94-.7-1.64,0-.8.31-1.41.92-1.84.61-.43,1.46-.64,2.52-.64.55,0,1.08.06,1.59.19.51.12.94.29,1.27.49v1.36c-.37-.23-.79-.4-1.26-.53-.47-.13-.96-.19-1.46-.19-1.29,0-1.94.39-1.94,1.16,0,.29.09.52.27.7.18.17.42.32.71.43s.79.27,1.5.48c.69.21,1.23.43,1.62.66s.66.52.83.84c.16.32.24.72.24,1.2,0,.71-.29,1.28-.87,1.71-.58.43-1.46.65-2.64.65-.59,0-1.2-.07-1.81-.2Z" style="fill: #fff;"/>
    </g>
  </g>
</svg>