<?xml version="1.0" encoding="UTF-8"?>
<svg id="Layer_2" data-name="Layer 2" xmlns="http://www.w3.org/2000/svg" viewBox="0 0 48.94 16.03">
  <g id="Layer_1-2" data-name="Layer 1">
    <g id="id-phetchaburi">
      <path d="M.39,11.61c-.26-.28-.39-.67-.39-1.18V3.88h1.55v6.12c0,.27.06.46.17.57.11.11.3.16.58.16h.55v1.29h-1.32c-.5,0-.88-.14-1.13-.42Z" style="fill: #fff;"/>
      <path d="M4.07,3.88h1.55l1.48,5.97,1.77-5.97h1.19l1.75,5.97,1.49-5.97h1.55l-2.27,8.15h-1.31l-1.81-6.12-1.83,6.12h-1.31L4.07,3.88Z" style="fill: #fff;"/>
      <path d="M17.86,11.88c-.55-.25-.97-.61-1.27-1.07-.3-.46-.45-.99-.45-1.59v-.52c0-.34.08-.67.23-.97.15-.3.36-.63.62-.98.19-.26.33-.48.42-.64.09-.16.13-.31.13-.46,0-.19-.05-.33-.14-.41s-.26-.12-.48-.12h-.85v-1.23h1.6c.45,0,.8.13,1.06.39.26.26.39.6.39,1.03,0,.29-.06.57-.18.81-.12.25-.3.55-.55.91-.24.37-.42.66-.53.88-.11.22-.16.47-.16.73v.56c0,.58.18,1.03.55,1.36.37.32.87.49,1.52.49.69,0,1.23-.19,1.61-.56.39-.38.58-.93.58-1.66s-.15-1.28-.46-1.64-.75-.55-1.34-.55v-.84l1.63-2.13h1.68l-1.72,2.27c.62.23,1.07.59,1.35,1.07s.42,1.09.42,1.82-.15,1.31-.46,1.83-.75.92-1.32,1.2-1.22.42-1.96.42-1.36-.13-1.9-.38Z" style="fill: #fff;"/>
      <path d="M26.36,12.07c-.58-.13-1.03-.31-1.36-.56v-1.25c.44.26.92.46,1.44.6.52.14,1.02.21,1.5.21.67,0,1.15-.08,1.45-.24.29-.16.44-.43.44-.81,0-.26-.07-.48-.21-.64-.14-.16-.36-.3-.65-.43-.29-.12-.74-.27-1.36-.46-.89-.27-1.56-.6-2-.97-.44-.37-.65-.88-.65-1.54,0-.75.29-1.33.87-1.73.58-.4,1.37-.6,2.38-.6.52,0,1.02.06,1.5.18.48.12.88.27,1.2.46v1.28c-.35-.21-.74-.38-1.19-.5-.45-.12-.9-.18-1.37-.18-1.22,0-1.83.37-1.83,1.1,0,.27.08.49.25.65.17.16.39.3.67.4.28.11.75.26,1.41.45.65.19,1.16.4,1.52.62s.62.49.78.79c.15.3.23.68.23,1.13,0,.67-.27,1.21-.82,1.61-.55.41-1.38.61-2.48.61-.56,0-1.13-.06-1.71-.19Z" style="fill: #fff;"/>
      <path d="M34.88,11.83c-.59-.28-1.04-.68-1.36-1.2-.32-.51-.48-1.1-.48-1.76V3.88h1.55v4.96c0,.68.2,1.22.6,1.61.4.39.99.59,1.76.59s1.34-.2,1.74-.59.6-.93.6-1.61V3.88h1.55v4.99c0,.66-.16,1.25-.48,1.76-.32.51-.77.91-1.36,1.2-.59.28-1.27.43-2.06.43s-1.48-.14-2.07-.43Z" style="fill: #fff;"/>
      <path d="M39.44,14.48c0-.18-.03-.31-.1-.37s-.2-.1-.39-.1h-.5v-1.11h1.25c.46,0,.76.09.92.27.16.18.24.51.24.97v1.89h-1.42v-1.55Z" style="fill: #fff;"/>
      <path d="M43.93,12.07c-.58-.13-1.03-.31-1.36-.56v-1.25c.44.26.92.46,1.44.6.52.14,1.02.21,1.5.21.67,0,1.15-.08,1.45-.24.29-.16.44-.43.44-.81,0-.26-.07-.48-.21-.64-.14-.16-.36-.3-.65-.43-.29-.12-.74-.27-1.36-.46-.89-.27-1.56-.6-2-.97-.44-.37-.65-.88-.65-1.54,0-.75.29-1.33.87-1.73.58-.4,1.37-.6,2.38-.6.52,0,1.02.06,1.5.18.48.12.88.27,1.2.46v1.28c-.35-.21-.74-.38-1.19-.5-.45-.12-.9-.18-1.37-.18-1.22,0-1.83.37-1.83,1.1,0,.27.08.49.25.65.17.16.39.3.67.4.28.11.75.26,1.41.45.65.19,1.16.4,1.52.62s.62.49.78.79c.15.3.23.68.23,1.13,0,.67-.27,1.21-.82,1.61-.55.41-1.38.61-2.48.61-.56,0-1.13-.06-1.71-.19Z" style="fill: #fff;"/>
      <path d="M42.04,1.63h5.16V0h1.42v2.68h-6.58v-1.05Z" style="fill: #fff;"/>
    </g>
  </g>
</svg>