<?xml version="1.0" encoding="UTF-8"?>
<svg id="Layer_2" data-name="Layer 2" xmlns="http://www.w3.org/2000/svg" viewBox="0 0 48.24 12.53">
  <g id="Layer_1-2" data-name="Layer 1">
    <g id="id-phitsanulok">
      <path d="M0,2.68h1.26l1.2,4.84,1.43-4.84h.96l1.42,4.84,1.21-4.84h1.26l-1.84,6.61h-1.06l-1.47-4.96-1.48,4.96h-1.06L0,2.68Z" style="fill: #fff;"/>
      <path d="M3.02.85h5.33v.85H3.02v-.85Z" style="fill: #fff;"/>
      <path d="M11.47,9.12c-.48-.23-.85-.55-1.11-.97-.26-.42-.39-.89-.39-1.43V2.68h1.26v4.03c0,.55.16.99.49,1.3s.8.48,1.43.48,1.09-.16,1.41-.48.49-.75.49-1.3v-.75h-1.57v-1.04h1.57v-2.23h1.26v2.23h.72v1.04h-.72v.78c0,.54-.13,1.01-.39,1.43-.26.42-.63.74-1.11.97-.48.23-1.03.35-1.67.35s-1.2-.12-1.68-.35Z" style="fill: #fff;"/>
      <path d="M23.51,8.8c-.43-.45-.64-1.04-.64-1.76v-1.89c0-.57-.14-.99-.41-1.25-.28-.27-.7-.4-1.27-.4-.43,0-.8.07-1.12.2-.32.13-.62.35-.9.65l.53.83v2.1c0,.38.04.63.11.77s.24.2.51.2h.69v1.05h-1.31c-.41,0-.72-.12-.94-.35s-.32-.55-.32-.95v-2.82l-.62-1c.44-.55.92-.97,1.46-1.25.54-.28,1.17-.43,1.9-.43.96,0,1.68.22,2.18.67.5.45.75,1.08.75,1.88v1.94c0,1,.51,1.49,1.52,1.49.4,0,.75-.09,1.07-.28.32-.19.59-.47.8-.85V2.68h1.26v6.61h-1.21v-.86c-.55.7-1.3,1.05-2.26,1.05-.77,0-1.36-.22-1.79-.67Z" style="fill: #fff;"/>
      <path d="M27.62,11.27c0-.15-.03-.25-.08-.3-.05-.05-.16-.08-.31-.08h-.41v-.9h1.01c.37,0,.62.07.75.22.13.15.19.41.19.79v1.53h-1.15v-1.26Z" style="fill: #fff;"/>
      <path d="M31.3,8.95c-.21-.23-.32-.55-.32-.96V3.25c0-.6-.11-1.07-.33-1.41s-.58-.61-1.07-.81V0h3.89v1.06h-2.21c.34.22.59.52.75.89.16.37.24.82.24,1.33v4.36c0,.22.04.38.14.46s.25.13.47.13h.44v1.05h-1.07c-.4,0-.71-.11-.92-.34Z" style="fill: #fff;"/>
      <path d="M34.85,8.92c-.43-.37-.65-.89-.65-1.56s.24-1.2.72-1.59c.48-.4,1.13-.59,1.96-.59s1.55.15,2.2.46v-.51c0-.57-.16-.98-.46-1.24s-.82-.39-1.54-.39c-.39,0-.78.04-1.16.11-.38.07-.71.18-.99.31v-.99c.25-.12.6-.23,1.04-.31.44-.08.87-.12,1.29-.12,1.03,0,1.8.23,2.31.7.51.47.77,1.1.77,1.9v4.19h-1.26v-2.65c-.6-.3-1.29-.46-2.06-.46-.54,0-.93.1-1.18.3-.25.2-.38.49-.38.89,0,.75.48,1.12,1.44,1.12.3,0,.56-.04.78-.12v.98c-.3.09-.66.14-1.09.14-.73,0-1.32-.18-1.75-.55Z" style="fill: #fff;"/>
      <path d="M42.32,5.17l-.62-1c.44-.55.93-.97,1.49-1.25.56-.28,1.22-.43,1.99-.43.99,0,1.75.22,2.27.67.53.45.79,1.08.79,1.88v4.24h-1.26v-4.14c0-.57-.15-.99-.45-1.25-.3-.27-.75-.4-1.35-.4-.45,0-.85.07-1.2.2s-.66.35-.94.65l.53.83v4.11h-1.26v-4.11Z" style="fill: #fff;"/>
    </g>
  </g>
</svg>