<?xml version="1.0" encoding="UTF-8"?>
<svg id="Layer_2" data-name="Layer 2" xmlns="http://www.w3.org/2000/svg" viewBox="0 0 7.75 3.99">
  <g id="Layer_1-2" data-name="Layer 1">
    <g id="id-phuket">
      <path d="M0,2.71h.15c.06,0,.11-.01.13-.04.02-.02.04-.07.04-.14v-.71l-.25-.29c.12-.16.27-.28.43-.36.16-.08.36-.12.58-.12.28,0,.5.06.66.2.15.13.23.31.23.55v1.23h-.37v-1.2c0-.17-.04-.29-.13-.36-.09-.08-.22-.12-.39-.12-.13,0-.25.02-.34.06s-.19.1-.27.18l.21.25v.82c0,.12-.03.21-.09.28-.06.07-.15.1-.27.1h-.32v-.3Z" style="fill: #fff;"/>
      <path d="M1.18,3.89c-.08-.06-.12-.15-.12-.25v-.1s0-.06-.01-.07c0-.01-.03-.02-.06-.02h-.12v-.24h.32c.06,0,.11.01.13.04.02.03.04.08.04.14v.2c0,.1.06.16.17.16s.17-.05.17-.16v-.39h.29v.41c0,.11-.04.19-.12.26-.08.07-.19.1-.33.1s-.26-.03-.35-.09Z" style="fill: #fff;"/>
      <path d="M2.53,2.92c-.06-.07-.09-.16-.09-.28v-1.54h.37v1.44c0,.06.01.11.04.13.03.03.07.04.14.04h.13v.3h-.31c-.12,0-.21-.03-.27-.1Z" style="fill: #fff;"/>
      <path d="M3.61,1.82l-.18-.29c.13-.16.27-.28.43-.36.16-.08.36-.12.58-.12.29,0,.51.06.66.2.15.13.23.31.23.55v1.23h-.37v-1.2c0-.17-.04-.29-.13-.36-.09-.08-.22-.12-.39-.12-.13,0-.25.02-.35.06-.1.04-.19.1-.27.19l.15.24v1.19h-.37v-1.19Z" style="fill: #fff;"/>
      <path d="M4,.72c-.07-.07-.11-.17-.11-.28,0-.15.04-.26.13-.33s.2-.11.34-.11h.85v.21h-.83c-.08,0-.14.02-.18.05-.04.03-.06.09-.06.16,0,.06.02.11.05.15.03.03.08.05.14.05.07,0,.12-.02.15-.05.03-.04.05-.08.05-.14h.21c0,.12.07.18.2.18h.2v.22h-.2c-.08,0-.15-.02-.2-.05s-.09-.07-.11-.12c-.02.05-.06.09-.12.13s-.13.05-.21.05c-.13,0-.23-.04-.3-.11Z" style="fill: #fff;"/>
      <path d="M5.97,2.83c-.16-.16-.25-.4-.25-.72,0-.22.03-.41.09-.57s.14-.28.25-.37c.1-.09.22-.13.36-.13.18,0,.31.07.38.22.04-.07.1-.13.18-.17s.17-.05.27-.05c.17,0,.29.05.37.16.08.11.12.25.12.42v1.39h-.37v-1.37c0-.11-.02-.19-.05-.24-.03-.05-.09-.08-.17-.08-.14,0-.22.07-.25.22h-.22c-.01-.07-.04-.13-.07-.17-.04-.04-.08-.06-.15-.06-.11,0-.2.07-.27.2-.07.13-.11.33-.11.57,0,.23.05.4.15.51.1.11.25.17.46.17.09,0,.17-.01.25-.04v.28c-.08.03-.19.04-.31.04-.29,0-.51-.08-.68-.24Z" style="fill: #fff;"/>
    </g>
  </g>
</svg>