<?xml version="1.0" encoding="UTF-8"?>
<svg id="Layer_2" data-name="Layer 2" xmlns="http://www.w3.org/2000/svg" viewBox="0 0 45.71 12.52">
  <g id="Layer_1-2" data-name="Layer 1">
    <g id="id-prachin-buri">
      <g>
        <path d="M1.48,9.2c-.47-.23-.84-.54-1.09-.95-.25-.4-.38-.86-.38-1.38v-3.8h1.49v3.74c0,.49.14.88.41,1.15s.68.41,1.22.41.94-.14,1.21-.41.41-.66.41-1.15V.98h1.49v5.9c0,.52-.13.98-.38,1.38s-.62.72-1.09.95c-.47.23-1.02.34-1.65.34s-1.18-.11-1.65-.34Z" style="fill: #fff;"/>
        <path d="M8.54,9.4c-.46-.09-.82-.23-1.08-.42v-1.16c.34.2.73.36,1.15.46.42.1.81.15,1.16.15.47,0,.81-.05,1.02-.14.21-.09.31-.27.31-.53,0-.18-.05-.32-.16-.43-.11-.11-.26-.19-.45-.26-.19-.07-.54-.18-1.06-.34-.67-.21-1.18-.47-1.51-.76s-.5-.7-.5-1.21c0-.59.23-1.04.71-1.36.47-.32,1.1-.48,1.9-.48.42,0,.83.05,1.22.14.39.09.71.21.96.36v1.22c-.26-.16-.57-.3-.93-.4s-.73-.15-1.1-.15c-.84,0-1.26.23-1.26.68,0,.16.05.3.15.4.1.1.24.19.41.25.17.07.44.16.79.26l.39.12c.5.16.89.33,1.17.51.28.18.47.39.59.62.11.24.17.53.17.87,0,.52-.22.95-.67,1.28s-1.12.49-2.01.49c-.45,0-.9-.05-1.36-.14Z" style="fill: #fff;"/>
        <path d="M15.78,5.35c0-.46-.09-.79-.28-.99-.18-.2-.52-.29-.99-.29-.44,0-.89.11-1.34.34v-1.16c.19-.09.44-.17.75-.24s.61-.1.91-.1c.81,0,1.42.22,1.83.66.41.44.62,1.07.62,1.88v3.93h-1.49v-4.02Z" style="fill: #fff;"/>
        <path d="M18.69,5.91h1.48l.56,2.29c.66,0,1.19-.17,1.59-.52s.61-.84.61-1.49c0-.69-.18-1.22-.53-1.58-.35-.36-.94-.55-1.75-.55-.39,0-.79.04-1.2.12-.41.08-.75.18-1.01.31v-1.16c.31-.13.67-.24,1.09-.31.42-.07.86-.11,1.3-.11,1.14,0,2.02.29,2.66.86s.96,1.38.96,2.43c0,.63-.16,1.19-.47,1.67-.31.48-.74.85-1.28,1.11-.54.26-1.13.39-1.77.39h-1.39l-.86-3.46Z" style="fill: #fff;"/>
        <path d="M19,1.27h3.91V0h1.34v2.22h-5.25v-.95Z" style="fill: #fff;"/>
        <path d="M26.77,9.23c-.37-.21-.65-.49-.84-.86-.19-.36-.29-.77-.29-1.22V3.08h1.49v4.01c0,.86.46,1.29,1.38,1.29.72,0,1.29-.32,1.69-.96V3.08h1.49v6.29h-1.43v-.78c-.3.31-.64.55-1.02.71-.38.16-.77.24-1.16.24-.51,0-.95-.1-1.32-.31Z" style="fill: #fff;"/>
        <path d="M34.6,9.2c-.47-.23-.84-.54-1.09-.95-.25-.4-.38-.86-.38-1.38v-3.8h1.49v3.74c0,.49.14.88.41,1.15s.68.41,1.22.41.94-.14,1.21-.41.41-.66.41-1.15v-3.74h1.49v3.8c0,.52-.13.98-.38,1.38s-.62.72-1.09.95c-.47.23-1.02.34-1.65.34s-1.18-.11-1.65-.34Z" style="fill: #fff;"/>
        <path d="M38.07,11.31c0-.14-.02-.24-.07-.29-.05-.06-.14-.08-.28-.08h-.41v-.95h1.09c.39,0,.66.07.8.22.14.15.21.41.21.79v1.53h-1.34v-1.21Z" style="fill: #fff;"/>
        <path d="M41.67,9.4c-.46-.09-.82-.23-1.08-.42v-1.16c.34.2.73.36,1.15.46.42.1.81.15,1.16.15.47,0,.81-.05,1.02-.14.21-.09.31-.27.31-.53,0-.18-.05-.32-.16-.43-.11-.11-.26-.19-.45-.26-.19-.07-.54-.18-1.06-.34-.67-.21-1.18-.47-1.51-.76s-.5-.7-.5-1.21c0-.59.23-1.04.71-1.36.47-.32,1.1-.48,1.9-.48.42,0,.83.05,1.22.14.39.09.71.21.96.36v1.22c-.26-.16-.57-.3-.93-.4s-.73-.15-1.1-.15c-.84,0-1.26.23-1.26.68,0,.16.05.3.15.4.1.1.24.19.41.25.17.07.44.16.79.26l.39.12c.5.16.89.33,1.17.51.28.18.47.39.59.62.11.24.17.53.17.87,0,.52-.22.95-.67,1.28s-1.12.49-2.01.49c-.45,0-.9-.05-1.36-.14Z" style="fill: #fff;"/>
        <path d="M40.24,1.27h3.91V0h1.34v2.22h-5.25v-.95Z" style="fill: #fff;"/>
      </g>
    </g>
  </g>
</svg>