<?xml version="1.0" encoding="UTF-8"?>
<svg id="Layer_2" data-name="Layer 2" xmlns="http://www.w3.org/2000/svg" viewBox="0 0 45.58 10.92">
  <g id="Layer_1-2" data-name="Layer 1">
    <g id="id-phetchabun">
      <path d="M.27,7.73c-.18-.2-.27-.47-.27-.83V2.29h1.09v4.3c0,.19.04.33.12.4.08.07.21.11.41.11h.39v.91h-.93c-.35,0-.62-.1-.8-.29Z" style="fill: #fff;"/>
      <path d="M2.86,2.29h1.09l1.04,4.2,1.24-4.2h.83l1.23,4.2,1.05-4.2h1.09l-1.6,5.73h-.92l-1.27-4.3-1.28,4.3h-.92l-1.58-5.73Z" style="fill: #fff;"/>
      <path d="M12.56,7.91c-.38-.18-.68-.43-.89-.75-.21-.32-.32-.7-.32-1.12v-.36c0-.24.05-.47.16-.68.11-.21.25-.44.44-.69.14-.19.23-.34.29-.45.06-.11.09-.22.09-.32,0-.14-.03-.23-.1-.29-.07-.06-.18-.09-.34-.09h-.6v-.87h1.12c.31,0,.56.09.74.27.18.18.27.42.27.72,0,.21-.04.4-.13.57-.09.18-.21.39-.39.64-.17.26-.29.46-.37.62-.08.16-.11.33-.11.51v.4c0,.41.13.72.38.95.26.23.61.34,1.07.34.49,0,.86-.13,1.13-.4s.41-.65.41-1.17-.11-.9-.32-1.16c-.21-.26-.53-.39-.94-.39v-.59l1.15-1.5h1.18l-1.21,1.6c.44.16.75.42.95.75.2.34.29.77.29,1.28s-.11.92-.33,1.28c-.22.36-.53.64-.93.84-.4.2-.86.29-1.38.29s-.95-.09-1.34-.27Z" style="fill: #fff;"/>
      <path d="M18.53,8.05c-.41-.09-.72-.22-.95-.39v-.88c.31.19.64.33,1.01.42.37.1.72.14,1.06.14.47,0,.81-.06,1.02-.17.21-.11.31-.3.31-.57,0-.19-.05-.34-.15-.45-.1-.11-.25-.21-.46-.3-.2-.09-.52-.19-.96-.32-.63-.19-1.1-.42-1.4-.68s-.46-.62-.46-1.09c0-.53.2-.93.61-1.22.41-.28.96-.42,1.67-.42.36,0,.72.04,1.05.12s.62.19.84.33v.9c-.24-.15-.52-.27-.84-.35-.31-.09-.63-.13-.96-.13-.86,0-1.29.26-1.29.77,0,.19.06.35.18.46.12.11.27.21.47.28.2.08.53.18.99.32.46.14.81.28,1.07.44.26.16.44.34.55.56.11.21.16.48.16.79,0,.47-.19.85-.58,1.14-.38.29-.97.43-1.75.43-.39,0-.79-.04-1.2-.13Z" style="fill: #fff;"/>
      <path d="M24.53,7.88c-.41-.2-.73-.48-.96-.84-.22-.36-.34-.77-.34-1.24v-3.51h1.09v3.49c0,.48.14.85.42,1.13.28.27.69.41,1.24.41s.94-.14,1.23-.41c.28-.27.42-.65.42-1.13v-3.49h1.09v3.51c0,.46-.11.88-.34,1.24-.22.36-.54.64-.96.84s-.9.3-1.45.3-1.04-.1-1.46-.3Z" style="fill: #fff;"/>
      <path d="M26.37,10.64c-.25-.19-.37-.44-.37-.75v-.29c0-.1-.01-.17-.04-.2-.03-.03-.09-.05-.18-.05h-.36v-.73h.94c.19,0,.33.04.4.13.07.09.11.23.11.42v.61c0,.31.17.47.51.47s.5-.16.5-.47v-1.16h.86v1.23c0,.31-.12.57-.35.77s-.56.29-.98.29c-.44,0-.79-.09-1.03-.28Z" style="fill: #fff;"/>
      <path d="M30.89,8.05c-.41-.09-.72-.22-.95-.39v-.88c.31.19.64.33,1.01.42.37.1.72.14,1.06.14.47,0,.81-.06,1.02-.17.21-.11.31-.3.31-.57,0-.19-.05-.34-.15-.45-.1-.11-.25-.21-.46-.3-.2-.09-.52-.19-.96-.32-.63-.19-1.1-.42-1.4-.68s-.46-.62-.46-1.09c0-.53.2-.93.61-1.22.41-.28.96-.42,1.67-.42.36,0,.72.04,1.05.12s.62.19.84.33v.9c-.24-.15-.52-.27-.84-.35-.31-.09-.63-.13-.96-.13-.86,0-1.29.26-1.29.77,0,.19.06.35.18.46.12.11.27.21.47.28.2.08.53.18.99.32.46.14.81.28,1.07.44.26.16.44.34.55.56.11.21.16.48.16.79,0,.47-.19.85-.58,1.14-.38.29-.97.43-1.75.43-.39,0-.79-.04-1.2-.13Z" style="fill: #fff;"/>
      <path d="M40.3,7.6c-.37-.39-.56-.9-.56-1.53v-1.64c0-.49-.12-.85-.36-1.09s-.61-.35-1.1-.35c-.37,0-.69.06-.97.17-.28.11-.53.3-.78.57l.46.72v1.82c0,.33.03.55.1.66s.21.17.44.17h.6v.91h-1.13c-.36,0-.63-.1-.81-.3s-.28-.47-.28-.82v-2.44l-.54-.87c.38-.48.8-.84,1.26-1.09.46-.25,1.01-.37,1.65-.37.83,0,1.46.19,1.89.58s.65.93.65,1.63v1.68c0,.86.44,1.3,1.32,1.3.34,0,.65-.08.93-.25.28-.16.51-.41.7-.74V2.29h1.09v5.73h-1.05v-.75c-.48.61-1.13.91-1.96.91-.66,0-1.18-.19-1.55-.58Z" style="fill: #fff;"/>
      <path d="M42.31.83c0-.56.3-.83.91-.83h2.37v.72h-1.94c-.13,0-.22.03-.27.08s-.08.14-.08.27v.39h-1v-.61Z" style="fill: #fff;"/>
    </g>
  </g>
</svg>