<?xml version="1.0" encoding="UTF-8"?>
<svg id="Layer_2" data-name="Layer 2" xmlns="http://www.w3.org/2000/svg" viewBox="0 0 34.91 4.57">
  <g id="Layer_1-2" data-name="Layer 1">
    <g id="id-prachuap-khiri-khan">
      <path d="M.69,4.41c-.22-.11-.39-.25-.51-.45s-.18-.41-.18-.66v-1.86h.58v1.85c0,.25.08.45.22.6s.37.22.66.22.5-.07.65-.22.22-.35.22-.6V.43h.58v2.88c0,.25-.06.46-.18.66-.12.19-.29.34-.51.45-.22.11-.48.16-.77.16s-.55-.05-.77-.16Z" style="fill: #fff;"/>
      <path d="M4.06,4.5c-.22-.05-.38-.12-.51-.21v-.47c.16.1.34.17.54.22.19.05.38.08.56.08.25,0,.43-.03.54-.09.11-.06.17-.16.17-.3,0-.1-.03-.18-.08-.24-.05-.06-.13-.11-.24-.16-.11-.04-.28-.1-.51-.17-.33-.1-.58-.22-.74-.36-.16-.14-.24-.33-.24-.58,0-.28.11-.5.32-.64s.51-.22.89-.22c.19,0,.38.02.56.07.18.04.33.1.45.17v.48c-.13-.08-.28-.14-.44-.19-.17-.05-.34-.07-.51-.07-.45,0-.68.14-.68.41,0,.1.03.18.09.24s.15.11.25.15c.1.04.28.1.53.17.24.07.43.15.57.23.14.08.23.18.29.3.06.11.08.25.08.42,0,.25-.1.45-.31.6-.2.15-.51.23-.93.23-.21,0-.42-.02-.64-.07Z" style="fill: #fff;"/>
      <path d="M6.54,2.53c-.07-.08-.1-.19-.1-.35v-.32h.52v.22c0,.06.01.1.04.13.03.02.07.04.14.04h.66v.4h-.91c-.17,0-.28-.04-.35-.11ZM6.54,4.08c-.07-.08-.1-.19-.1-.35v-.32h.52v.22c0,.06.01.1.04.13.03.02.07.04.14.04h.66v.4h-.91c-.17,0-.28-.04-.35-.11Z" style="fill: #fff;"/>
      <path d="M8.47,2.82h.57l.3,1.22c.37,0,.66-.1.88-.3.22-.2.33-.47.33-.83,0-.38-.09-.66-.27-.83-.18-.17-.48-.26-.9-.26-.19,0-.38.02-.58.05-.2.04-.36.08-.49.15v-.46c.14-.06.31-.11.51-.15.2-.04.41-.05.62-.05.54,0,.95.13,1.25.39.29.26.44.64.44,1.16,0,.3-.08.57-.23.81s-.36.43-.62.57c-.26.14-.54.2-.86.2h-.56l-.41-1.67Z" style="fill: #fff;"/>
      <path d="M11.66,4.32v-.47c.25.18.58.27.99.27.37,0,.66-.1.87-.29.21-.19.31-.48.31-.86s-.1-.66-.31-.86c-.21-.19-.5-.29-.87-.29-.4,0-.73.09-.98.27v-.47c.27-.17.63-.26,1.1-.26.51,0,.91.14,1.21.42.29.28.44.68.44,1.18s-.15.9-.44,1.18c-.3.28-.7.42-1.21.42-.48,0-.85-.08-1.11-.25Z" style="fill: #fff;"/>
      <path d="M15.73,4.41c-.22-.11-.39-.25-.51-.45s-.18-.41-.18-.66v-1.86h.58v1.85c0,.25.08.45.22.6s.37.22.66.22.5-.07.65-.22.22-.35.22-.6v-1.85h.58v1.86c0,.25-.06.46-.18.66-.12.19-.29.34-.51.45-.22.11-.48.16-.77.16s-.55-.05-.77-.16Z" style="fill: #fff;"/>
      <path d="M18.69,2.61c0-.39.13-.7.39-.92.26-.22.61-.33,1.06-.33s.8.11,1.06.32.39.52.39.92v1.88h-.58v-1.9c0-.26-.08-.45-.23-.58-.15-.13-.36-.19-.64-.19s-.49.06-.64.19-.23.32-.23.58v.58c.05-.09.13-.16.23-.22.11-.05.23-.08.38-.08h.45v.48h-.5c-.16,0-.29.06-.4.17-.11.11-.16.24-.16.38v.59h-.58v-1.88Z" style="fill: #fff;"/>
      <path d="M19.12.61h1.92v-.61h.53v1h-2.45v-.39Z" style="fill: #fff;"/>
      <path d="M22.73,4.5c-.22-.05-.38-.12-.51-.21v-.47c.16.1.34.17.54.22.19.05.38.08.56.08.25,0,.43-.03.54-.09.11-.06.17-.16.17-.3,0-.1-.03-.18-.08-.24-.05-.06-.13-.11-.24-.16-.11-.04-.28-.1-.51-.17-.33-.1-.58-.22-.74-.36-.16-.14-.24-.33-.24-.58,0-.28.11-.5.32-.64s.51-.22.89-.22c.19,0,.38.02.56.07.18.04.33.1.45.17v.48c-.13-.08-.28-.14-.44-.19-.17-.05-.34-.07-.51-.07-.45,0-.68.14-.68.41,0,.1.03.18.09.24s.15.11.25.15c.1.04.28.1.53.17.24.07.43.15.57.23.14.08.23.18.29.3.06.11.08.25.08.42,0,.25-.1.45-.31.6-.2.15-.51.23-.93.23-.21,0-.42-.02-.64-.07Z" style="fill: #fff;"/>
      <path d="M22.03.61h1.92v-.61h.53v1h-2.45v-.39Z" style="fill: #fff;"/>
      <path d="M25.76,4.43c-.2-.09-.36-.23-.46-.4-.11-.17-.16-.37-.16-.59v-.19c0-.13.03-.25.08-.35.05-.11.13-.23.23-.37.07-.09.12-.17.16-.24.03-.06.05-.12.05-.18,0-.07-.02-.12-.05-.15-.04-.03-.1-.05-.18-.05h-.32v-.46h.6c.17,0,.3.05.4.15s.14.22.14.38c0,.11-.02.21-.07.3-.04.09-.11.21-.2.34-.09.14-.16.25-.2.33s-.06.17-.06.27v.21c0,.22.06.39.19.51s.32.18.57.18.43-.06.56-.18c.12-.12.18-.3.18-.52v-1.97h.58v1.87c0,.39-.12.7-.35.92-.23.22-.55.33-.97.33-.27,0-.51-.05-.71-.14Z" style="fill: #fff;"/>
      <path d="M26.37.88c-.07-.08-.11-.2-.11-.37V.22h.52v.23c0,.06.01.11.04.13.03.02.07.03.14.03h1.34v.39h-1.57c-.16,0-.28-.04-.36-.12Z" style="fill: #fff;"/>
      <path d="M28.84,4.26c-.21-.21-.31-.48-.31-.81V1.45h.58v1.98c0,.23.06.4.19.51.13.12.31.17.56.17.39,0,.7-.17.92-.52V1.45h.58v3.04h-.56v-.41c-.28.33-.65.49-1.09.49-.37,0-.66-.1-.87-.31Z" style="fill: #fff;"/>
      <path d="M32.36,4.33c-.25-.16-.37-.38-.37-.67v-.38h.57v.35c0,.17.07.3.21.38.14.08.33.12.56.12s.42-.04.54-.11c.13-.08.19-.19.19-.35,0-.12-.03-.22-.08-.29s-.14-.12-.26-.17c-.12-.04-.31-.1-.58-.16-.26-.06-.47-.12-.63-.19-.16-.07-.29-.15-.38-.26-.09-.11-.14-.25-.14-.43,0-.28.12-.48.36-.61s.55-.2.93-.2c.22,0,.44.02.66.07.22.05.39.11.52.18v.48c-.14-.08-.31-.15-.51-.2-.2-.05-.4-.07-.61-.07-.26,0-.45.02-.58.07-.13.05-.2.14-.2.28,0,.08.03.15.09.2.06.05.14.1.24.13s.26.08.46.13l.21.06c.26.07.47.14.62.22.15.07.27.17.34.29.08.12.11.27.11.46,0,.27-.11.49-.34.66-.23.17-.55.25-.97.25s-.73-.08-.97-.24Z" style="fill: #fff;"/>
      <path d="M33.17.68c0-.29.16-.44.48-.44h1.26v.38h-1.03c-.07,0-.12.01-.14.04-.03.03-.04.07-.04.14v.2h-.53v-.32Z" style="fill: #fff;"/>
    </g>
  </g>
</svg>