<?xml version="1.0" encoding="UTF-8"?>
<svg id="Layer_2" data-name="Layer 2" xmlns="http://www.w3.org/2000/svg" viewBox="0 0 30.25 9.44">
  <g id="Layer_1-2" data-name="Layer 1">
    <g id="id-pathum-thani">
      <path d="M1.08,6.97c-.35-.17-.61-.4-.8-.7s-.28-.65-.28-1.04v-2.94h.91v2.92c0,.4.12.72.35.95.24.23.58.35,1.04.35s.79-.12,1.03-.35c.24-.23.35-.55.35-.95V.68h.92v4.54c0,.39-.09.73-.28,1.04-.19.3-.46.54-.8.7-.35.17-.75.25-1.21.25s-.87-.08-1.22-.25Z" style="fill: #fff;"/>
      <path d="M5.76,2.29h.88v.65c.23-.26.51-.46.82-.59.31-.13.63-.19.96-.19.58,0,1.03.16,1.34.48.31.32.47.74.47,1.25v3.2h-.91v-3.16c0-.33-.09-.59-.28-.78-.19-.18-.47-.27-.86-.27-.65,0-1.15.27-1.5.82v3.39h-.91V2.29Z" style="fill: #fff;"/>
      <path d="M9.39,8.53c0-.11-.02-.18-.06-.22-.04-.04-.12-.06-.23-.06h-.3v-.65h.74c.27,0,.45.05.54.16s.14.3.14.57v1.11h-.83v-.91Z" style="fill: #fff;"/>
      <path d="M13.07,7.02c-.3-.13-.56-.33-.79-.58v.65h-.88V2.29h.91v3.39c.35.55.84.82,1.45.82.39,0,.68-.09.88-.27s.3-.45.3-.81v-3.13h.91v3.16c0,.52-.16.94-.49,1.27-.33.33-.78.49-1.36.49-.33,0-.64-.07-.94-.2Z" style="fill: #fff;"/>
      <path d="M17.44,6.84c-.39-.25-.58-.6-.58-1.05v-.6h.91v.55c0,.27.11.47.33.6.22.13.51.19.88.19s.66-.06.86-.18c.2-.12.3-.3.3-.55,0-.2-.04-.35-.13-.46s-.23-.2-.42-.26c-.19-.07-.49-.15-.92-.26-.41-.1-.74-.2-.99-.3s-.46-.24-.6-.42c-.15-.17-.22-.4-.22-.67,0-.44.19-.76.57-.96s.87-.31,1.47-.31c.35,0,.69.04,1.04.11s.62.17.82.28v.75c-.22-.13-.49-.23-.81-.31s-.64-.11-.96-.11c-.41,0-.71.04-.92.11s-.31.22-.31.44c0,.13.05.24.14.32.1.08.22.15.39.21s.4.13.73.21l.32.09c.42.11.75.23.99.35.24.12.42.27.54.46.12.19.18.43.18.73,0,.43-.18.78-.54,1.04-.36.26-.87.39-1.52.39s-1.14-.13-1.53-.38Z" style="fill: #fff;"/>
      <path d="M23.71,3.98c0-.38-.08-.66-.23-.84s-.43-.26-.83-.26-.74.08-1.08.25v-.72c.14-.07.33-.13.56-.18.23-.05.46-.08.69-.08.6,0,1.05.16,1.35.49s.45.79.45,1.4v3.04h-.92v-3.1Z" style="fill: #fff;"/>
      <path d="M26.28,6.72c-.33-.33-.49-.75-.49-1.27v-3.16h.91v3.13c0,.36.1.63.3.81s.5.27.88.27c.62,0,1.1-.27,1.45-.82v-3.39h.91v4.8h-.89v-.65c-.45.52-1.02.78-1.72.78-.59,0-1.04-.16-1.37-.49Z" style="fill: #fff;"/>
      <path d="M26.37.96h3.04v-.96h.83v1.58h-3.87v-.62Z" style="fill: #fff;"/>
    </g>
  </g>
</svg>