<?xml version="1.0" encoding="UTF-8"?>
<svg id="Layer_2" data-name="Layer 2" xmlns="http://www.w3.org/2000/svg" viewBox="0 0 35.58 15.85">
  <g id="Layer_1-2" data-name="Layer 1">
    <g id="id-phrae">
      <path d="M.55,14.96c-.37-.39-.55-.94-.55-1.65V4.88h2.53v7.63c0,.35.07.58.22.72.15.13.38.2.72.2h.7v2.11h-2.03c-.69,0-1.22-.2-1.58-.59ZM5.91,14.96c-.37-.39-.55-.94-.55-1.65V4.88h2.53v7.63c0,.35.07.58.22.72.15.13.39.2.72.2h.7v2.11h-2.03c-.69,0-1.22-.2-1.58-.59Z" style="fill: #fff;"/>
      <path d="M10.92,4.88h2.53l1.71,7.16,2.07-7.16h1.87l2.07,7.16,1.71-7.16h2.53l-2.97,10.67h-2.13l-2.15-7.34-2.15,7.34h-2.13l-2.97-10.67Z" style="fill: #fff;"/>
      <path d="M28.74,15.61c-.78-.16-1.39-.4-1.82-.72v-1.97c.58.35,1.23.6,1.94.78.71.17,1.37.26,1.96.26.8,0,1.37-.08,1.72-.24.35-.16.53-.46.53-.9,0-.31-.09-.55-.28-.73-.19-.18-.44-.33-.76-.45-.32-.12-.92-.31-1.79-.58-1.14-.36-2-.79-2.56-1.3-.56-.5-.85-1.19-.85-2.05,0-1,.4-1.77,1.2-2.31.8-.54,1.87-.82,3.23-.82.72,0,1.41.08,2.06.23s1.2.36,1.62.61v2.07c-.44-.28-.97-.5-1.58-.68-.62-.17-1.24-.26-1.86-.26-1.42,0-2.13.39-2.13,1.16,0,.28.09.51.26.68.17.17.41.32.7.43.29.11.74.26,1.34.45l.66.2c.85.27,1.51.55,1.98.86.47.31.8.66,1,1.06.19.4.29.89.29,1.48,0,.89-.38,1.61-1.14,2.16-.76.55-1.89.83-3.41.83-.76,0-1.53-.08-2.3-.24Z" style="fill: #fff;"/>
      <path d="M32.67,0h2.53v3.43h-2.53V0Z" style="fill: #fff;"/>
    </g>
  </g>
</svg>