<?xml version="1.0" encoding="UTF-8"?>
<svg id="Layer_2" data-name="Layer 2" xmlns="http://www.w3.org/2000/svg" viewBox="0 0 29.82 8.25">
  <g id="Layer_1-2" data-name="Layer 1">
    <g id="id-pattani">
      <path d="M1.24,7.96c-.4-.19-.7-.46-.92-.8s-.32-.74-.32-1.18v-3.36h1.04v3.34c0,.46.13.82.4,1.08.27.26.66.39,1.18.39s.9-.13,1.17-.39c.27-.26.41-.62.41-1.08V.78h1.04v5.19c0,.44-.11.84-.32,1.18s-.52.61-.92.8c-.4.19-.86.29-1.38.29s-1-.1-1.39-.29Z" style="fill: #fff;"/>
      <path d="M2.69,1.58c-.13-.15-.2-.37-.2-.66V.39h.94v.41c0,.12.02.19.07.24.04.04.13.06.25.06h2.42v.71h-2.84c-.29,0-.51-.07-.64-.22Z" style="fill: #fff;"/>
      <path d="M7.08,7.55c-.47-.46-.7-1.15-.7-2.05,0-.62.08-1.16.26-1.62.17-.46.41-.81.7-1.05.3-.25.64-.37,1.02-.37.52,0,.88.21,1.1.62.12-.21.29-.37.52-.47.23-.1.49-.15.78-.15.47,0,.82.15,1.06.45.24.3.35.7.35,1.21v3.97h-1.04v-3.9c0-.31-.05-.53-.14-.68-.1-.15-.26-.22-.49-.22-.39,0-.63.21-.73.63h-.61c-.03-.21-.1-.37-.2-.48-.1-.11-.24-.16-.42-.16-.32,0-.58.19-.78.57-.2.38-.3.93-.3,1.64,0,.66.14,1.14.43,1.46.29.31.73.47,1.32.47.26,0,.5-.03.72-.1v.81c-.24.08-.54.11-.89.11-.82,0-1.46-.23-1.93-.7Z" style="fill: #fff;"/>
      <path d="M14,7.55c-.47-.46-.7-1.15-.7-2.05,0-.62.08-1.16.26-1.62.17-.46.41-.81.7-1.05.3-.25.64-.37,1.02-.37.52,0,.88.21,1.1.62.12-.21.29-.37.52-.47.23-.1.49-.15.78-.15.47,0,.82.15,1.06.45.24.3.35.7.35,1.21v3.97h-1.04v-3.9c0-.31-.05-.53-.14-.68-.1-.15-.26-.22-.49-.22-.39,0-.63.21-.73.63h-.61c-.03-.21-.1-.37-.2-.48-.1-.11-.24-.16-.42-.16-.32,0-.58.19-.78.57-.2.38-.3.93-.3,1.64,0,.66.14,1.14.43,1.46.29.31.73.47,1.32.47.26,0,.5-.03.72-.1v.81c-.24.08-.54.11-.89.11-.82,0-1.46-.23-1.93-.7Z" style="fill: #fff;"/>
      <path d="M22.34,4.55c0-.44-.09-.76-.27-.96s-.49-.3-.94-.3-.85.1-1.23.29v-.82c.16-.08.38-.15.64-.21.26-.06.52-.09.78-.09.69,0,1.21.19,1.55.56s.51.91.51,1.6v3.47h-1.04v-3.54Z" style="fill: #fff;"/>
      <path d="M25.27,7.68c-.37-.38-.56-.86-.56-1.45v-3.62h1.04v3.58c0,.41.11.72.34.93.23.21.57.31,1.01.31.7,0,1.26-.31,1.66-.94v-3.87h1.04v5.48h-1.01v-.74c-.51.59-1.17.89-1.97.89-.67,0-1.19-.19-1.56-.56Z" style="fill: #fff;"/>
      <path d="M25.38,1.1h3.47V0h.95v1.8h-4.43v-.71Z" style="fill: #fff;"/>
    </g>
  </g>
</svg>