<?xml version="1.0" encoding="UTF-8"?>
<svg id="Layer_2" data-name="Layer 2" xmlns="http://www.w3.org/2000/svg" viewBox="0 0 41.21 5.94">
  <g id="Layer_1-2" data-name="Layer 1">
    <g id="id-phra-nakhon-si-ayutthaya">
      <path d="M0,1.44h.58l.55,2.21.65-2.21h.44l.65,2.21.55-2.21h.58l-.84,3.02h-.49l-.67-2.27-.68,2.27h-.49L0,1.44Z" style="fill: #fff;"/>
      <path d="M4.97,4.47c-.21-.05-.38-.12-.5-.21v-.46c.16.1.34.17.53.22.19.05.38.08.56.08.25,0,.43-.03.54-.09.11-.06.16-.16.16-.3,0-.1-.03-.18-.08-.24-.05-.06-.13-.11-.24-.16-.11-.05-.28-.1-.5-.17-.33-.1-.58-.22-.74-.36-.16-.14-.24-.33-.24-.57,0-.28.11-.49.32-.64.21-.15.51-.22.88-.22.19,0,.38.02.56.06.18.04.33.1.44.17v.47c-.13-.08-.28-.14-.44-.19-.17-.04-.33-.07-.51-.07-.45,0-.68.14-.68.41,0,.1.03.18.09.24.06.06.14.11.25.15s.28.09.52.17c.24.07.43.15.56.23.14.08.23.18.29.29s.08.25.08.42c0,.25-.1.45-.3.6s-.51.23-.92.23c-.21,0-.42-.02-.63-.07Z" style="fill: #fff;"/>
      <path d="M7.43,2.51c-.07-.08-.1-.19-.1-.34v-.32h.52v.21c0,.06.01.1.04.13s.07.04.14.04h.66v.4h-.91c-.17,0-.28-.04-.35-.11ZM7.43,4.05c-.07-.08-.1-.19-.1-.34v-.32h.52v.21c0,.06.01.1.04.13s.07.04.14.04h.66v.4h-.91c-.17,0-.28-.04-.35-.11Z" style="fill: #fff;"/>
      <path d="M9.62,4.23c-.21-.21-.31-.47-.31-.8v-1.99h.58v1.97c0,.23.06.4.19.51s.31.17.56.17c.39,0,.69-.17.92-.52V1.44h.58v3.02h-.56v-.41c-.28.33-.64.49-1.08.49-.37,0-.66-.1-.86-.31Z" style="fill: #fff;"/>
      <path d="M12.86,2.59c0-.39.13-.7.38-.91s.61-.32,1.06-.32.79.11,1.05.32c.26.21.38.52.38.91v1.87h-.58v-1.89c0-.26-.08-.45-.23-.57s-.36-.19-.63-.19-.49.06-.64.19c-.15.13-.23.32-.23.57v.58c.05-.09.13-.16.23-.22.11-.05.23-.08.37-.08h.45v.47h-.5c-.16,0-.29.06-.4.17-.11.11-.16.24-.16.38v.59h-.58v-1.87Z" style="fill: #fff;"/>
      <path d="M16.87,4.47c-.21-.05-.38-.12-.5-.21v-.46c.16.1.34.17.53.22.19.05.38.08.56.08.25,0,.43-.03.54-.09.11-.06.16-.16.16-.3,0-.1-.03-.18-.08-.24-.05-.06-.13-.11-.24-.16-.11-.05-.28-.1-.5-.17-.33-.1-.58-.22-.74-.36-.16-.14-.24-.33-.24-.57,0-.28.11-.49.32-.64.21-.15.51-.22.88-.22.19,0,.38.02.56.06.18.04.33.1.44.17v.47c-.13-.08-.28-.14-.44-.19-.17-.04-.33-.07-.51-.07-.45,0-.68.14-.68.41,0,.1.03.18.09.24.06.06.14.11.25.15s.28.09.52.17c.24.07.43.15.56.23.14.08.23.18.29.29s.08.25.08.42c0,.25-.1.45-.3.6s-.51.23-.92.23c-.21,0-.42-.02-.63-.07Z" style="fill: #fff;"/>
      <path d="M19.35,2.59c0-.39.13-.7.38-.91s.61-.32,1.06-.32c.29,0,.54.05.75.14l.24-.28h.64l-.49.55c.2.21.29.49.29.82v1.87h-.58v-1.89c0-.26-.08-.45-.23-.57s-.36-.19-.63-.19-.49.06-.64.19c-.15.13-.23.32-.23.57v.58c.05-.09.13-.16.23-.22.11-.05.23-.08.37-.08h.45v.47h-.5c-.16,0-.29.06-.4.17-.11.11-.16.24-.16.38v.59h-.58v-1.87Z" style="fill: #fff;"/>
      <path d="M23.39,4.47c-.21-.05-.38-.12-.5-.21v-.46c.16.1.34.17.53.22.19.05.38.08.56.08.25,0,.43-.03.54-.09.11-.06.16-.16.16-.3,0-.1-.03-.18-.08-.24-.05-.06-.13-.11-.24-.16-.11-.05-.28-.1-.5-.17-.33-.1-.58-.22-.74-.36-.16-.14-.24-.33-.24-.57,0-.28.11-.49.32-.64.21-.15.51-.22.88-.22.19,0,.38.02.56.06.18.04.33.1.44.17v.47c-.13-.08-.28-.14-.44-.19-.17-.04-.33-.07-.51-.07-.45,0-.68.14-.68.41,0,.1.03.18.09.24.06.06.14.11.25.15s.28.09.52.17c.24.07.43.15.56.23.14.08.23.18.29.29s.08.25.08.42c0,.25-.1.45-.3.6s-.51.23-.92.23c-.21,0-.42-.02-.63-.07Z" style="fill: #fff;"/>
      <path d="M22.69.6h1.91v-.6h.52v.99h-2.44v-.39Z" style="fill: #fff;"/>
      <path d="M26.31,4.46c-.22-.05-.4-.13-.55-.23v-1.5h1.25v.46h-.68v.75c.16.1.38.15.65.15.36,0,.64-.1.83-.3.19-.2.29-.49.29-.87s-.1-.66-.29-.84c-.19-.18-.51-.27-.95-.27-.2,0-.39.02-.59.06-.19.04-.35.1-.49.19v-.46c.15-.08.32-.15.52-.19.2-.04.41-.06.64-.06.56,0,1,.14,1.29.41.3.27.45.66.45,1.16s-.15.9-.44,1.19c-.3.29-.71.43-1.26.43-.23,0-.46-.03-.68-.08Z" style="fill: #fff;"/>
      <path d="M29.58,4.3c-.26-.17-.39-.41-.39-.72,0-.17.05-.31.14-.44.09-.13.21-.21.37-.26-.15-.06-.26-.16-.35-.28-.09-.12-.13-.26-.13-.42,0-.25.08-.45.25-.6.17-.15.41-.23.73-.23.09,0,.18,0,.28.02.09.01.17.03.23.04v.45s-.11-.03-.19-.04c-.08,0-.15-.01-.21-.01-.16,0-.29.03-.37.1-.08.07-.13.17-.13.3,0,.14.04.24.13.31.09.07.22.11.4.11h.36v.47h-.36c-.18,0-.32.04-.42.12s-.15.19-.15.35.08.29.23.38.36.14.62.14c.62,0,.93-.26.93-.79v-1.86h.58v1.85c0,.21-.05.41-.15.6-.1.19-.26.35-.48.47-.22.12-.52.18-.88.18-.44,0-.78-.08-1.04-.25Z" style="fill: #fff;"/>
      <path d="M31.61,5.37c0-.07-.01-.11-.04-.14s-.07-.04-.14-.04h-.19v-.41h.46c.17,0,.28.03.34.1.06.07.09.19.09.36v.7h-.52v-.58Z" style="fill: #fff;"/>
      <path d="M33.13,4.3c-.24-.16-.37-.38-.37-.66v-.38h.57v.34c0,.17.07.29.21.38.14.08.32.12.56.12s.41-.04.54-.11c.13-.08.19-.19.19-.34,0-.12-.03-.22-.08-.29-.06-.07-.14-.12-.26-.17-.12-.04-.31-.1-.58-.16-.26-.06-.46-.12-.62-.19s-.29-.15-.38-.26c-.09-.11-.14-.25-.14-.42,0-.27.12-.48.36-.61s.55-.19.93-.19c.22,0,.44.02.66.07.22.05.39.11.52.18v.47c-.14-.08-.31-.15-.51-.19-.2-.05-.4-.07-.6-.07-.26,0-.45.02-.58.07-.13.05-.19.14-.19.28,0,.08.03.15.09.2.06.05.14.1.24.13s.25.08.46.13l.2.06c.26.07.47.14.62.22.15.07.26.17.34.29s.11.27.11.46c0,.27-.11.49-.34.65-.23.16-.55.25-.96.25s-.72-.08-.97-.24Z" style="fill: #fff;"/>
      <path d="M36.29,4.3c-.26-.17-.39-.41-.39-.72,0-.17.05-.31.14-.44.09-.13.21-.21.37-.26-.15-.06-.26-.16-.35-.28-.09-.12-.13-.26-.13-.42,0-.25.08-.45.25-.6.17-.15.41-.23.73-.23.09,0,.18,0,.28.02.09.01.17.03.23.04v.45s-.11-.03-.19-.04c-.08,0-.15-.01-.21-.01-.16,0-.29.03-.37.1-.08.07-.13.17-.13.3,0,.14.04.24.13.31.09.07.22.11.4.11h.36v.47h-.36c-.18,0-.32.04-.42.12s-.15.19-.15.35.08.29.23.38.36.14.62.14c.62,0,.93-.26.93-.79v-1.86h.58v1.85c0,.21-.05.41-.15.6-.1.19-.26.35-.48.47-.22.12-.52.18-.88.18-.44,0-.78-.08-1.04-.25Z" style="fill: #fff;"/>
      <path d="M40.64,2.51c0-.24-.05-.42-.15-.53s-.27-.17-.52-.17-.47.05-.68.16v-.45c.09-.05.21-.08.35-.12.14-.03.29-.05.43-.05.38,0,.66.1.85.31.19.21.28.5.28.88v1.91h-.58v-1.95Z" style="fill: #fff;"/>
    </g>
  </g>
</svg>