<?xml version="1.0" encoding="UTF-8"?>
<svg id="Layer_2" data-name="Layer 2" xmlns="http://www.w3.org/2000/svg" viewBox="0 0 51.08 20.86">
  <g id="Layer_1-2" data-name="Layer 1">
    <g id="id-ratchaburi">
      <path d="M1.82,15.7c-.75-.16-1.34-.41-1.76-.72v-1.62c.57.34,1.19.6,1.87.78.68.18,1.33.27,1.95.27.87,0,1.5-.1,1.88-.31s.58-.56.58-1.06c0-.34-.09-.62-.28-.83-.19-.21-.47-.4-.84-.55-.38-.16-.97-.36-1.77-.59-1.16-.36-2.03-.78-2.59-1.26-.57-.48-.85-1.15-.85-2.01,0-.98.38-1.73,1.13-2.25.75-.52,1.78-.78,3.09-.78.67,0,1.32.08,1.95.23s1.15.35,1.55.6v1.66c-.45-.28-.96-.5-1.54-.65-.58-.16-1.17-.24-1.78-.24-1.58,0-2.38.48-2.38,1.43,0,.36.11.64.33.85.22.21.51.39.87.52s.97.33,1.83.58c.84.25,1.51.52,1.98.81.48.29.81.63,1.01,1.03.2.4.3.88.3,1.47,0,.87-.36,1.57-1.07,2.1s-1.79.79-3.23.79c-.73,0-1.47-.08-2.22-.25Z" style="fill: #fff;"/>
      <path d="M14.24,8.79c0-.85-.17-1.46-.51-1.85-.34-.39-.95-.58-1.82-.58s-1.64.19-2.38.55v-1.58c.32-.16.73-.29,1.24-.41.51-.11,1.01-.17,1.51-.17,1.33,0,2.33.36,2.99,1.08.66.72.99,1.75.99,3.1v6.71h-2.02v-6.85Z" style="fill: #fff;"/>
      <path d="M20.78,15.45c-.71-.33-1.26-.79-1.65-1.4-.39-.6-.58-1.29-.58-2.07v-.67c0-.45.1-.87.3-1.26.2-.39.47-.81.81-1.28.25-.34.43-.62.54-.83.11-.21.17-.41.17-.59,0-.25-.06-.43-.19-.54-.12-.11-.33-.16-.62-.16h-1.11v-1.6h2.08c.58,0,1.04.17,1.38.5.34.34.5.78.5,1.34,0,.38-.08.74-.24,1.06-.16.32-.4.72-.71,1.18-.32.48-.54.86-.68,1.15s-.21.61-.21.95v.73c0,.75.24,1.34.71,1.76.48.42,1.13.63,1.98.63.9,0,1.6-.24,2.1-.73.5-.49.75-1.21.75-2.16s-.2-1.66-.59-2.14c-.4-.48-.98-.71-1.74-.71v-1.09l2.12-2.77h2.18l-2.24,2.95c.81.3,1.39.77,1.75,1.4.36.63.54,1.42.54,2.37s-.2,1.7-.6,2.38c-.4.67-.97,1.19-1.71,1.55s-1.59.54-2.55.54-1.76-.17-2.48-.5Z" style="fill: #fff;"/>
      <path d="M32.8,15.39c-.77-.37-1.36-.89-1.77-1.55-.42-.67-.62-1.43-.62-2.29v-6.5h2.02v6.46c0,.88.26,1.58.78,2.09s1.28.76,2.29.76,1.75-.25,2.27-.76c.52-.51.78-1.2.78-2.09v-6.46h2.02v6.5c0,.86-.21,1.62-.62,2.29-.42.67-1.01,1.19-1.77,1.55-.77.37-1.66.55-2.67.55s-1.93-.19-2.69-.55Z" style="fill: #fff;"/>
      <path d="M38.72,18.83c0-.24-.04-.4-.13-.48-.09-.09-.25-.13-.5-.13h-.65v-1.45h1.62c.59,0,.99.12,1.2.36.21.24.31.66.31,1.27v2.46h-1.84v-2.02Z" style="fill: #fff;"/>
      <path d="M44.56,15.7c-.75-.16-1.34-.41-1.76-.72v-1.62c.57.34,1.19.6,1.87.78.68.18,1.33.27,1.95.27.87,0,1.5-.1,1.88-.31s.58-.56.58-1.06c0-.34-.09-.62-.28-.83-.19-.21-.47-.4-.84-.55-.38-.16-.97-.36-1.77-.59-1.16-.36-2.03-.78-2.59-1.26-.57-.48-.85-1.15-.85-2.01,0-.98.38-1.73,1.13-2.25.75-.52,1.78-.78,3.09-.78.67,0,1.32.08,1.95.23s1.15.35,1.55.6v1.66c-.45-.28-.96-.5-1.54-.65-.58-.16-1.17-.24-1.78-.24-1.58,0-2.38.48-2.38,1.43,0,.36.11.64.33.85.22.21.51.39.87.52s.97.33,1.83.58c.84.25,1.51.52,1.98.81.48.29.81.63,1.01,1.03.2.4.3.88.3,1.47,0,.87-.36,1.57-1.07,2.1s-1.79.79-3.23.79c-.73,0-1.47-.08-2.22-.25Z" style="fill: #fff;"/>
      <path d="M42.11,2.12h6.71V0h1.84v3.49h-8.56v-1.37Z" style="fill: #fff;"/>
    </g>
  </g>
</svg>