<?xml version="1.0" encoding="UTF-8"?>
<svg id="Layer_2" data-name="Layer 2" xmlns="http://www.w3.org/2000/svg" viewBox="0 0 18.66 4.04">
  <g id="Layer_1-2" data-name="Layer 1">
    <g id="id-ranong">
      <path d="M.66,3.95c-.27-.06-.48-.15-.64-.26v-.59c.21.12.43.22.68.28.25.07.48.1.7.1.32,0,.54-.04.68-.11s.21-.2.21-.38c0-.12-.03-.22-.1-.3-.07-.08-.17-.14-.3-.2-.14-.06-.35-.13-.64-.22-.42-.13-.73-.28-.94-.45-.21-.17-.31-.42-.31-.73C0,.74.14.47.41.28c.27-.19.64-.28,1.12-.28.24,0,.48.03.71.08.23.06.41.13.56.22v.6c-.16-.1-.35-.18-.56-.24-.21-.06-.42-.09-.64-.09-.57,0-.86.17-.86.51,0,.13.04.23.12.31.08.08.18.14.31.19s.35.12.66.21c.31.09.54.19.72.29.17.11.29.23.36.37.07.14.11.32.11.53,0,.32-.13.57-.39.76-.26.19-.65.29-1.17.29-.26,0-.53-.03-.8-.09Z" style="fill: #fff;"/>
      <path d="M3.79,1.47c-.09-.1-.13-.24-.13-.44v-.41h.66v.27c0,.08.02.13.05.16.03.03.09.05.18.05h.84v.51h-1.15c-.21,0-.36-.05-.44-.14ZM3.79,3.42c-.09-.1-.13-.24-.13-.44v-.41h.66v.27c0,.08.02.13.05.16.03.03.09.05.18.05h.84v.51h-1.15c-.21,0-.36-.05-.44-.14Z" style="fill: #fff;"/>
      <path d="M6.56,3.65c-.26-.26-.39-.6-.39-1.02V.11h.73v2.5c0,.29.08.5.24.65.16.14.4.22.71.22.49,0,.88-.22,1.16-.66V.11h.73v3.83h-.71v-.51c-.36.41-.82.62-1.37.62-.47,0-.83-.13-1.09-.39Z" style="fill: #fff;"/>
      <path d="M11.22,3.94c-.28-.07-.51-.17-.7-.29v-1.9h1.59v.59h-.86v.95c.2.12.48.19.83.19.46,0,.81-.13,1.05-.38.24-.25.36-.62.36-1.1s-.12-.84-.37-1.07c-.25-.23-.65-.34-1.21-.34-.25,0-.5.02-.74.07s-.45.13-.61.24V.32c.19-.11.4-.18.66-.24.25-.05.53-.08.82-.08.72,0,1.26.17,1.64.52.38.35.57.84.57,1.47s-.19,1.13-.56,1.5c-.38.37-.91.55-1.59.55-.3,0-.58-.04-.86-.1Z" style="fill: #fff;"/>
      <path d="M14.87.59h.73l.91,2.78c.45,0,.79-.12,1.04-.37.24-.25.37-.6.37-1.05s-.08-.79-.25-1.02c-.17-.23-.43-.34-.8-.34-.17,0-.34.02-.5.06V.08c.19-.05.4-.08.62-.08.54,0,.96.17,1.24.52.29.34.43.82.43,1.42,0,.41-.09.77-.27,1.07s-.42.53-.73.69c-.31.16-.64.24-1.02.24h-.69l-1.09-3.35Z" style="fill: #fff;"/>
    </g>
  </g>
</svg>