<?xml version="1.0" encoding="UTF-8"?>
<svg id="Layer_2" data-name="Layer 2" xmlns="http://www.w3.org/2000/svg" viewBox="0 0 36.39 7.88">
  <g id="Layer_1-2" data-name="Layer 1">
    <g id="id-rayong">
      <path d="M1.28,7.7c-.53-.12-.94-.29-1.24-.51v-1.14c.4.24.84.43,1.32.55.48.13.94.19,1.37.19.61,0,1.05-.07,1.32-.22.27-.14.4-.39.4-.75,0-.24-.06-.44-.19-.58-.13-.15-.33-.28-.59-.39s-.68-.25-1.25-.42c-.82-.25-1.43-.55-1.83-.88-.4-.34-.6-.81-.6-1.42C0,1.45.26.92.79.55c.53-.37,1.25-.55,2.17-.55.47,0,.93.05,1.37.16.44.11.81.25,1.09.43v1.17c-.32-.2-.68-.35-1.09-.46-.41-.11-.83-.17-1.25-.17-1.12,0-1.67.33-1.67,1,0,.25.08.45.23.6s.36.27.61.37c.25.1.68.23,1.29.41.59.18,1.06.37,1.39.57.33.2.57.45.71.72.14.28.21.62.21,1.03,0,.61-.25,1.11-.75,1.48-.5.37-1.26.56-2.27.56-.51,0-1.03-.06-1.56-.17Z" style="fill: #fff;"/>
      <path d="M7.37,2.86c-.17-.19-.25-.47-.25-.85v-.79h1.28v.53c0,.15.03.25.1.31.07.06.18.09.35.09h1.63v.99h-2.24c-.41,0-.7-.09-.86-.28ZM7.37,6.66c-.17-.19-.25-.47-.25-.85v-.79h1.28v.53c0,.15.03.25.1.31.07.06.18.09.35.09h1.63v.99h-2.24c-.41,0-.7-.09-.86-.28Z" style="fill: #fff;"/>
      <path d="M12.7,7.26c-.64-.41-.96-1-.96-1.78,0-.41.11-.77.34-1.08s.53-.53.91-.65c-.36-.16-.65-.38-.87-.68-.22-.3-.33-.64-.33-1.03,0-.61.21-1.11.61-1.48.41-.37,1.01-.56,1.8-.56.22,0,.45.02.68.05.23.03.42.07.56.1v1.12c-.12-.05-.28-.08-.47-.1-.19-.02-.37-.04-.52-.04-.4,0-.7.09-.91.26-.21.17-.31.42-.31.73,0,.33.11.59.33.77.22.18.55.26.99.26h.89v1.17h-.88c-.45,0-.79.09-1.03.29-.24.19-.36.48-.36.87,0,.41.19.72.56.95.38.22.89.33,1.54.33,1.53,0,2.3-.65,2.3-1.95V.21h1.42v4.57c0,.52-.12,1.01-.36,1.48-.24.47-.64.85-1.19,1.16s-1.28.45-2.17.45c-1.08,0-1.94-.2-2.58-.61Z" style="fill: #fff;"/>
      <path d="M21.9,7.67c-.54-.13-.99-.32-1.37-.56v-3.71h3.09v1.14h-1.67v1.85c.4.24.94.36,1.62.36.89,0,1.57-.25,2.04-.74.47-.49.7-1.21.7-2.15s-.24-1.63-.72-2.08c-.48-.45-1.26-.67-2.35-.67-.49,0-.98.05-1.45.15s-.87.25-1.2.47V.61c.36-.2.79-.36,1.28-.46.49-.1,1.02-.15,1.59-.15,1.39,0,2.46.34,3.19,1.02.73.68,1.1,1.63,1.1,2.86s-.37,2.21-1.09,2.93c-.73.72-1.76,1.07-3.1,1.07-.58,0-1.13-.07-1.67-.2Z" style="fill: #fff;"/>
      <path d="M29.02,1.14h1.42l1.77,5.41c.87,0,1.55-.24,2.02-.72s.71-1.17.71-2.05-.16-1.53-.49-1.98c-.33-.45-.84-.67-1.56-.67-.33,0-.66.04-.98.13V.15c.37-.1.78-.15,1.21-.15,1.06,0,1.87.33,2.42,1s.84,1.59.84,2.77c0,.81-.17,1.5-.52,2.09-.35.58-.82,1.03-1.42,1.34s-1.25.46-1.98.46h-1.34l-2.12-6.52Z" style="fill: #fff;"/>
    </g>
  </g>
</svg>