<?xml version="1.0" encoding="UTF-8"?>
<svg id="Layer_2" data-name="Layer 2" xmlns="http://www.w3.org/2000/svg" viewBox="0 0 38.26 9.99">
  <g id="Layer_1-2" data-name="Layer 1">
    <g id="id-roi-et">
      <path d="M1.11,9.85c-.45-.09-.81-.23-1.06-.42v-1.15c.34.2.72.35,1.13.45.42.1.8.15,1.15.15.47,0,.8-.05,1.01-.14.21-.09.31-.27.31-.52,0-.18-.05-.32-.16-.42-.11-.1-.26-.19-.44-.26s-.54-.18-1.05-.34c-.67-.21-1.17-.46-1.5-.76-.33-.29-.49-.69-.49-1.2,0-.58.23-1.03.7-1.35.47-.32,1.09-.48,1.88-.48.42,0,.82.04,1.2.13.38.09.7.21.95.35v1.21c-.26-.16-.56-.29-.92-.4-.36-.1-.72-.15-1.09-.15-.83,0-1.24.23-1.24.67,0,.16.05.29.15.4.1.1.24.18.41.25.17.07.43.15.78.26l.38.12c.5.16.88.32,1.16.5.28.18.47.38.58.62.11.23.17.52.17.86,0,.52-.22.94-.66,1.26-.44.32-1.11.48-1.99.48-.44,0-.89-.05-1.34-.14Z" style="fill: #fff;"/>
      <path d="M2.22,2.01c0-.09-.02-.15-.05-.19-.04-.04-.1-.06-.19-.06h-.54V.74h.99c.26,0,.46.06.58.19s.19.29.19.47v.37h2.38v.97h-3.36v-.73Z" style="fill: #fff;"/>
      <path d="M7.24,9.83c-.48-.11-.88-.26-1.2-.45v-3.26h2.79v1.2h-1.31v1.29c.29.16.68.23,1.19.23.68,0,1.2-.19,1.55-.56.35-.37.52-.92.52-1.63,0-.49-.08-.88-.23-1.19-.16-.3-.41-.53-.77-.67-.36-.15-.84-.22-1.44-.22-.4,0-.8.04-1.21.12-.41.08-.75.2-1.02.35v-1.15c.31-.16.68-.27,1.11-.35s.89-.12,1.37-.12c1.18,0,2.09.28,2.73.84.64.56.97,1.36.97,2.39s-.31,1.85-.92,2.44-1.5.9-2.66.9c-.5,0-.99-.05-1.47-.16Z" style="fill: #fff;"/>
      <path d="M14.05,9.46c-.56-.36-.84-.86-.84-1.51,0-.32.09-.6.28-.86.19-.26.43-.43.72-.54-.28-.13-.51-.32-.68-.57-.17-.25-.26-.53-.26-.84,0-.52.18-.94.54-1.25s.88-.47,1.58-.47c.22,0,.43.01.63.04.2.03.36.06.48.1v1.15c-.1-.05-.23-.08-.39-.1-.16-.02-.3-.03-.42-.03-.6,0-.9.22-.9.66,0,.24.07.42.22.54s.38.17.71.17h.78v1.2h-.78c-.66,0-.99.27-.99.8,0,.28.14.5.41.66.28.16.65.24,1.13.24.6,0,1.05-.12,1.33-.37.28-.25.42-.61.42-1.09v-3.79h1.48v3.77c0,.44-.11.86-.32,1.26-.21.4-.56.73-1.05.99s-1.11.39-1.87.39c-.92,0-1.66-.18-2.22-.54Z" style="fill: #fff;"/>
      <path d="M21.23,9.48c-.21-.23-.32-.55-.32-.96V3.59h1.48v4.46c0,.2.04.34.13.42.08.08.22.12.42.12h.41v1.23h-1.19c-.4,0-.71-.11-.93-.34Z" style="fill: #fff;"/>
      <path d="M25.47,9.83c-.48-.11-.88-.26-1.2-.45v-3.26h2.79v1.2h-1.31v1.29c.29.16.68.23,1.19.23.68,0,1.2-.19,1.55-.56.35-.37.52-.92.52-1.63,0-.49-.08-.88-.23-1.19-.16-.3-.41-.53-.77-.67-.36-.15-.84-.22-1.44-.22-.4,0-.8.04-1.21.12-.41.08-.75.2-1.02.35v-1.15c.31-.16.68-.27,1.11-.35s.89-.12,1.37-.12c1.18,0,2.09.28,2.73.84.64.56.97,1.36.97,2.39s-.31,1.85-.92,2.44-1.5.9-2.66.9c-.5,0-.99-.05-1.47-.16Z" style="fill: #fff;"/>
      <path d="M25.79,2.45c-.26-.24-.38-.55-.38-.95,0-.5.14-.87.43-1.12s.68-.38,1.17-.38h2.85v.8h-2.75c-.23,0-.41.05-.53.14-.12.09-.18.24-.18.45,0,.19.05.33.15.42.1.1.23.15.41.15.19,0,.34-.05.45-.16.11-.11.16-.25.16-.43h.79c0,.19.05.32.16.41.11.09.26.13.45.13h.69v.84h-.66c-.26,0-.49-.05-.68-.15-.19-.1-.31-.23-.37-.37-.07.15-.21.29-.42.4-.21.11-.45.17-.71.17-.43,0-.78-.12-1.04-.35Z" style="fill: #fff;"/>
      <path d="M32.27,9.2c-.55-.53-.82-1.31-.82-2.33,0-.71.14-1.33.42-1.84.28-.52.69-.91,1.22-1.19s1.16-.41,1.88-.41c1.14,0,1.97.26,2.5.79.53.53.79,1.21.79,2.06v3.55h-1.48v-3.56c0-.54-.14-.96-.42-1.25-.28-.29-.75-.44-1.39-.44s-1.11.2-1.47.6c-.36.4-.54.96-.54,1.69,0,.67.16,1.16.47,1.49.31.33.76.49,1.34.49.29,0,.55-.04.8-.12v1.13c-.3.09-.66.14-1.06.14-.95,0-1.69-.27-2.24-.8Z" style="fill: #fff;"/>
    </g>
  </g>
</svg>