<?xml version="1.0" encoding="UTF-8"?>
<svg id="Layer_2" data-name="Layer 2" xmlns="http://www.w3.org/2000/svg" viewBox="0 0 50.81 8.25">
  <g id="Layer_1-2" data-name="Layer 1">
    <g id="id-sakon-nakhon">
      <path d="M.76,7.62c-.51-.42-.76-1.01-.76-1.78,0-.5.13-.95.38-1.33.26-.38.62-.68,1.09-.9.47-.21,1.02-.32,1.66-.32.9,0,1.69.15,2.35.46v-.34c0-.58-.17-1-.51-1.28-.34-.27-.89-.41-1.64-.41-.46,0-.91.05-1.35.14-.44.09-.83.22-1.15.38V.87c.3-.14.71-.26,1.24-.36.53-.1,1.04-.15,1.55-.15.75,0,1.41.12,1.96.35l.62-.7h1.96l-1.44,1.65c.36.41.55.99.55,1.73v4.66h-1.76v-2.88c-.62-.32-1.34-.48-2.14-.48-.52,0-.91.1-1.17.3-.26.2-.38.49-.38.87,0,.35.12.6.35.76.23.16.6.24,1.1.24.32,0,.59-.05.83-.14v1.36c-.34.11-.78.17-1.3.17-.83,0-1.5-.21-2.01-.63Z" style="fill: #fff;"/>
      <path d="M9.68,3.48l-.7-1.16c.51-.64,1.1-1.13,1.77-1.47.67-.34,1.44-.5,2.31-.5,1.17,0,2.06.26,2.68.78.62.52.93,1.24.93,2.17v4.74h-1.78V3.44c0-.58-.15-1.01-.46-1.29s-.76-.42-1.37-.42c-.46,0-.86.07-1.21.2s-.67.34-.97.64l.57.92v4.54h-1.78V3.48Z" style="fill: #fff;"/>
      <path d="M18.83,7.62c-.51-.42-.76-1.01-.76-1.78,0-.5.13-.95.38-1.33.26-.38.62-.68,1.09-.9.47-.21,1.02-.32,1.66-.32.9,0,1.69.15,2.35.46v-.34c0-.58-.17-1-.51-1.28-.34-.27-.89-.41-1.64-.41-.46,0-.91.05-1.35.14-.44.09-.83.22-1.15.38V.87c.3-.14.71-.26,1.24-.36.53-.1,1.04-.15,1.55-.15,1.21,0,2.12.28,2.73.83.61.55.91,1.29.91,2.21v4.66h-1.76v-2.88c-.62-.32-1.34-.48-2.14-.48-.52,0-.91.1-1.17.3-.26.2-.38.49-.38.87,0,.35.12.6.35.76.23.16.6.24,1.1.24.32,0,.59-.05.83-.14v1.36c-.34.11-.78.17-1.3.17-.83,0-1.5-.21-2.01-.63Z" style="fill: #fff;"/>
      <path d="M28.33,7.88c-.44-.25-.77-.59-1-1.02s-.34-.92-.34-1.45V.56h1.78v4.77c0,1.03.54,1.54,1.64,1.54.86,0,1.53-.38,2.01-1.15V.56h1.78v7.48h-1.71v-.92c-.35.37-.76.65-1.21.85-.45.19-.91.29-1.38.29-.61,0-1.13-.12-1.57-.37Z" style="fill: #fff;"/>
      <path d="M35.87,3.51c0-1.01.33-1.79,1-2.34.67-.55,1.57-.83,2.71-.83s2.04.28,2.7.83c.66.55.99,1.33.99,2.34v4.53h-1.78V3.44c0-.57-.17-1-.5-1.28-.33-.28-.8-.43-1.42-.43s-1.09.14-1.43.42c-.33.28-.5.71-.5,1.29v1.23c.12-.2.3-.35.54-.48.24-.12.52-.18.83-.18h1.13v1.48h-1.26c-.36,0-.66.12-.89.36-.23.24-.35.52-.35.86v1.33h-1.78V3.51Z" style="fill: #fff;"/>
      <path d="M46,8.08c-.54-.11-.97-.28-1.28-.5v-1.38c.41.24.87.42,1.36.55.5.12.96.18,1.38.18.56,0,.96-.06,1.21-.17s.37-.32.37-.63c0-.21-.07-.38-.2-.51-.13-.13-.31-.23-.53-.31-.22-.08-.64-.22-1.26-.41-.8-.25-1.4-.55-1.8-.91-.4-.35-.59-.83-.59-1.44,0-.7.28-1.24.84-1.62s1.31-.57,2.27-.57c.5,0,.99.05,1.45.16.46.11.84.25,1.14.43v1.45c-.31-.2-.68-.35-1.11-.48-.43-.12-.87-.18-1.31-.18-1,0-1.5.27-1.5.81,0,.2.06.35.18.48s.28.22.49.3.52.18.94.31l.46.14c.6.19,1.06.39,1.39.6s.56.46.7.74c.13.28.2.62.2,1.03,0,.62-.27,1.13-.8,1.52s-1.33.58-2.39.58c-.53,0-1.07-.06-1.62-.17Z" style="fill: #fff;"/>
    </g>
  </g>
</svg>