<?xml version="1.0" encoding="UTF-8"?>
<svg id="Layer_2" data-name="Layer 2" xmlns="http://www.w3.org/2000/svg" viewBox="0 0 46.5 10.01">
  <g id="Layer_1-2" data-name="Layer 1">
    <g id="id-songkhla">
      <path d="M.89,9.26c-.59-.5-.89-1.22-.89-2.15s.33-1.65.99-2.19c.66-.54,1.56-.81,2.69-.81s2.13.21,3.02.63v-.7c0-.78-.21-1.35-.64-1.71-.42-.36-1.13-.54-2.11-.54-.54,0-1.08.05-1.6.15-.52.1-.97.24-1.36.42v-1.36c.35-.17.83-.31,1.43-.42.6-.11,1.2-.17,1.77-.17,1.02,0,1.87.19,2.55.56l.87-.98h1.92l-1.71,1.92c.41.58.61,1.27.61,2.09v5.75h-1.73v-3.65c-.83-.42-1.77-.63-2.83-.63-.74,0-1.28.14-1.62.41-.34.27-.52.68-.52,1.22,0,1.03.66,1.54,1.99,1.54.41,0,.76-.06,1.07-.17v1.34c-.41.12-.91.19-1.49.19-1.01,0-1.81-.25-2.4-.76Z" style="fill: #fff;"/>
      <path d="M10.55,1.82h1.73l2.16,6.58c1.06,0,1.88-.29,2.46-.88.58-.59.87-1.42.87-2.49s-.2-1.87-.59-2.41c-.4-.54-1.03-.81-1.9-.81-.41,0-.8.05-1.19.15V.61c.45-.12.94-.19,1.48-.19,1.29,0,2.27.41,2.95,1.22s1.02,1.94,1.02,3.38c0,.98-.21,1.83-.64,2.54-.42.71-1,1.26-1.72,1.63-.72.37-1.53.56-2.41.56h-1.63l-2.58-7.94Z" style="fill: #fff;"/>
      <path d="M23.01,9.59c-.6-.28-1.06-.68-1.38-1.2s-.48-1.11-.48-1.77v-.58c0-.38.08-.73.24-1.05.16-.32.39-.68.7-1.1.21-.28.37-.52.47-.7.1-.19.15-.37.15-.54,0-.21-.05-.37-.16-.46s-.29-.14-.53-.14h-.95V.68h1.78c.5,0,.89.14,1.18.43.29.29.43.67.43,1.14,0,.33-.07.63-.2.91s-.34.61-.61,1.01c-.27.41-.47.74-.58.98-.12.25-.18.52-.18.81v.63c0,.66.19,1.16.57,1.52s.94.54,1.69.54,1.3-.18,1.66-.55c.36-.37.54-.89.54-1.55V.68h1.73v5.58c0,1.17-.35,2.08-1.04,2.75-.69.67-1.66,1-2.9,1-.81,0-1.52-.14-2.12-.42Z" style="fill: #fff;"/>
      <path d="M31.83,9.26c-.59-.5-.89-1.22-.89-2.15s.33-1.65.99-2.19c.66-.54,1.56-.81,2.69-.81s2.13.21,3.02.63v-.7c0-.78-.21-1.35-.64-1.71-.42-.36-1.13-.54-2.11-.54-.54,0-1.08.05-1.6.15-.52.1-.97.24-1.36.42v-1.36c.35-.17.83-.31,1.43-.42.6-.11,1.2-.17,1.77-.17,1.41,0,2.47.32,3.17.97.7.65,1.05,1.52,1.05,2.61v5.75h-1.73v-3.65c-.83-.42-1.77-.63-2.83-.63-.74,0-1.28.14-1.62.41-.34.27-.52.68-.52,1.22,0,1.03.66,1.54,1.99,1.54.41,0,.76-.06,1.07-.17v1.34c-.41.12-.91.19-1.49.19-1.01,0-1.81-.25-2.4-.76Z" style="fill: #fff;"/>
      <path d="M44.76,3.89c0-.72-.15-1.25-.44-1.59-.29-.33-.82-.5-1.56-.5s-1.4.16-2.04.48V.92c.27-.14.62-.25,1.06-.35.44-.1.87-.14,1.3-.14,1.14,0,2,.31,2.56.92.57.62.85,1.5.85,2.66v5.75h-1.73V3.89Z" style="fill: #fff;"/>
    </g>
  </g>
</svg>