<?xml version="1.0" encoding="UTF-8"?>
<svg id="Layer_2" data-name="Layer 2" xmlns="http://www.w3.org/2000/svg" viewBox="0 0 23.52 4.39">
  <g id="Layer_1-2" data-name="Layer 1">
    <g id="id-samut-sakhon">
      <path d="M.28,2.86c-.18-.16-.28-.38-.28-.66s.1-.51.31-.68.48-.25.83-.25.66.06.93.19v-.21c0-.24-.07-.42-.2-.53-.13-.11-.35-.16-.65-.16-.17,0-.33.02-.49.05-.16.03-.3.08-.42.13v-.42c.11-.05.26-.1.44-.13.19-.03.37-.05.55-.05.31,0,.58.06.79.17l.27-.3h.59l-.53.59c.12.18.19.39.19.64v1.78h-.53v-1.13c-.25-.13-.55-.19-.88-.19-.23,0-.39.04-.5.13-.11.08-.16.21-.16.38,0,.32.21.48.61.48.13,0,.24-.02.33-.05v.41c-.13.04-.28.06-.46.06-.31,0-.56-.08-.74-.23Z" style="fill: #fff;"/>
      <path d="M4.34,2.97c-.17-.08-.33-.19-.46-.34v.38h-.51V.21h.53v1.98c.21.32.49.48.85.48.23,0,.4-.05.52-.16.12-.11.17-.26.17-.47V.21h.53v1.85c0,.3-.1.55-.29.74-.19.19-.46.29-.8.29-.19,0-.37-.04-.55-.12Z" style="fill: #fff;"/>
      <path d="M5.48,3.85c0-.06-.01-.11-.03-.13s-.07-.03-.13-.03h-.17v-.38h.43c.16,0,.26.03.32.09.05.06.08.17.08.34v.65h-.49v-.53Z" style="fill: #fff;"/>
      <path d="M6.65.21h.51v.38c.14-.15.3-.27.48-.34.18-.07.37-.11.56-.11.34,0,.6.09.79.28.18.19.27.43.27.73v1.87h-.53v-1.84c0-.2-.05-.35-.16-.45s-.28-.16-.5-.16c-.38,0-.67.16-.87.48v1.98h-.53V.21Z" style="fill: #fff;"/>
      <path d="M10.32,3.02c-.2-.04-.35-.11-.47-.19v-.43c.15.09.32.16.5.21.18.05.35.07.52.07.23,0,.4-.03.5-.08s.15-.15.15-.28c0-.09-.02-.16-.07-.22-.05-.06-.12-.1-.22-.15-.1-.04-.25-.09-.47-.16-.31-.09-.54-.21-.69-.33s-.23-.3-.23-.53c0-.26.1-.46.3-.59.2-.14.47-.21.82-.21.18,0,.35.02.52.06s.3.09.41.16v.44c-.12-.07-.25-.13-.41-.17-.15-.04-.31-.06-.47-.06-.42,0-.63.13-.63.38,0,.09.03.17.09.23.06.06.13.1.23.14.1.04.26.09.48.15.22.07.4.14.52.21.13.08.21.17.27.27.05.1.08.23.08.39,0,.23-.09.42-.28.56-.19.14-.47.21-.85.21-.19,0-.39-.02-.59-.07Z" style="fill: #fff;"/>
      <path d="M12.79,2.86c-.18-.16-.28-.38-.28-.66s.1-.51.31-.68.48-.25.83-.25.66.06.93.19v-.21c0-.24-.07-.42-.2-.53-.13-.11-.35-.16-.65-.16-.17,0-.33.02-.49.05-.16.03-.3.08-.42.13v-.42c.11-.05.26-.1.44-.13.19-.03.37-.05.55-.05.31,0,.58.06.79.17l.27-.3h.59l-.53.59c.12.18.19.39.19.64v1.78h-.53v-1.13c-.25-.13-.55-.19-.88-.19-.23,0-.39.04-.5.13-.11.08-.16.21-.16.38,0,.32.21.48.61.48.13,0,.24-.02.33-.05v.41c-.13.04-.28.06-.46.06-.31,0-.56-.08-.74-.23Z" style="fill: #fff;"/>
      <path d="M16.86,1.2c0-.22-.05-.39-.14-.49s-.25-.15-.48-.15-.43.05-.63.15v-.42c.08-.04.19-.08.33-.11.13-.03.27-.04.4-.04.35,0,.62.1.79.29.17.19.26.46.26.82v1.78h-.53v-1.81Z" style="fill: #fff;"/>
      <path d="M18.07,1.28c0-.36.12-.65.36-.85.24-.2.56-.3.98-.3s.74.1.97.3c.24.2.36.48.36.85v1.73h-.53v-1.75c0-.24-.07-.41-.21-.53s-.33-.18-.59-.18-.45.06-.59.18-.21.29-.21.53v.53c.04-.08.12-.15.21-.2.1-.05.21-.08.35-.08h.42v.44h-.46c-.15,0-.27.05-.37.15-.1.1-.15.22-.15.35v.54h-.53v-1.73Z" style="fill: #fff;"/>
      <path d="M21.8,3.02c-.2-.04-.35-.11-.47-.19v-.43c.15.09.32.16.5.21.18.05.35.07.52.07.23,0,.4-.03.5-.08s.15-.15.15-.28c0-.09-.02-.16-.07-.22-.05-.06-.12-.1-.22-.15-.1-.04-.25-.09-.47-.16-.31-.09-.54-.21-.69-.33s-.23-.3-.23-.53c0-.26.1-.46.3-.59.2-.14.47-.21.82-.21.18,0,.35.02.52.06s.3.09.41.16v.44c-.12-.07-.25-.13-.41-.17-.15-.04-.31-.06-.47-.06-.42,0-.63.13-.63.38,0,.09.03.17.09.23.06.06.13.1.23.14.1.04.26.09.48.15.22.07.4.14.52.21.13.08.21.17.27.27.05.1.08.23.08.39,0,.23-.09.42-.28.56-.19.14-.47.21-.85.21-.19,0-.39-.02-.59-.07Z" style="fill: #fff;"/>
    </g>
  </g>
</svg>