<?xml version="1.0" encoding="UTF-8"?>
<svg id="Layer_2" data-name="Layer 2" xmlns="http://www.w3.org/2000/svg" viewBox="0 0 38.03 14.21">
  <g id="Layer_1-2" data-name="Layer 1">
    <g id="id-sukhothai">
      <path d="M.75,10.1c-.5-.41-.75-1-.75-1.75,0-.5.13-.93.38-1.31.25-.38.61-.67,1.08-.88.46-.21,1.01-.32,1.63-.32.89,0,1.67.15,2.32.46v-.33c0-.57-.17-.99-.5-1.26-.34-.27-.88-.41-1.62-.41-.45,0-.89.05-1.33.14-.44.09-.82.22-1.14.37v-1.37c.29-.14.7-.26,1.22-.36s1.03-.15,1.52-.15c.75,0,1.39.12,1.93.34l.61-.69h1.93l-1.42,1.63c.36.4.54.98.54,1.71v4.59h-1.74v-2.84c-.62-.31-1.32-.47-2.11-.47-.52,0-.9.1-1.15.3s-.38.48-.38.86c0,.34.11.59.34.75.23.16.59.24,1.09.24.31,0,.58-.05.81-.14v1.34c-.34.11-.77.17-1.28.17-.82,0-1.48-.21-1.98-.62Z" style="fill: #fff;"/>
      <path d="M5.95,12.79c0-.17-.03-.28-.08-.35-.05-.06-.17-.1-.33-.1h-.48v-1.12h1.28c.46,0,.77.08.94.26.17.17.25.48.25.93v1.79h-1.57v-1.42Z" style="fill: #fff;"/>
      <path d="M10.16,10.11c-.25-.27-.38-.65-.38-1.14V3.95c0-.66-.12-1.18-.37-1.55-.24-.37-.64-.67-1.18-.89V.14h4.64v1.46h-2.35c.67.49,1.01,1.28,1.01,2.39v4.43c0,.24.05.4.15.5.1.09.27.14.5.14h.48v1.46h-1.41c-.48,0-.84-.14-1.1-.41Z" style="fill: #fff;"/>
      <path d="M15.25,10.37c-.52-.23-.91-.56-1.19-.98-.28-.42-.41-.89-.41-1.43v-.34c0-.32.07-.62.2-.88.13-.27.32-.57.56-.91.16-.22.27-.4.34-.52.07-.13.11-.25.11-.37,0-.28-.17-.41-.51-.41h-.79v-1.38h1.71c.41,0,.74.12.99.35.24.23.37.55.37.95,0,.28-.05.53-.16.76-.11.23-.26.51-.46.84s-.35.6-.46.82c-.1.22-.15.45-.15.7v.35c0,.47.14.83.41,1.08.28.25.69.38,1.24.38,1.08,0,1.61-.51,1.61-1.53V3.13h1.75v4.4c0,.98-.29,1.75-.88,2.33s-1.41.86-2.49.86c-.69,0-1.29-.12-1.81-.35Z" style="fill: #fff;"/>
      <path d="M22.08,3.13h1.68v.91c.35-.37.76-.65,1.22-.83.46-.19.93-.28,1.4-.28.91,0,1.61.26,2.08.77.48.51.72,1.17.72,1.97v4.86h-1.75v-4.77c0-.97-.52-1.45-1.55-1.45-.89,0-1.58.38-2.06,1.13v5.09h-1.75V3.13Z" style="fill: #fff;"/>
      <path d="M25.45,1.79c-.2-.22-.3-.55-.3-.99v-.8h1.57v.63c0,.15.03.25.08.3.06.05.16.08.3.08h3.28v1.12h-4c-.43,0-.75-.11-.95-.33Z" style="fill: #fff;"/>
      <path d="M31.56,10.09c-.66-.42-.99-1.02-.99-1.79,0-.38.11-.72.33-1.02.22-.3.51-.52.86-.63-.33-.16-.6-.38-.81-.68s-.31-.63-.31-.99c0-.62.21-1.11.63-1.48.42-.37,1.05-.56,1.88-.56.26,0,.51.02.75.05s.43.07.57.12v1.37c-.12-.06-.27-.1-.46-.12-.19-.03-.36-.04-.5-.04-.71,0-1.06.26-1.06.79,0,.29.09.5.26.63s.46.21.84.21h.92v1.42h-.92c-.78,0-1.17.32-1.17.95,0,.33.16.59.49.78.33.19.77.28,1.34.28.72,0,1.24-.15,1.58-.44s.5-.73.5-1.3V3.12h1.75v4.47c0,.52-.13,1.02-.38,1.5-.25.47-.67.86-1.24,1.17-.58.31-1.31.46-2.21.46-1.09,0-1.97-.21-2.64-.63Z" style="fill: #fff;"/>
    </g>
  </g>
</svg>