<?xml version="1.0" encoding="UTF-8"?>
<svg id="Layer_2" data-name="Layer 2" xmlns="http://www.w3.org/2000/svg" viewBox="0 0 26.65 11.1">
  <g id="Layer_1-2" data-name="Layer 1">
    <g id="id-saraburi">
      <path d="M.55,8.02c-.37-.31-.55-.76-.55-1.33s.21-1.02.62-1.36.97-.51,1.67-.51,1.32.13,1.88.39v-.43c0-.48-.13-.84-.4-1.06s-.7-.33-1.31-.33c-.34,0-.67.03-.99.09-.32.06-.6.15-.84.26v-.84c.22-.11.51-.19.89-.26s.74-.11,1.1-.11c.63,0,1.16.12,1.58.35l.54-.61h1.19l-1.06,1.19c.25.36.38.79.38,1.3v3.57h-1.08v-2.27c-.51-.26-1.1-.39-1.76-.39-.46,0-.79.08-1.01.25-.21.17-.32.42-.32.76,0,.64.41.96,1.23.96.25,0,.47-.04.66-.11v.83c-.25.08-.56.12-.93.12-.63,0-1.12-.16-1.49-.47Z" style="fill: #fff;"/>
      <path d="M7.53,8.35c-.4-.09-.71-.22-.94-.38v-.86c.3.18.63.32,1,.42.36.09.71.14,1.04.14.46,0,.8-.05,1-.16.2-.11.31-.3.31-.56,0-.18-.05-.33-.15-.44-.1-.11-.25-.21-.45-.29-.2-.08-.52-.19-.94-.32-.62-.19-1.08-.41-1.38-.67-.3-.26-.45-.61-.45-1.07,0-.52.2-.92.6-1.2.4-.28.95-.42,1.64-.42.36,0,.7.04,1.04.12.33.08.61.19.83.32v.89c-.24-.15-.51-.26-.82-.35s-.62-.13-.95-.13c-.84,0-1.26.25-1.26.76,0,.19.06.34.17.45.12.11.27.21.46.28.19.07.52.18.97.31.45.13.8.28,1.05.43.25.15.43.34.54.55s.16.47.16.78c0,.46-.19.84-.57,1.12-.38.28-.95.42-1.72.42-.39,0-.78-.04-1.18-.13Z" style="fill: #fff;"/>
      <path d="M12.13,4.69c-.13-.14-.19-.35-.19-.64v-.6h.97v.4c0,.11.02.19.07.24.05.05.14.07.26.07h1.23v.75h-1.7c-.31,0-.53-.07-.65-.21ZM12.13,7.57c-.13-.14-.19-.35-.19-.64v-.6h.97v.4c0,.11.02.19.07.24.05.05.14.07.26.07h1.23v.75h-1.7c-.31,0-.53-.07-.65-.21Z" style="fill: #fff;"/>
      <path d="M16.92,8.19c-.41-.2-.72-.47-.94-.83-.22-.35-.33-.76-.33-1.22v-3.46h1.07v3.44c0,.47.14.84.42,1.11.28.27.68.41,1.22.41s.93-.14,1.21-.41.42-.64.42-1.11v-3.44h1.08v3.46c0,.46-.11.86-.33,1.22-.22.35-.54.63-.94.83-.41.2-.88.3-1.42.3s-1.03-.1-1.43-.3Z" style="fill: #fff;"/>
      <path d="M20.07,10.02c0-.13-.02-.21-.07-.26-.05-.05-.14-.07-.27-.07h-.35v-.77h.86c.32,0,.53.06.64.19.11.13.16.35.16.67v1.31h-.98v-1.08Z" style="fill: #fff;"/>
      <path d="M23.18,8.35c-.4-.09-.71-.22-.94-.38v-.86c.3.18.63.32,1,.42.36.09.71.14,1.04.14.46,0,.8-.05,1-.16.2-.11.31-.3.31-.56,0-.18-.05-.33-.15-.44-.1-.11-.25-.21-.45-.29-.2-.08-.52-.19-.94-.32-.62-.19-1.08-.41-1.38-.67-.3-.26-.45-.61-.45-1.07,0-.52.2-.92.6-1.2.4-.28.95-.42,1.64-.42.36,0,.7.04,1.04.12.33.08.61.19.83.32v.89c-.24-.15-.51-.26-.82-.35s-.62-.13-.95-.13c-.84,0-1.26.25-1.26.76,0,.19.06.34.17.45.12.11.27.21.46.28.19.07.52.18.97.31.45.13.8.28,1.05.43.25.15.43.34.54.55s.16.47.16.78c0,.46-.19.84-.57,1.12-.38.28-.95.42-1.72.42-.39,0-.78-.04-1.18-.13Z" style="fill: #fff;"/>
      <path d="M21.87,1.13h3.57V0h.98v1.85h-4.55v-.73Z" style="fill: #fff;"/>
    </g>
  </g>
</svg>