<?xml version="1.0" encoding="UTF-8"?>
<svg id="Layer_2" data-name="Layer 2" xmlns="http://www.w3.org/2000/svg" viewBox="0 0 14.85 5.36">
  <g id="Layer_1-2" data-name="Layer 1">
    <g id="id-sing-buri">
      <path d="M.27,3.87c-.18-.15-.27-.37-.27-.64s.1-.49.3-.66c.2-.16.47-.24.81-.24s.64.06.91.19v-.21c0-.23-.06-.4-.19-.51s-.34-.16-.63-.16c-.16,0-.32.02-.48.05-.16.03-.29.07-.41.13v-.41c.11-.05.25-.09.43-.13.18-.03.36-.05.53-.05.31,0,.56.06.76.17l.26-.3h.58l-.51.58c.12.17.18.38.18.63v1.73h-.52v-1.09c-.25-.13-.53-.19-.85-.19-.22,0-.38.04-.49.12s-.16.2-.16.37c0,.31.2.46.6.46.12,0,.23-.02.32-.05v.4c-.12.04-.27.06-.45.06-.3,0-.54-.08-.72-.23Z" style="fill: #fff;"/>
      <path d="M.4.54h2.2v.35H.4v-.35Z" style="fill: #fff;"/>
      <path d="M3.17,1.64h.52l.65,1.98c.32,0,.57-.09.74-.27.17-.18.26-.43.26-.75s-.06-.56-.18-.72c-.12-.16-.31-.24-.57-.24-.12,0-.24.02-.36.05v-.4c.14-.04.28-.06.44-.06.39,0,.68.12.89.37.2.24.31.58.31,1.01,0,.3-.06.55-.19.76-.13.21-.3.38-.52.49-.22.11-.46.17-.72.17h-.49l-.77-2.38Z" style="fill: #fff;"/>
      <path d="M6.42,1.3h.52v1.2l1.32-1.2h.61l-.74.68c.28.07.47.19.58.34s.17.37.17.63v1.08h-.52v-1.05c0-.2-.04-.36-.12-.46-.08-.11-.23-.18-.43-.22l-.86.78v.96h-.52V1.3Z" style="fill: #fff;"/>
      <path d="M7.65.61c0-.26.14-.4.43-.4h1.12v.34h-.92c-.06,0-.1.01-.13.04-.02.02-.04.07-.04.13v.18h-.47v-.29Z" style="fill: #fff;"/>
      <path d="M10.15,3.96c-.2-.09-.35-.23-.46-.4-.11-.17-.16-.37-.16-.59v-1.67h.52v1.66c0,.23.07.41.2.54.13.13.33.2.59.2s.45-.07.58-.2c.13-.13.2-.31.2-.54v-1.66h.52v1.67c0,.22-.05.42-.16.59-.11.17-.26.3-.46.4-.2.1-.43.14-.69.14s-.5-.05-.69-.14Z" style="fill: #fff;"/>
      <path d="M11.67,4.84c0-.06-.01-.1-.03-.12-.02-.02-.07-.03-.13-.03h-.17v-.37h.42c.15,0,.25.03.31.09s.08.17.08.33v.63h-.47v-.52Z" style="fill: #fff;"/>
      <path d="M13.17,4.04c-.19-.04-.34-.1-.45-.19v-.42c.15.09.31.16.48.2s.34.07.5.07c.22,0,.38-.03.48-.08.1-.05.15-.14.15-.27,0-.09-.02-.16-.07-.21-.05-.05-.12-.1-.22-.14-.1-.04-.25-.09-.46-.15-.3-.09-.52-.2-.67-.32-.15-.12-.22-.3-.22-.52,0-.25.1-.44.29-.58s.46-.2.79-.2c.17,0,.34.02.5.06s.29.09.4.16v.43c-.12-.07-.25-.13-.4-.17-.15-.04-.3-.06-.46-.06-.41,0-.61.12-.61.37,0,.09.03.16.08.22.06.05.13.1.22.13s.25.09.47.15c.22.06.39.13.51.21s.21.16.26.26.08.23.08.38c0,.22-.09.4-.28.54-.18.14-.46.2-.83.2-.19,0-.38-.02-.57-.06Z" style="fill: #fff;"/>
      <path d="M12.54.54h1.73v-.54h.47v.9h-2.2v-.35Z" style="fill: #fff;"/>
    </g>
  </g>
</svg>