<?xml version="1.0" encoding="UTF-8"?>
<svg id="Layer_2" data-name="Layer 2" xmlns="http://www.w3.org/2000/svg" viewBox="0 0 19.84 9.36">
  <g id="Layer_1-2" data-name="Layer 1">
    <g id="id-satun">
      <path d="M.58,6.03c-.39-.33-.58-.79-.58-1.4s.22-1.07.65-1.43c.43-.35,1.02-.53,1.75-.53s1.39.14,1.97.41v-.45c0-.51-.14-.88-.41-1.11s-.74-.35-1.38-.35c-.35,0-.7.03-1.04.1s-.63.16-.88.28v-.88c.23-.11.54-.2.93-.28s.78-.11,1.16-.11c.66,0,1.22.12,1.66.36l.56-.64h1.25l-1.12,1.25c.27.38.4.83.4,1.36v3.75h-1.13v-2.38c-.54-.27-1.15-.41-1.85-.41-.48,0-.83.09-1.06.27-.22.18-.34.44-.34.8,0,.67.43,1.01,1.29,1.01.27,0,.5-.04.7-.11v.87c-.27.08-.59.12-.97.12-.66,0-1.18-.16-1.57-.49Z" style="fill: #fff;"/>
      <path d="M7.64,5.77c-.51-.5-.76-1.24-.76-2.21,0-.67.09-1.25.28-1.75.18-.49.44-.87.76-1.14.32-.26.69-.4,1.1-.4.56,0,.95.22,1.18.67.13-.23.31-.4.56-.51.25-.11.53-.17.84-.17.51,0,.89.16,1.14.49.25.32.38.76.38,1.3v4.29h-1.13V2.15c0-.33-.05-.58-.16-.74-.1-.16-.28-.24-.53-.24-.42,0-.68.23-.79.69h-.66c-.04-.23-.11-.4-.22-.51-.11-.11-.26-.17-.46-.17-.35,0-.63.21-.85.62-.22.41-.33,1-.33,1.77,0,.71.16,1.23.46,1.57s.79.51,1.43.51c.28,0,.54-.04.77-.11v.87c-.26.08-.58.12-.96.12-.88,0-1.58-.25-2.08-.75Z" style="fill: #fff;"/>
      <path d="M10.69,9.07c-.25-.19-.38-.45-.38-.77v-.3c0-.1-.01-.17-.04-.2-.03-.03-.09-.05-.19-.05h-.38v-.75h.97c.2,0,.34.04.41.13.07.09.11.23.11.43v.63c0,.32.18.49.53.49s.52-.16.52-.49v-1.19h.88v1.27c0,.32-.12.59-.36.79-.24.2-.58.3-1.01.3-.46,0-.81-.1-1.07-.29Z" style="fill: #fff;"/>
      <path d="M14.93,6.03c-.39-.33-.58-.79-.58-1.4s.22-1.07.65-1.43c.43-.35,1.02-.53,1.75-.53s1.39.14,1.97.41v-.45c0-.51-.14-.88-.41-1.11s-.74-.35-1.38-.35c-.35,0-.7.03-1.04.1s-.63.16-.88.28v-.88c.23-.11.54-.2.93-.28s.78-.11,1.16-.11c.92,0,1.61.21,2.07.63.46.42.69.99.69,1.7v3.75h-1.13v-2.38c-.54-.27-1.15-.41-1.85-.41-.48,0-.83.09-1.06.27-.22.18-.34.44-.34.8,0,.67.43,1.01,1.29,1.01.27,0,.5-.04.7-.11v.87c-.27.08-.59.12-.97.12-.66,0-1.18-.16-1.57-.49Z" style="fill: #fff;"/>
    </g>
  </g>
</svg>