<?xml version="1.0" encoding="UTF-8"?>
<svg id="Layer_2" data-name="Layer 2" xmlns="http://www.w3.org/2000/svg" viewBox="0 0 52.29 12.89">
  <g id="Layer_1-2" data-name="Layer 1">
    <g id="id-sa-kaeo">
      <g>
        <path d="M.88,12.16c-.59-.49-.88-1.17-.88-2.06,0-.58.15-1.1.45-1.54.3-.44.72-.79,1.26-1.04.55-.25,1.19-.37,1.92-.37,1.05,0,1.96.18,2.72.54v-.39c0-.67-.2-1.16-.59-1.48-.39-.32-1.03-.48-1.91-.48-.53,0-1.05.05-1.57.16s-.96.25-1.34.44v-1.61c.35-.16.82-.3,1.44-.42.61-.12,1.21-.18,1.79-.18.88,0,1.63.14,2.27.41l.71-.81h2.27l-1.67,1.91c.42.48.63,1.15.63,2.01v5.4h-2.04v-3.34c-.72-.37-1.55-.55-2.48-.55-.61,0-1.06.12-1.35.35-.3.23-.45.57-.45,1.01,0,.4.13.69.41.88s.7.28,1.28.28c.37,0,.69-.05.96-.16v1.57c-.4.13-.9.19-1.51.19-.96,0-1.74-.24-2.33-.73Z" style="fill: #fff;"/>
        <path d="M11.96,12.7c-.63-.13-1.13-.32-1.48-.58v-1.61c.48.28,1,.49,1.58.63.58.14,1.11.21,1.6.21.65,0,1.12-.06,1.4-.19.29-.13.43-.37.43-.73,0-.25-.08-.45-.23-.59s-.36-.27-.62-.36c-.26-.1-.75-.25-1.46-.47-.93-.29-1.62-.64-2.08-1.05-.46-.41-.69-.97-.69-1.67,0-.81.32-1.44.97-1.88.65-.44,1.52-.67,2.63-.67.58,0,1.14.06,1.68.19.54.12.98.29,1.32.49v1.69c-.36-.23-.79-.41-1.29-.55-.5-.14-1.01-.21-1.52-.21-1.16,0-1.74.31-1.74.94,0,.23.07.41.21.55.14.14.33.26.57.35.24.09.6.21,1.09.37l.54.16c.69.22,1.23.45,1.61.7.38.25.65.54.81.86.16.32.24.72.24,1.2,0,.72-.31,1.31-.92,1.76-.62.45-1.54.67-2.77.67-.62,0-1.24-.06-1.87-.19Z" style="fill: #fff;"/>
        <path d="M19.15,7.12c-.21-.24-.32-.61-.32-1.1v-1.04h1.85v.67c0,.16.04.28.11.34s.19.1.37.1h1.91v1.4h-2.82c-.52,0-.88-.12-1.09-.36ZM19.15,11.51c-.21-.24-.32-.61-.32-1.1v-1.04h1.85v.67c0,.16.04.28.11.34s.19.1.37.1h1.91v1.4h-2.82c-.52,0-.88-.12-1.09-.36Z" style="fill: #fff;"/>
        <path d="M25.13,12.17c-.3-.32-.45-.76-.45-1.34V3.97h2.06v6.21c0,.28.06.48.18.58.12.11.31.16.58.16h.57v1.72h-1.65c-.56,0-.99-.16-1.29-.48ZM29.49,12.17c-.3-.32-.45-.76-.45-1.34V3.97h2.06v6.21c0,.28.06.48.18.58.12.11.31.16.58.16h.57v1.72h-1.65c-.56,0-.99-.16-1.29-.48Z" style="fill: #fff;"/>
        <path d="M34.54,7.36l-.81-1.35c.59-.75,1.28-1.31,2.05-1.7.77-.39,1.67-.58,2.68-.58,1.35,0,2.39.3,3.11.91.72.61,1.08,1.44,1.08,2.51v5.5h-2.06v-5.34c0-.67-.18-1.17-.54-1.49s-.89-.49-1.59-.49c-.53,0-1,.08-1.4.23s-.78.4-1.13.75l.67,1.07v5.27h-2.06v-5.29Z" style="fill: #fff;"/>
        <path d="M38.95,1.77c0-.12-.02-.21-.07-.26-.05-.05-.14-.08-.27-.08h-.75V0h1.38c.37,0,.64.09.81.27.17.18.26.4.26.66v.52h3.33v1.35h-4.69v-1.02Z" style="fill: #fff;"/>
        <path d="M44.27,12.2v-1.62c.67.48,1.61.71,2.81.71.98,0,1.75-.25,2.29-.74.54-.49.81-1.24.81-2.23s-.27-1.74-.81-2.24c-.54-.5-1.3-.75-2.29-.75-1.13,0-2.05.24-2.76.71v-1.62c.75-.46,1.81-.7,3.18-.7,1.49,0,2.66.4,3.51,1.21.85.81,1.27,1.93,1.27,3.38s-.43,2.56-1.28,3.37-2.02,1.21-3.5,1.21-2.49-.23-3.23-.7Z" style="fill: #fff;"/>
      </g>
    </g>
  </g>
</svg>