<?xml version="1.0" encoding="UTF-8"?>
<svg id="Layer_2" data-name="Layer 2" xmlns="http://www.w3.org/2000/svg" viewBox="0 0 36.34 12.79">
  <g id="Layer_1-2" data-name="Layer 1">
    <g id="id-surin">
      <path d="M.68,9.08c-.45-.37-.68-.9-.68-1.59,0-.45.11-.84.34-1.19.23-.34.55-.61.97-.8.42-.19.91-.29,1.48-.29.81,0,1.51.14,2.1.41v-.3c0-.52-.15-.9-.46-1.14-.3-.25-.79-.37-1.47-.37-.41,0-.81.04-1.21.12-.4.08-.74.2-1.03.34v-1.24c.27-.12.63-.23,1.11-.32.47-.09.93-.14,1.38-.14.67,0,1.26.1,1.75.31l.55-.62h1.75l-1.29,1.47c.32.37.49.88.49,1.55v4.16h-1.57v-2.57c-.56-.28-1.19-.42-1.91-.42-.47,0-.81.09-1.04.27-.23.18-.34.44-.34.78,0,.31.1.53.31.68.21.15.54.22.99.22.28,0,.53-.04.74-.12v1.21c-.31.1-.7.15-1.16.15-.74,0-1.34-.19-1.79-.56Z" style="fill: #fff;"/>
      <path d="M5.38,11.51c0-.15-.02-.25-.07-.31-.05-.06-.15-.09-.3-.09h-.44v-1.01h1.16c.42,0,.7.08.85.23.15.15.22.44.22.84v1.62h-1.42v-1.29Z" style="fill: #fff;"/>
      <path d="M9.21,9.49c-.49-.1-.87-.25-1.14-.45v-1.24c.37.22.77.38,1.22.49.44.11.85.16,1.23.16.5,0,.86-.05,1.08-.15.22-.1.33-.29.33-.56,0-.19-.06-.34-.17-.46-.12-.11-.27-.21-.47-.28-.2-.07-.57-.2-1.12-.36-.72-.22-1.25-.5-1.6-.81-.35-.32-.53-.74-.53-1.29,0-.62.25-1.11.75-1.45.5-.34,1.17-.51,2.02-.51.45,0,.88.05,1.29.14.41.1.75.22,1.02.38v1.3c-.27-.17-.61-.32-.99-.42-.39-.11-.78-.16-1.17-.16-.89,0-1.33.24-1.33.72,0,.17.05.32.16.42.11.11.25.2.44.27.18.07.46.16.84.28l.41.12c.53.17.95.35,1.24.54.3.19.5.41.62.66.12.25.18.56.18.92,0,.56-.24,1.01-.71,1.35s-1.19.52-2.13.52c-.47,0-.95-.05-1.44-.15Z" style="fill: #fff;"/>
      <path d="M7.66.85h5.58v1.01h-5.58V.85Z" style="fill: #fff;"/>
      <path d="M15.94,9.31c-.39-.22-.69-.52-.89-.91-.2-.39-.31-.82-.31-1.29V2.77h1.58v4.26c0,.92.49,1.37,1.46,1.37.77,0,1.36-.34,1.8-1.02V2.77h1.58v6.68h-1.52v-.82c-.32.33-.68.58-1.08.75-.4.17-.81.26-1.23.26-.54,0-1.01-.11-1.4-.33Z" style="fill: #fff;"/>
      <path d="M22.67,2.77h1.52v.82c.32-.33.68-.58,1.11-.76.42-.17.84-.26,1.27-.26.82,0,1.45.23,1.88.69s.65,1.05.65,1.78v4.39h-1.58v-4.32c0-.87-.47-1.31-1.4-1.31-.81,0-1.43.34-1.86,1.02v4.61h-1.58V2.77Z" style="fill: #fff;"/>
      <path d="M31.54,9.49c-.49-.1-.87-.25-1.14-.45v-1.24c.37.22.77.38,1.22.49.44.11.85.16,1.23.16.5,0,.86-.05,1.08-.15.22-.1.33-.29.33-.56,0-.19-.06-.34-.17-.46-.12-.11-.27-.21-.47-.28-.2-.07-.57-.2-1.12-.36-.72-.22-1.25-.5-1.6-.81-.35-.32-.53-.74-.53-1.29,0-.62.25-1.11.75-1.45.5-.34,1.17-.51,2.02-.51.45,0,.88.05,1.29.14.41.1.75.22,1.02.38v1.3c-.27-.17-.61-.32-.99-.42-.39-.11-.78-.16-1.17-.16-.89,0-1.33.24-1.33.72,0,.17.05.32.16.42.11.11.25.2.44.27.18.07.46.16.84.28l.41.12c.53.17.95.35,1.24.54.3.19.5.41.62.66.12.25.18.56.18.92,0,.56-.24,1.01-.71,1.35s-1.19.52-2.13.52c-.47,0-.95-.05-1.44-.15Z" style="fill: #fff;"/>
      <path d="M32.42,1.06c0-.35.09-.61.27-.79.18-.18.48-.27.89-.27h2.76v1.01h-2.12c-.14,0-.24.03-.29.09-.05.06-.08.16-.08.3v.46h-1.42v-.8Z" style="fill: #fff;"/>
    </g>
  </g>
</svg>