<?xml version="1.0" encoding="UTF-8"?>
<svg id="Layer_2" data-name="Layer 2" xmlns="http://www.w3.org/2000/svg" viewBox="0 0 28.38 6.67">
  <g id="Layer_1-2" data-name="Layer 1">
    <g id="id-suphan-buri">
      <path d="M.33,4.82c-.22-.19-.33-.45-.33-.8s.12-.61.37-.82.58-.3,1-.3.79.08,1.13.23v-.26c0-.29-.08-.5-.24-.64-.16-.13-.42-.2-.79-.2-.2,0-.4.02-.6.06-.19.04-.36.09-.51.16v-.51c.13-.06.31-.12.54-.16.23-.04.45-.06.66-.06.38,0,.7.07.95.21l.32-.37h.72l-.64.72c.15.22.23.48.23.78v2.15h-.65v-1.36c-.31-.16-.66-.23-1.06-.23-.27,0-.48.05-.6.15-.13.1-.19.25-.19.46,0,.38.25.58.74.58.15,0,.29-.02.4-.06v.5c-.15.05-.34.07-.56.07-.38,0-.67-.09-.9-.28Z" style="fill: #fff;"/>
      <path d="M2.65,6.02c0-.08-.01-.13-.04-.16s-.08-.04-.16-.04h-.21v-.46h.52c.19,0,.32.04.38.11.07.08.1.21.1.41v.79h-.59v-.65Z" style="fill: #fff;"/>
      <path d="M3.88,1.61h.65l.61,2.48.74-2.48h.49l.73,2.48.62-2.48h.65l-.94,3.39h-.54l-.75-2.55-.76,2.55h-.54l-.94-3.39Z" style="fill: #fff;"/>
      <path d="M9.45,5.02c-.24-.05-.43-.13-.56-.23v-.52c.18.11.38.19.6.25s.42.09.62.09c.28,0,.48-.03.6-.1.12-.07.18-.18.18-.34,0-.11-.03-.2-.09-.27-.06-.07-.15-.13-.27-.18-.12-.05-.31-.11-.57-.19-.37-.11-.65-.25-.83-.4-.18-.15-.27-.37-.27-.64,0-.31.12-.55.36-.72.24-.17.57-.25.99-.25.21,0,.42.02.62.07.2.05.37.11.5.19v.53c-.14-.09-.31-.16-.49-.21-.19-.05-.38-.08-.57-.08-.51,0-.76.15-.76.46,0,.11.04.21.1.27.07.07.16.12.28.17.12.04.31.11.58.19.27.08.48.17.63.26.15.09.26.2.32.33.06.13.1.28.1.47,0,.28-.11.5-.34.67-.23.17-.57.25-1.03.25-.23,0-.47-.03-.71-.08Z" style="fill: #fff;"/>
      <path d="M12.68,5.02c-.24-.05-.43-.13-.56-.23v-.52c.18.11.38.19.6.25s.42.09.62.09c.28,0,.48-.03.6-.1.12-.07.18-.18.18-.34,0-.11-.03-.2-.09-.27-.06-.07-.15-.13-.27-.18-.12-.05-.31-.11-.57-.19-.37-.11-.65-.25-.83-.4-.18-.15-.27-.37-.27-.64,0-.31.12-.55.36-.72.24-.17.57-.25.99-.25.21,0,.42.02.62.07.2.05.37.11.5.19v.53c-.14-.09-.31-.16-.49-.21-.19-.05-.38-.08-.57-.08-.51,0-.76.15-.76.46,0,.11.04.21.1.27.07.07.16.12.28.17.12.04.31.11.58.19.27.08.48.17.63.26.15.09.26.2.32.33.06.13.1.28.1.47,0,.28-.11.5-.34.67-.23.17-.57.25-1.03.25-.23,0-.47-.03-.71-.08Z" style="fill: #fff;"/>
      <path d="M18.25,4.75c-.22-.23-.33-.53-.33-.9v-.97c0-.29-.07-.51-.21-.64s-.36-.21-.65-.21c-.22,0-.41.03-.57.1-.16.07-.32.18-.46.34l.27.42v1.08c0,.19.02.33.06.39.04.07.12.1.26.1h.35v.54h-.67c-.21,0-.37-.06-.48-.18-.11-.12-.17-.28-.17-.49v-1.44l-.32-.51c.22-.28.47-.5.75-.64.27-.15.6-.22.98-.22.49,0,.86.12,1.12.35s.38.55.38.97v.99c0,.51.26.77.78.77.2,0,.39-.05.55-.15s.3-.24.41-.44V1.61h.65v3.39h-.62v-.44c-.28.36-.67.54-1.16.54-.39,0-.7-.12-.92-.35Z" style="fill: #fff;"/>
      <path d="M22.54,4.92c-.25-.12-.43-.28-.57-.5-.13-.21-.2-.46-.2-.73V1.61h.65v2.06c0,.28.08.51.25.67s.41.24.73.24.56-.08.72-.24c.17-.16.25-.39.25-.67V1.61h.65v2.08c0,.27-.07.52-.2.73-.13.21-.32.38-.57.5-.24.12-.53.18-.85.18s-.62-.06-.86-.18Z" style="fill: #fff;"/>
      <path d="M24.43,6.02c0-.08-.01-.13-.04-.16s-.08-.04-.16-.04h-.21v-.46h.52c.19,0,.32.04.38.11.07.08.1.21.1.41v.79h-.59v-.65Z" style="fill: #fff;"/>
      <path d="M26.3,5.02c-.24-.05-.43-.13-.56-.23v-.52c.18.11.38.19.6.25s.42.09.62.09c.28,0,.48-.03.6-.1.12-.07.18-.18.18-.34,0-.11-.03-.2-.09-.27-.06-.07-.15-.13-.27-.18-.12-.05-.31-.11-.57-.19-.37-.11-.65-.25-.83-.4-.18-.15-.27-.37-.27-.64,0-.31.12-.55.36-.72.24-.17.57-.25.99-.25.21,0,.42.02.62.07.2.05.37.11.5.19v.53c-.14-.09-.31-.16-.49-.21-.19-.05-.38-.08-.57-.08-.51,0-.76.15-.76.46,0,.11.04.21.1.27.07.07.16.12.28.17.12.04.31.11.58.19.27.08.48.17.63.26.15.09.26.2.32.33.06.13.1.28.1.47,0,.28-.11.5-.34.67-.23.17-.57.25-1.03.25-.23,0-.47-.03-.71-.08Z" style="fill: #fff;"/>
      <path d="M25.51.68h2.15v-.68h.59v1.11h-2.74v-.44Z" style="fill: #fff;"/>
    </g>
  </g>
</svg>