<?xml version="1.0" encoding="UTF-8"?>
<svg id="Layer_2" data-name="Layer 2" xmlns="http://www.w3.org/2000/svg" viewBox="0 0 27.42 4.92">
  <g id="Layer_1-2" data-name="Layer 1">
    <g id="id-samut-prakan">
      <path d="M.26,3.45c-.18-.15-.26-.36-.26-.64s.1-.49.29-.65c.2-.16.46-.24.8-.24s.63.06.9.19v-.21c0-.23-.06-.4-.19-.51-.13-.11-.33-.16-.63-.16-.16,0-.32.02-.47.05s-.29.07-.4.13v-.4c.1-.05.25-.09.43-.13s.36-.05.53-.05c.3,0,.55.06.76.17l.26-.29h.57l-.51.57c.12.17.18.38.18.62v1.71h-.51v-1.08c-.25-.12-.53-.19-.84-.19-.22,0-.38.04-.48.12s-.15.2-.15.36c0,.31.2.46.59.46.12,0,.23-.02.32-.05v.4c-.12.04-.27.06-.44.06-.3,0-.54-.07-.71-.22Z" style="fill: #fff;"/>
      <path d="M4.17,3.56c-.17-.07-.31-.18-.45-.33v.36h-.49V.9h.51v1.9c.2.31.47.46.82.46.22,0,.38-.05.5-.15s.17-.25.17-.46V.9h.51v1.78c0,.29-.09.53-.28.72-.19.19-.44.28-.77.28-.18,0-.36-.04-.53-.11Z" style="fill: #fff;"/>
      <path d="M5.27,4.41c0-.06-.01-.1-.03-.12-.02-.02-.06-.03-.13-.03h-.17v-.37h.41c.15,0,.25.03.3.09.05.06.08.17.08.32v.62h-.47v-.51Z" style="fill: #fff;"/>
      <path d="M6.4.9h.49v.36c.13-.15.28-.26.46-.33.18-.07.36-.11.54-.11.33,0,.58.09.76.27.17.18.26.41.26.7v1.8h-.51v-1.77c0-.19-.05-.33-.16-.44-.1-.1-.27-.15-.48-.15-.37,0-.65.15-.84.46v1.9h-.51V.9Z" style="fill: #fff;"/>
      <path d="M9.92,3.61c-.19-.04-.34-.1-.45-.18v-.41c.14.09.3.15.48.2s.34.07.5.07c.22,0,.38-.03.48-.08.1-.05.15-.14.15-.27,0-.09-.02-.16-.07-.21-.05-.05-.12-.1-.21-.14-.1-.04-.25-.09-.45-.15-.3-.09-.52-.2-.66-.32s-.22-.29-.22-.51c0-.25.1-.44.29-.57s.45-.2.79-.2c.17,0,.34.02.5.06s.29.09.4.15v.42c-.11-.07-.25-.13-.39-.17-.15-.04-.3-.06-.45-.06-.4,0-.6.12-.6.36,0,.09.03.16.08.22.06.05.13.1.22.13.09.04.25.08.47.15.21.06.38.13.5.21.12.07.21.16.26.26.05.1.08.23.08.37,0,.22-.09.4-.27.53-.18.13-.46.2-.82.2-.18,0-.37-.02-.56-.06Z" style="fill: #fff;"/>
      <path d="M12.75,3.53c-.19-.09-.34-.23-.45-.4-.11-.17-.16-.36-.16-.58V.9h.51v1.64c0,.23.07.4.2.53s.33.19.58.19.44-.06.58-.19.2-.31.2-.53V0h.51v2.55c0,.22-.05.41-.16.58-.11.17-.26.3-.45.4-.19.09-.42.14-.68.14s-.49-.05-.69-.14Z" style="fill: #fff;"/>
      <path d="M15.74,3.61c-.19-.04-.34-.1-.45-.18v-.41c.14.09.3.15.48.2s.34.07.5.07c.22,0,.38-.03.48-.08.1-.05.15-.14.15-.27,0-.09-.02-.16-.07-.21-.05-.05-.12-.1-.21-.14-.1-.04-.25-.09-.45-.15-.3-.09-.52-.2-.66-.32s-.22-.29-.22-.51c0-.25.1-.44.29-.57s.45-.2.79-.2c.17,0,.34.02.5.06s.29.09.4.15v.42c-.11-.07-.25-.13-.39-.17-.15-.04-.3-.06-.45-.06-.4,0-.6.12-.6.36,0,.09.03.16.08.22.06.05.13.1.22.13.09.04.25.08.47.15.21.06.38.13.5.21.12.07.21.16.26.26.05.1.08.23.08.37,0,.22-.09.4-.27.53-.18.13-.46.2-.82.2-.18,0-.37-.02-.56-.06Z" style="fill: #fff;"/>
      <path d="M18.9,1.85c0-.21-.04-.37-.13-.47s-.24-.15-.46-.15-.42.05-.6.14v-.4c.08-.04.19-.07.32-.1.13-.03.26-.04.38-.04.34,0,.59.09.76.27s.25.45.25.79v1.71h-.51v-1.74Z" style="fill: #fff;"/>
      <path d="M20.22,1.92l-.25-.41c.18-.23.38-.4.61-.51.23-.12.5-.17.81-.17.4,0,.71.09.93.27s.32.44.32.77v1.73h-.51v-1.69c0-.23-.06-.4-.18-.51-.12-.11-.31-.16-.55-.16-.18,0-.35.03-.49.08-.14.06-.27.14-.38.26l.22.34v1.68h-.51v-1.68Z" style="fill: #fff;"/>
      <path d="M24.24,1.85c0-.21-.04-.37-.13-.47s-.24-.15-.46-.15-.42.05-.6.14v-.4c.08-.04.19-.07.32-.1.13-.03.26-.04.38-.04.34,0,.59.09.76.27s.25.45.25.79v1.71h-.51v-1.74Z" style="fill: #fff;"/>
      <path d="M25.77,3.61c-.19-.04-.34-.1-.45-.18v-.41c.14.09.3.15.48.2s.34.07.5.07c.22,0,.38-.03.48-.08.1-.05.15-.14.15-.27,0-.09-.02-.16-.07-.21-.05-.05-.12-.1-.21-.14-.1-.04-.25-.09-.45-.15-.3-.09-.52-.2-.66-.32s-.22-.29-.22-.51c0-.25.1-.44.29-.57s.45-.2.79-.2c.17,0,.34.02.5.06s.29.09.4.15v.42c-.11-.07-.25-.13-.39-.17-.15-.04-.3-.06-.45-.06-.4,0-.6.12-.6.36,0,.09.03.16.08.22.06.05.13.1.22.13.09.04.25.08.47.15.21.06.38.13.5.21.12.07.21.16.26.26.05.1.08.23.08.37,0,.22-.09.4-.27.53-.18.13-.46.2-.82.2-.18,0-.37-.02-.56-.06Z" style="fill: #fff;"/>
    </g>
  </g>
</svg>