<?xml version="1.0" encoding="UTF-8"?>
<svg id="Layer_2" data-name="Layer 2" xmlns="http://www.w3.org/2000/svg" viewBox="0 0 86.72 18.73">
  <g id="Layer_1-2" data-name="Layer 1">
    <g id="id-surat-thani">
      <path d="M.93,13.53c-.62-.53-.93-1.28-.93-2.25s.35-1.73,1.04-2.29c.69-.57,1.63-.85,2.82-.85s2.23.22,3.17.66v-.73c0-.82-.22-1.41-.67-1.79-.44-.37-1.18-.56-2.21-.56-.57,0-1.13.05-1.67.16-.55.11-1.02.26-1.42.45v-1.42c.37-.18.87-.33,1.5-.44.63-.12,1.25-.18,1.86-.18,1.07,0,1.96.2,2.67.59l.91-1.03h2.01l-1.8,2.01c.43.6.64,1.33.64,2.19v6.03h-1.82v-3.83c-.87-.44-1.86-.66-2.97-.66-.77,0-1.34.14-1.7.43-.36.28-.54.71-.54,1.28,0,1.08.69,1.62,2.08,1.62.43,0,.8-.06,1.12-.18v1.41c-.43.13-.95.2-1.57.2-1.06,0-1.89-.26-2.52-.79Z" style="fill: #fff;"/>
      <path d="M7.45,16.92c0-.21-.04-.36-.12-.44-.08-.08-.23-.12-.45-.12h-.59v-1.3h1.46c.53,0,.89.11,1.08.32.18.21.28.59.28,1.14v2.21h-1.65v-1.81Z" style="fill: #fff;"/>
      <path d="M12.7,14.1c-.68-.15-1.2-.37-1.58-.65v-1.46c.51.31,1.07.54,1.68.7.61.16,1.19.24,1.75.24.78,0,1.35-.09,1.69-.28.34-.18.52-.5.52-.95,0-.31-.08-.56-.25-.75-.17-.19-.42-.36-.76-.5s-.87-.32-1.59-.53c-1.04-.32-1.82-.7-2.33-1.13s-.76-1.04-.76-1.81c0-.88.34-1.55,1.01-2.02.68-.47,1.6-.7,2.78-.7.6,0,1.19.07,1.75.2.56.14,1.03.32,1.4.54v1.49c-.4-.25-.87-.44-1.39-.59-.52-.14-1.06-.21-1.6-.21-1.42,0-2.13.43-2.13,1.28,0,.32.1.58.29.76.2.19.46.35.78.47.33.12.87.3,1.65.52.76.23,1.35.47,1.78.73.43.26.73.57.91.93.18.36.27.79.27,1.32,0,.78-.32,1.41-.96,1.89-.64.47-1.61.71-2.9.71-.65,0-1.32-.07-1.99-.22Z" style="fill: #fff;"/>
      <path d="M23.86,7.9c0-.76-.15-1.31-.46-1.66s-.85-.53-1.64-.53-1.47.17-2.13.5v-1.42c.29-.14.66-.26,1.11-.36.46-.1.91-.15,1.36-.15,1.2,0,2.09.32,2.69.97s.89,1.57.89,2.78v6.03h-1.81v-6.16Z" style="fill: #fff;"/>
      <path d="M30.13,13.82c-.69-.33-1.22-.8-1.59-1.4-.37-.6-.56-1.28-.56-2.05v-5.83h1.81v5.8c0,.79.23,1.42.7,1.88.47.46,1.15.68,2.05.68s1.57-.23,2.04-.68c.47-.46.7-1.08.7-1.88v-1.09h-2.26v-1.49h2.26v-3.22h1.81v3.22h1.03v1.49h-1.03v1.12c0,.77-.19,1.46-.56,2.05-.37.6-.91,1.06-1.59,1.4s-1.49.5-2.4.5-1.73-.17-2.42-.5Z" style="fill: #fff;"/>
      <path d="M41.73,16.56c.3-.3.71-.53,1.25-.71.53-.18,1.07-.27,1.62-.27,1.08,0,1.96.23,2.65.69v-8.18c0-.82-.22-1.42-.66-1.81-.44-.38-1.09-.58-1.94-.58-.65,0-1.22.09-1.7.28s-.92.48-1.33.9l1.07,1.23v4.07c0,.58-.16,1.04-.47,1.37-.31.33-.77.5-1.36.5h-1.57v-1.51h.75c.32,0,.54-.06.66-.19.12-.12.18-.36.18-.7v-3.52l-1.25-1.44c.6-.78,1.32-1.38,2.13-1.8.82-.42,1.79-.62,2.9-.62,1.41,0,2.5.32,3.26.97s1.14,1.55,1.14,2.71v10.03h-1.62c-.46-.36-.92-.61-1.36-.76-.44-.15-.94-.22-1.49-.22s-1.06.09-1.57.28c-.51.19-.94.46-1.3.8v-1.53Z" style="fill: #fff;"/>
      <path d="M52.66,14.1c-.68-.15-1.2-.37-1.58-.65v-1.46c.51.31,1.07.54,1.68.7.61.16,1.19.24,1.75.24.78,0,1.35-.09,1.69-.28.34-.18.52-.5.52-.95,0-.31-.08-.56-.25-.75-.17-.19-.42-.36-.76-.5s-.87-.32-1.59-.53c-1.04-.32-1.82-.7-2.33-1.13s-.76-1.04-.76-1.81c0-.88.34-1.55,1.01-2.02.68-.47,1.6-.7,2.78-.7.6,0,1.19.07,1.75.2.56.14,1.03.32,1.4.54v1.49c-.4-.25-.87-.44-1.39-.59-.52-.14-1.06-.21-1.6-.21-1.42,0-2.13.43-2.13,1.28,0,.32.1.58.29.76.2.19.46.35.78.47.33.12.87.3,1.65.52.76.23,1.35.47,1.78.73.43.26.73.57.91.93.18.36.27.79.27,1.32,0,.78-.32,1.41-.96,1.89-.64.47-1.61.71-2.9.71-.65,0-1.32-.07-1.99-.22Z" style="fill: #fff;"/>
      <path d="M53.9,2.12c0-.92.5-1.39,1.51-1.39h3.93v1.19h-3.22c-.21,0-.36.04-.44.12s-.12.23-.12.44v.64h-1.65v-1.01Z" style="fill: #fff;"/>
      <path d="M61.3,13.56c-.77-.5-1.16-1.2-1.16-2.09v-1.19h1.8v1.08c0,.53.22.93.65,1.18s1.02.38,1.75.38,1.3-.12,1.7-.36.6-.6.6-1.08c0-.39-.09-.69-.27-.91-.18-.21-.45-.39-.83-.53-.37-.14-.98-.3-1.82-.51-.81-.19-1.46-.39-1.97-.6-.5-.21-.9-.48-1.2-.83s-.44-.79-.44-1.33c0-.87.38-1.5,1.13-1.91.75-.41,1.73-.61,2.93-.61.69,0,1.38.07,2.06.22.69.15,1.23.34,1.64.56v1.49c-.44-.26-.97-.46-1.6-.61-.63-.15-1.26-.22-1.9-.22-.81,0-1.42.07-1.82.21s-.61.43-.61.87c0,.26.09.47.28.64.19.17.45.31.77.42.32.11.8.25,1.44.42l.64.18c.83.23,1.48.45,1.96.68.47.23.83.53,1.07.91.24.37.36.86.36,1.45,0,.85-.36,1.54-1.07,2.05-.71.52-1.72.77-3.02.77s-2.27-.25-3.04-.76Z" style="fill: #fff;"/>
      <path d="M73.74,7.9c0-.76-.15-1.31-.46-1.66s-.85-.53-1.64-.53-1.47.17-2.13.5v-1.42c.29-.14.66-.26,1.11-.36.46-.1.91-.15,1.36-.15,1.2,0,2.09.32,2.69.97s.89,1.57.89,2.78v6.03h-1.81v-6.16Z" style="fill: #fff;"/>
      <path d="M78.83,13.34c-.65-.65-.97-1.49-.97-2.53v-6.28h1.81v6.21c0,.71.2,1.25.6,1.61.4.36.98.54,1.75.54,1.22,0,2.18-.55,2.88-1.64v-6.72h1.81v9.52h-1.76v-1.28c-.89,1.03-2.03,1.55-3.42,1.55-1.16,0-2.07-.33-2.71-.98Z" style="fill: #fff;"/>
      <path d="M79.02,1.9h6.03V0h1.65v3.13h-7.69v-1.23Z" style="fill: #fff;"/>
    </g>
  </g>
</svg>