<?xml version="1.0" encoding="UTF-8"?>
<svg id="Layer_2" data-name="Layer 2" xmlns="http://www.w3.org/2000/svg" viewBox="0 0 11.63 6.26">
  <g id="Layer_1-2" data-name="Layer 1">
    <g id="id-samut-songkhram">
      <path d="M2.02,1.91c-.12-.1-.18-.25-.18-.44s.07-.34.2-.45c.14-.11.32-.17.55-.17s.44.04.62.13v-.14c0-.16-.04-.28-.13-.35-.09-.07-.23-.11-.43-.11-.11,0-.22.01-.33.03-.11.02-.2.05-.28.09V.21c.07-.04.17-.06.3-.09.12-.02.25-.04.37-.04.21,0,.38.04.52.12l.18-.2h.39l-.35.4c.08.12.13.26.13.43v1.18h-.36v-.75c-.17-.09-.37-.13-.58-.13-.15,0-.26.03-.33.08-.07.06-.11.14-.11.25,0,.21.14.32.41.32.08,0,.16-.01.22-.04v.28c-.08.03-.19.04-.31.04-.21,0-.37-.05-.49-.16Z" style="fill: #fff;"/>
      <path d="M4.73,1.99c-.12-.05-.22-.13-.31-.23v.25h-.34V.14h.36v1.32c.14.21.33.32.57.32.15,0,.27-.04.34-.11.08-.07.12-.18.12-.32V.14h.36v1.23c0,.2-.06.37-.19.5-.13.13-.31.19-.53.19-.13,0-.25-.03-.37-.08Z" style="fill: #fff;"/>
      <path d="M5.49,2.57s0-.07-.02-.09c-.01-.02-.04-.02-.09-.02h-.12v-.25h.29c.11,0,.18.02.21.06s.05.12.05.22v.43h-.32v-.36Z" style="fill: #fff;"/>
      <path d="M6.27.14h.34v.25c.09-.1.2-.18.32-.23.12-.05.25-.08.37-.08.23,0,.4.06.52.19.12.13.18.29.18.49v1.25h-.36V.78c0-.13-.04-.23-.11-.3-.07-.07-.18-.11-.34-.11-.25,0-.45.11-.58.32v1.32h-.36V.14Z" style="fill: #fff;"/>
      <path d="M8.72,2.02c-.13-.03-.24-.07-.31-.13v-.29c.1.06.21.11.33.14.12.03.23.05.34.05.15,0,.26-.02.33-.05.07-.04.1-.1.1-.19,0-.06-.02-.11-.05-.15-.03-.04-.08-.07-.15-.1s-.17-.06-.31-.1c-.21-.06-.36-.14-.46-.22-.1-.08-.15-.2-.15-.35,0-.17.07-.3.2-.4.13-.09.31-.14.54-.14.12,0,.23.01.34.04s.2.06.27.11v.29c-.08-.05-.17-.09-.27-.12s-.21-.04-.31-.04c-.28,0-.42.08-.42.25,0,.06.02.11.06.15.04.04.09.07.15.09.06.02.17.06.32.1.15.04.27.09.35.14.08.05.14.11.18.18s.05.16.05.26c0,.15-.06.28-.19.37-.12.09-.32.14-.57.14-.13,0-.26-.01-.39-.04Z" style="fill: #fff;"/>
      <path d="M.18,6.1c-.12-.1-.18-.25-.18-.44s.07-.34.2-.45c.14-.11.32-.17.55-.17s.44.04.62.13v-.14c0-.16-.04-.28-.13-.35-.09-.07-.23-.11-.43-.11-.11,0-.22.01-.33.03-.11.02-.2.05-.28.09v-.28c.07-.04.17-.06.3-.09.12-.02.25-.04.37-.04.21,0,.38.04.52.12l.18-.2h.39l-.35.4c.08.12.13.26.13.43v1.18h-.36v-.75c-.17-.09-.37-.13-.58-.13-.15,0-.26.03-.33.08-.07.06-.11.14-.11.25,0,.21.14.32.41.32.08,0,.16-.01.22-.04v.28c-.08.03-.19.04-.31.04-.21,0-.37-.05-.49-.16Z" style="fill: #fff;"/>
      <path d="M2.17,4.57h.36l.44,1.36c.22,0,.39-.06.51-.18.12-.12.18-.29.18-.51s-.04-.38-.12-.5c-.08-.11-.21-.17-.39-.17-.08,0-.17.01-.25.03v-.28c.09-.03.2-.04.3-.04.27,0,.47.08.61.25.14.17.21.4.21.7,0,.2-.04.38-.13.52-.09.15-.21.26-.35.34-.15.08-.31.12-.5.12h-.34l-.53-1.64Z" style="fill: #fff;"/>
      <path d="M4.41,5.05c0-.24.08-.43.24-.56s.38-.2.65-.2.49.07.65.2.24.32.24.57v1.16h-.36v-1.17c0-.16-.05-.28-.14-.35s-.22-.12-.39-.12-.3.04-.39.12c-.09.08-.14.2-.14.35v.36c.03-.06.08-.1.14-.13.07-.03.14-.05.23-.05h.28v.29h-.31c-.1,0-.18.03-.25.1-.07.07-.1.15-.1.24v.36h-.36v-1.16Z" style="fill: #fff;"/>
      <path d="M6.89,6.21c-.13-.03-.24-.07-.31-.13v-.29c.1.06.21.11.33.14.12.03.23.05.34.05.15,0,.26-.02.33-.05.07-.04.1-.1.1-.19,0-.06-.02-.11-.05-.15-.03-.04-.08-.07-.15-.1s-.17-.06-.31-.1c-.21-.06-.36-.14-.46-.22-.1-.08-.15-.2-.15-.35,0-.17.07-.3.2-.4.13-.09.31-.14.54-.14.12,0,.23.01.34.04s.2.06.27.11v.29c-.08-.05-.17-.09-.27-.12s-.21-.04-.31-.04c-.28,0-.42.08-.42.25,0,.06.02.11.06.15.04.04.09.07.15.09.06.02.17.06.32.1.15.04.27.09.35.14.08.05.14.11.18.18s.05.16.05.26c0,.15-.06.28-.19.37-.12.09-.32.14-.57.14-.13,0-.26-.01-.39-.04Z" style="fill: #fff;"/>
      <path d="M9.08,4.99c0-.15-.03-.26-.09-.33-.06-.07-.17-.1-.32-.1s-.29.03-.42.1v-.28c.06-.03.13-.05.22-.07.09-.02.18-.03.27-.03.24,0,.41.06.53.19.12.13.17.31.17.55v1.18h-.36v-1.21Z" style="fill: #fff;"/>
      <path d="M10.55,6.18c-.12-.05-.22-.13-.31-.23v.25h-.34v-1.87h.36v1.32c.14.21.33.32.57.32.15,0,.27-.04.34-.11.08-.07.12-.18.12-.32v-1.22h.36v1.23c0,.2-.06.37-.19.5-.13.13-.31.19-.53.19-.13,0-.25-.03-.37-.08Z" style="fill: #fff;"/>
    </g>
  </g>
</svg>