<?xml version="1.0" encoding="UTF-8"?>
<svg id="Layer_2" data-name="Layer 2" xmlns="http://www.w3.org/2000/svg" viewBox="0 0 51.68 11.31">
  <g id="Layer_1-2" data-name="Layer 1">
    <g id="id-si-sa-ket">
      <path d="M0,6.59c0-1,.33-1.78,1-2.33.66-.55,1.56-.82,2.7-.82.64,0,1.2.09,1.67.26l.54-.61h1.95l-1.23,1.41c.49.54.74,1.24.74,2.09v4.51h-1.77v-4.58c0-.57-.17-.99-.5-1.27-.33-.28-.8-.42-1.41-.42s-1.09.14-1.42.42c-.33.28-.5.71-.5,1.28v1.23c.12-.19.3-.35.54-.47.24-.12.51-.18.83-.18h1.13v1.48h-1.25c-.36,0-.66.12-.89.36-.23.24-.35.52-.35.86v1.32H0v-4.51Z" style="fill: #fff;"/>
      <path d="M10.3,11.14c-.54-.11-.97-.28-1.27-.5v-1.38c.41.24.86.42,1.36.54s.95.18,1.37.18c.56,0,.96-.06,1.21-.17.25-.11.37-.32.37-.63,0-.21-.07-.38-.2-.51-.13-.13-.31-.23-.53-.31-.22-.08-.64-.22-1.25-.4-.8-.25-1.4-.55-1.79-.91-.4-.35-.59-.83-.59-1.43,0-.7.28-1.23.83-1.62.56-.38,1.31-.57,2.26-.57.5,0,.98.05,1.44.16.46.11.84.25,1.14.42v1.45c-.31-.19-.68-.35-1.11-.47-.43-.12-.87-.18-1.3-.18-.99,0-1.49.27-1.49.81,0,.19.06.35.18.47.12.12.28.22.49.3.2.08.51.18.93.31l.46.14c.59.19,1.06.39,1.39.6.33.21.56.46.7.74.13.28.2.62.2,1.03,0,.62-.26,1.13-.79,1.51s-1.32.58-2.38.58c-.53,0-1.07-.06-1.61-.17Z" style="fill: #fff;"/>
      <path d="M8.61,1.5h4.64V0h1.59v2.63h-6.23v-1.13Z" style="fill: #fff;"/>
      <path d="M16.96,10.68c-.51-.42-.76-1.01-.76-1.77,0-.5.13-.94.38-1.32.25-.38.62-.68,1.09-.89.47-.21,1.02-.32,1.65-.32.9,0,1.68.15,2.34.46v-.33c0-.58-.17-1-.51-1.27s-.88-.41-1.64-.41c-.46,0-.9.05-1.34.14-.44.09-.82.22-1.15.38v-1.38c.3-.14.71-.26,1.23-.36.53-.1,1.04-.15,1.54-.15.75,0,1.4.12,1.95.35l.61-.7h1.95l-1.43,1.64c.36.41.54.98.54,1.73v4.64h-1.75v-2.87c-.62-.32-1.33-.47-2.13-.47-.52,0-.91.1-1.16.3-.26.2-.38.49-.38.87,0,.34.12.6.35.76.23.16.6.24,1.1.24.32,0,.59-.05.82-.14v1.35c-.34.11-.78.17-1.29.17-.83,0-1.49-.21-2-.63Z" style="fill: #fff;"/>
      <path d="M25.41,6.35c-.18-.2-.27-.52-.27-.95v-.89h1.59v.57c0,.14.03.24.09.29.06.06.17.08.31.08h1.64v1.2h-2.42c-.45,0-.76-.1-.94-.31ZM25.41,10.13c-.18-.2-.27-.52-.27-.95v-.89h1.59v.57c0,.14.03.24.09.29s.17.08.31.08h1.64v1.2h-2.42c-.45,0-.76-.1-.94-.31Z" style="fill: #fff;"/>
      <path d="M30.55,10.69c-.26-.27-.38-.66-.38-1.15V3.65h1.77v5.33c0,.24.05.41.15.5s.27.14.5.14h.49v1.48h-1.42c-.48,0-.85-.14-1.11-.41Z" style="fill: #fff;"/>
      <path d="M34.89,6.56l-.7-1.16c.51-.64,1.1-1.13,1.76-1.46.66-.33,1.43-.5,2.3-.5,1.16,0,2.05.26,2.67.78.62.52.93,1.24.93,2.16v4.72h-1.77v-4.58c0-.58-.15-1-.46-1.28-.31-.28-.76-.42-1.37-.42-.46,0-.86.07-1.2.2-.35.13-.67.34-.97.64l.57.92v4.53h-1.77v-4.54Z" style="fill: #fff;"/>
      <path d="M45.28,10.91c-.56-.27-.99-.64-1.3-1.12-.3-.48-.45-1.02-.45-1.64V3.65h1.77v4.43c0,.58.16,1.04.49,1.36.33.33.81.49,1.45.49s1.11-.16,1.43-.49c.33-.32.49-.78.49-1.36v-.63h-1.63v-1.48h1.63v-2.33h1.77v2.33h.75v1.48h-.75v.7c0,.61-.15,1.16-.45,1.64-.3.48-.73.85-1.29,1.12-.56.27-1.21.4-1.95.4s-1.4-.13-1.96-.4Z" style="fill: #fff;"/>
    </g>
  </g>
</svg>