<?xml version="1.0" encoding="UTF-8"?>
<svg id="Layer_2" data-name="Layer 2" xmlns="http://www.w3.org/2000/svg" viewBox="0 0 29.19 13.05">
  <g id="Layer_1-2" data-name="Layer 1">
    <g id="id-trang">
      <path d="M1.17,11.9c-.78-.77-1.17-1.91-1.17-3.4,0-1.03.14-1.93.43-2.69.28-.76.67-1.34,1.17-1.75.49-.41,1.06-.61,1.69-.61.86,0,1.47.35,1.82,1.04.19-.35.48-.61.87-.78.39-.17.82-.25,1.29-.25.78,0,1.37.25,1.76.75.39.5.59,1.17.59,2.01v6.6h-1.74v-6.48c0-.51-.08-.89-.24-1.13s-.43-.37-.82-.37c-.65,0-1.05.35-1.21,1.06h-1.02c-.06-.35-.17-.62-.33-.79-.17-.18-.4-.26-.71-.26-.53,0-.97.32-1.3.95-.33.64-.5,1.54-.5,2.72,0,1.09.24,1.89.71,2.42.48.52,1.21.78,2.2.78.43,0,.83-.06,1.19-.17v1.34c-.4.12-.89.19-1.48.19-1.36,0-2.43-.38-3.21-1.16Z" style="fill: #fff;"/>
      <path d="M13.05,12.84c-.65-.14-1.15-.35-1.51-.62v-1.4c.49.3,1.02.52,1.61.67.58.15,1.14.23,1.68.23.75,0,1.29-.09,1.62-.26s.49-.48.49-.91c0-.29-.08-.53-.24-.71s-.4-.34-.72-.48c-.32-.14-.83-.31-1.52-.51-1-.31-1.74-.67-2.23-1.08-.49-.41-.73-.99-.73-1.73,0-.84.32-1.48.97-1.93.65-.45,1.53-.67,2.65-.67.58,0,1.14.07,1.68.2.54.13.98.3,1.34.52v1.43c-.39-.24-.83-.43-1.33-.56-.5-.14-1.01-.21-1.53-.21-1.36,0-2.04.41-2.04,1.23,0,.31.09.55.28.73.19.18.44.33.75.45.31.12.84.29,1.57.5.73.21,1.29.45,1.7.7.41.25.7.54.87.88.17.34.25.76.25,1.26,0,.75-.31,1.35-.92,1.8-.61.45-1.54.68-2.77.68-.62,0-1.26-.07-1.91-.21Z" style="fill: #fff;"/>
      <path d="M14.05,1.98c-.22-.24-.33-.61-.33-1.1v-.89h1.57v.68c0,.19.04.32.11.39.07.07.21.1.42.1h4.02v1.17h-4.71c-.49,0-.84-.12-1.06-.37Z" style="fill: #fff;"/>
      <path d="M20.18,4.83h1.74l2.16,6.6c1.07,0,1.89-.29,2.47-.88.58-.59.87-1.42.87-2.5s-.2-1.87-.6-2.42-1.03-.82-1.91-.82c-.41,0-.81.05-1.19.15v-1.34c.45-.12.95-.19,1.48-.19,1.29,0,2.28.41,2.96,1.23.68.82,1.02,1.95,1.02,3.39,0,.99-.21,1.84-.64,2.55s-1,1.26-1.73,1.63c-.73.37-1.53.56-2.42.56h-1.63l-2.59-7.96Z" style="fill: #fff;"/>
    </g>
  </g>
</svg>