<?xml version="1.0" encoding="UTF-8"?>
<svg id="Layer_2" data-name="Layer 2" xmlns="http://www.w3.org/2000/svg" viewBox="0 0 24.44 6.36">
  <g id="Layer_1-2" data-name="Layer 1">
    <g id="id-trat">
      <path d="M.77,5.6c-.51-.51-.77-1.26-.77-2.25,0-.68.09-1.28.28-1.78s.44-.89.77-1.16c.33-.27.7-.41,1.12-.41.57,0,.97.23,1.2.69.13-.23.32-.41.57-.52.26-.11.54-.17.86-.17.52,0,.91.17,1.17.5.26.33.39.77.39,1.33v4.37h-1.15V1.9c0-.34-.05-.59-.16-.75-.1-.16-.29-.24-.54-.24-.43,0-.69.23-.8.7h-.67c-.04-.23-.11-.41-.22-.52-.11-.12-.26-.17-.47-.17-.35,0-.64.21-.86.63-.22.42-.33,1.02-.33,1.8,0,.72.16,1.25.47,1.6.32.35.8.52,1.45.52.29,0,.55-.04.79-.11v.89c-.26.08-.59.12-.98.12-.9,0-1.61-.25-2.12-.77Z" style="fill: #fff;"/>
      <path d="M8.63,6.22c-.43-.09-.76-.23-1-.41v-.92c.32.2.68.34,1.06.44s.76.15,1.11.15c.5,0,.85-.06,1.07-.17s.33-.32.33-.6c0-.2-.05-.35-.16-.47-.11-.12-.26-.23-.48-.32s-.55-.2-1.01-.34c-.66-.2-1.15-.44-1.47-.71-.32-.27-.48-.65-.48-1.14,0-.56.21-.98.64-1.28.43-.3,1.01-.44,1.76-.44.38,0,.75.04,1.11.13.36.09.65.2.88.34v.95c-.25-.16-.55-.28-.88-.37-.33-.09-.67-.13-1.01-.13-.9,0-1.35.27-1.35.81,0,.2.06.36.19.48s.29.22.5.3c.21.08.55.19,1.04.33.48.14.86.3,1.13.46.27.17.46.36.57.59.11.22.17.5.17.83,0,.5-.2.89-.61,1.19-.41.3-1.02.45-1.83.45-.41,0-.83-.05-1.26-.14Z" style="fill: #fff;"/>
      <path d="M15.69,2.3c0-.48-.1-.83-.29-1.05s-.54-.33-1.04-.33-.93.11-1.35.32V.33c.18-.09.42-.17.7-.23.29-.06.58-.1.86-.1.76,0,1.33.21,1.7.61.38.41.56,1,.56,1.76v3.82h-1.15v-3.9Z" style="fill: #fff;"/>
      <path d="M18.85,5.6c-.51-.51-.77-1.26-.77-2.25,0-.69.13-1.29.4-1.79s.65-.89,1.14-1.15c.5-.27,1.08-.4,1.77-.4,1.06,0,1.83.25,2.32.75.49.5.73,1.13.73,1.91v3.54h-1.15v-3.55c0-1.16-.63-1.73-1.9-1.73-.67,0-1.19.21-1.58.63-.38.42-.57,1.02-.57,1.8,0,.72.16,1.25.48,1.6.32.35.8.52,1.44.52.29,0,.55-.04.79-.11v.89c-.26.08-.59.12-.98.12-.9,0-1.61-.25-2.12-.77Z" style="fill: #fff;"/>
    </g>
  </g>
</svg>