<?xml version="1.0" encoding="UTF-8"?>
<svg id="Layer_2" data-name="Layer 2" xmlns="http://www.w3.org/2000/svg" viewBox="0 0 51.54 17.6">
  <g id="Layer_1-2" data-name="Layer 1">
    <g id="id-tak">
      <path d="M2.21,15.46c-1.47-1.42-2.21-3.5-2.21-6.24,0-1.87.27-3.5.81-4.89S2.1,1.87,3.05,1.12s2.02-1.12,3.21-1.12c1.54,0,2.66.59,3.36,1.78.39-.62.95-1.07,1.68-1.35.73-.28,1.53-.42,2.4-.42,1.5,0,2.63.47,3.39,1.42s1.15,2.21,1.15,3.78v11.93h-3.96V5.48c0-.83-.12-1.44-.37-1.82-.25-.38-.67-.58-1.28-.58-1.04,0-1.67.6-1.9,1.81h-2.21c-.12-1.2-.66-1.81-1.62-1.81-.85,0-1.54.52-2.07,1.57-.53,1.05-.79,2.57-.79,4.56,0,3.53,1.61,5.29,4.83,5.29.77,0,1.48-.1,2.15-.31v3.02c-.81.25-1.75.37-2.83.37-2.51,0-4.51-.71-5.98-2.13Z" style="fill: #fff;"/>
      <path d="M27.34,6.48c0-1.23-.24-2.1-.73-2.62-.49-.52-1.37-.78-2.63-.78-1.16,0-2.35.3-3.55.9V.9c.5-.25,1.16-.46,1.98-.64s1.62-.27,2.41-.27c2.14,0,3.75.58,4.84,1.74,1.09,1.16,1.64,2.82,1.64,4.98v10.4h-3.96V6.48Z" style="fill: #fff;"/>
      <path d="M35.97,6.98l-1.56-2.59c1.14-1.43,2.46-2.52,3.94-3.27s3.2-1.12,5.16-1.12c2.59,0,4.58.58,5.96,1.74,1.38,1.16,2.07,2.77,2.07,4.83v10.56h-3.96V6.88c0-1.29-.34-2.24-1.03-2.87s-1.7-.93-3.05-.93c-1.02,0-1.92.15-2.69.44-.78.29-1.5.77-2.17,1.43l1.28,2.06v10.12h-3.96V6.98Z" style="fill: #fff;"/>
    </g>
  </g>
</svg>