<?xml version="1.0" encoding="UTF-8"?>
<svg id="Layer_2" data-name="Layer 2" xmlns="http://www.w3.org/2000/svg" viewBox="0 0 56.4 17.97">
  <g id="Layer_1-2" data-name="Layer 1">
    <g id="id-udon-thani">
      <path d="M1.74,13.47c-.7-.16-1.28-.38-1.74-.66v-4.73h4.05v1.74h-1.91v1.87c.42.23.99.34,1.72.34.99,0,1.74-.27,2.24-.81s.76-1.33.76-2.36c0-.71-.11-1.28-.34-1.72-.23-.44-.6-.77-1.11-.98-.52-.21-1.21-.32-2.09-.32-.57,0-1.16.06-1.75.18s-1.08.29-1.48.52v-1.67c.45-.23.99-.4,1.61-.51.62-.12,1.29-.18,1.98-.18,1.71,0,3.03.41,3.97,1.22.93.82,1.4,1.97,1.4,3.47s-.45,2.68-1.34,3.54c-.89.87-2.18,1.3-3.86,1.3-.72,0-1.43-.08-2.13-.24Z" style="fill: #fff;"/>
      <path d="M6.85,16.23c0-.2-.03-.34-.1-.42-.07-.08-.2-.12-.4-.12h-.59v-1.37h1.57c.56,0,.95.1,1.15.31.2.21.3.59.3,1.14v2.19h-1.92v-1.74Z" style="fill: #fff;"/>
      <path d="M11.6,12.55c-.79-.77-1.19-1.9-1.19-3.38,0-1.03.21-1.93.62-2.67.41-.75,1-1.32,1.77-1.72.77-.4,1.68-.6,2.72-.6,1.65,0,2.86.38,3.63,1.15.76.77,1.15,1.76,1.15,2.99v5.15h-2.14v-5.16c0-.79-.21-1.39-.62-1.81-.41-.42-1.08-.63-2.02-.63s-1.61.29-2.13.87c-.52.58-.78,1.4-.78,2.46,0,.97.22,1.69.67,2.16s1.1.71,1.94.71c.42,0,.8-.06,1.17-.17v1.64c-.44.13-.95.2-1.54.2-1.37,0-2.46-.39-3.25-1.16Z" style="fill: #fff;"/>
      <path d="M23.6,13.5c-.66-.14-1.17-.34-1.54-.61v-1.67c.5.29,1.04.51,1.65.66s1.16.22,1.66.22c.68,0,1.16-.07,1.46-.2.3-.13.45-.39.45-.76,0-.26-.08-.46-.24-.62-.16-.15-.37-.28-.64-.38-.27-.1-.78-.26-1.52-.49-.97-.3-1.69-.67-2.17-1.1-.48-.43-.72-1.01-.72-1.74,0-.84.34-1.5,1.01-1.96s1.59-.69,2.73-.69c.61,0,1.19.06,1.75.19.56.13,1.02.3,1.38.51v1.76c-.37-.24-.82-.43-1.34-.57-.52-.15-1.05-.22-1.58-.22-1.2,0-1.81.33-1.81.98,0,.24.07.43.22.57.15.15.34.27.59.36.25.1.62.22,1.13.38l.56.17c.72.23,1.28.47,1.68.73s.68.56.84.89c.16.34.25.75.25,1.25,0,.75-.32,1.36-.96,1.83-.64.47-1.6.7-2.89.7-.64,0-1.29-.07-1.95-.2Z" style="fill: #fff;"/>
      <path d="M31.9,12.97c-.74-.49-1.11-1.16-1.11-2v-1.1h2.11v.94c0,.86.66,1.28,1.99,1.28s1.91-.38,1.91-1.15c0-.33-.08-.58-.24-.76-.16-.18-.41-.33-.74-.44-.34-.11-.89-.26-1.67-.44-1.14-.27-1.99-.6-2.55-.98s-.84-.95-.84-1.69c0-.84.37-1.47,1.11-1.87.74-.4,1.7-.61,2.87-.61.7,0,1.38.07,2.04.21.66.14,1.2.32,1.6.53v1.75c-.43-.26-.95-.46-1.56-.61-.61-.15-1.23-.22-1.85-.22-.7,0-1.22.05-1.56.15-.34.1-.51.32-.51.66,0,.29.15.51.46.66.31.15.87.33,1.68.54l.73.19c.79.21,1.4.44,1.85.67s.77.53.99.88c.21.35.32.8.32,1.37,0,.82-.35,1.48-1.05,1.99-.7.51-1.69.76-2.99.76s-2.24-.24-2.99-.73Z" style="fill: #fff;"/>
      <path d="M43.51,7.68c0-.66-.13-1.14-.4-1.42s-.74-.42-1.43-.42c-.63,0-1.27.16-1.92.49v-1.67c.27-.13.63-.25,1.07-.35s.88-.14,1.31-.14c1.16,0,2.03.31,2.62.94.59.63.89,1.53.89,2.7v5.64h-2.14v-5.77Z" style="fill: #fff;"/>
      <path d="M49.29,13.26c-.53-.3-.93-.71-1.21-1.23-.28-.52-.41-1.1-.41-1.75v-5.86h2.14v5.75c0,1.24.66,1.86,1.97,1.86,1.04,0,1.85-.46,2.43-1.38v-6.23h2.14v9.03h-2.06v-1.11c-.43.45-.91.79-1.46,1.02-.55.23-1.1.35-1.66.35-.73,0-1.36-.15-1.89-.45Z" style="fill: #fff;"/>
      <path d="M48.86,1.82h5.62V0h1.92v3.19h-7.54v-1.37Z" style="fill: #fff;"/>
    </g>
  </g>
</svg>