<?xml version="1.0" encoding="UTF-8"?>
<svg id="Layer_2" data-name="Layer 2" xmlns="http://www.w3.org/2000/svg" viewBox="0 0 50.12 13.5">
  <g id="Layer_1-2" data-name="Layer 1">
    <g id="id-uttaradit">
      <path d="M1.36,9.99c-.54-.12-1-.29-1.36-.51v-3.69h3.16v1.36h-1.49v1.46c.32.18.77.26,1.34.26.77,0,1.36-.21,1.75-.63.39-.42.59-1.04.59-1.84,0-.55-.09-1-.26-1.34-.18-.34-.47-.6-.87-.76-.4-.17-.95-.25-1.63-.25-.45,0-.9.05-1.36.14s-.85.23-1.15.4v-1.3c.35-.18.77-.31,1.26-.4s1-.14,1.55-.14c1.33,0,2.37.32,3.1.96.73.64,1.09,1.54,1.09,2.71s-.35,2.09-1.05,2.77c-.7.68-1.7,1.01-3.01,1.01-.56,0-1.12-.06-1.66-.18Z" style="fill: #fff;"/>
      <path d="M5.35,12.15c0-.16-.03-.27-.08-.33s-.16-.09-.32-.09h-.46v-1.07h1.23c.44,0,.74.08.9.24s.24.46.24.89v1.71h-1.5v-1.36Z" style="fill: #fff;"/>
      <path d="M9.06,9.27c-.62-.6-.93-1.48-.93-2.64,0-.79.11-1.48.34-2.07s.54-1.04.95-1.36c.4-.32.86-.47,1.36-.47.65,0,1.12.25,1.42.75.17-.26.4-.45.71-.57s.65-.18,1.01-.18c.63,0,1.11.2,1.44.6.33.4.49.93.49,1.6v5.05h-1.67v-4.93c0-.35-.05-.61-.16-.77s-.29-.24-.54-.24c-.44,0-.71.25-.8.76h-.93c-.05-.51-.28-.76-.69-.76-.36,0-.65.22-.88.67s-.34,1.09-.34,1.93c0,1.49.68,2.24,2.04,2.24.33,0,.63-.04.91-.13v1.28c-.34.11-.74.16-1.2.16-1.06,0-1.91-.3-2.53-.9Z" style="fill: #fff;"/>
      <path d="M18.42,10.01c-.51-.11-.92-.26-1.21-.47v-1.3c.39.23.81.4,1.28.51s.9.17,1.3.17c.53,0,.91-.05,1.14-.16s.35-.3.35-.59c0-.2-.06-.36-.18-.48s-.29-.22-.5-.3-.61-.21-1.19-.38c-.75-.24-1.32-.52-1.69-.86-.37-.33-.56-.79-.56-1.36,0-.66.26-1.17.79-1.53.53-.36,1.24-.54,2.13-.54.47,0,.93.05,1.36.15.44.1.79.23,1.07.4v1.37c-.29-.18-.64-.33-1.05-.45-.41-.11-.82-.17-1.23-.17-.94,0-1.41.25-1.41.76,0,.18.06.33.17.45s.27.21.46.28.49.17.88.3l.43.13c.56.18,1,.36,1.31.57s.53.43.66.7c.13.26.19.59.19.98,0,.59-.25,1.06-.75,1.43-.5.36-1.25.55-2.25.55-.5,0-1.01-.05-1.52-.16Z" style="fill: #fff;"/>
      <path d="M24.93,9.27c-.62-.6-.93-1.48-.93-2.64,0-.81.16-1.5.48-2.09.32-.58.78-1.03,1.38-1.34.6-.31,1.31-.47,2.13-.47,1.29,0,2.23.3,2.83.9.6.6.9,1.37.9,2.33v4.02h-1.67v-4.03c0-.61-.16-1.09-.48-1.42-.32-.33-.85-.49-1.57-.49s-1.26.23-1.67.68c-.41.45-.61,1.09-.61,1.92,0,.76.18,1.32.53,1.69.35.37.86.55,1.51.55.33,0,.63-.04.91-.13v1.28c-.34.11-.74.16-1.2.16-1.07,0-1.92-.3-2.54-.9Z" style="fill: #fff;"/>
      <path d="M25.83.9h5.89v1.07h-5.89V.9Z" style="fill: #fff;"/>
      <path d="M33.97,9.27c-.62-.6-.93-1.48-.93-2.64,0-.79.11-1.48.34-2.07s.54-1.04.95-1.36c.4-.32.86-.47,1.36-.47.65,0,1.12.25,1.42.75.17-.26.4-.45.71-.57s.65-.18,1.01-.18c.63,0,1.11.2,1.44.6.33.4.49.93.49,1.6v5.05h-1.67v-4.93c0-.35-.05-.61-.16-.77s-.29-.24-.54-.24c-.44,0-.71.25-.8.76h-.93c-.05-.51-.28-.76-.69-.76-.36,0-.65.22-.88.67s-.34,1.09-.34,1.93c0,1.49.68,2.24,2.04,2.24.33,0,.63-.04.91-.13v1.28c-.34.11-.74.16-1.2.16-1.06,0-1.91-.3-2.53-.9Z" style="fill: #fff;"/>
      <path d="M43.1,9.58c-.25-.26-.37-.62-.37-1.08v-2.82l-.66-1.09c.48-.61,1.04-1.07,1.67-1.38.63-.32,1.35-.47,2.18-.47,1.1,0,1.94.25,2.52.74.58.49.88,1.17.88,2.04v4.47h-1.67v-4.33c0-.54-.15-.95-.44-1.21-.29-.26-.72-.4-1.29-.4-.43,0-.81.06-1.14.18-.33.12-.63.33-.92.61l.54.87v2.27c0,.23.05.39.15.48.1.09.27.14.51.14h.71v1.4h-1.61c-.46,0-.82-.13-1.07-.4Z" style="fill: #fff;"/>
      <path d="M45.99,1.12c0-.37.1-.65.29-.84.19-.19.5-.28.93-.28h2.91v1.07h-2.24c-.15,0-.25.03-.31.09-.06.06-.08.17-.08.32v.49h-1.5v-.84Z" style="fill: #fff;"/>
    </g>
  </g>
</svg>