<?xml version="1.0" encoding="UTF-8"?>
<svg id="Layer_2" data-name="Layer 2" xmlns="http://www.w3.org/2000/svg" viewBox="0 0 48 15.02">
  <g id="Layer_1-2" data-name="Layer 1">
    <g id="id-uthai-thani">
      <path d="M1.4,11.28c-.55-.14-1.02-.33-1.4-.58v-3.79h3.17v1.17h-1.71v1.9c.41.25.96.37,1.65.37.91,0,1.61-.25,2.09-.76.48-.5.72-1.24.72-2.2s-.25-1.67-.74-2.13-1.29-.68-2.4-.68c-.5,0-1,.05-1.48.15-.49.1-.89.26-1.23.48v-1.16c.37-.21.81-.37,1.31-.47.5-.1,1.05-.16,1.63-.16,1.43,0,2.52.35,3.27,1.04.75.69,1.13,1.67,1.13,2.92s-.37,2.26-1.12,3c-.75.73-1.8,1.1-3.17,1.1-.59,0-1.16-.07-1.71-.21Z" style="fill: #fff;"/>
      <path d="M5.79,13.57c0-.17-.03-.29-.09-.35-.06-.06-.18-.09-.36-.09h-.47v-1.04h1.17c.43,0,.72.09.86.26.15.17.22.48.22.91v1.77h-1.33v-1.46Z" style="fill: #fff;"/>
      <path d="M8.97,3.64h1.4v1.03c.37-.42.81-.73,1.31-.93.5-.2,1.01-.31,1.52-.31.93,0,1.65.26,2.14.77.49.51.74,1.17.74,1.98v5.09h-1.46v-5.02c0-.53-.15-.94-.44-1.23-.29-.29-.75-.44-1.37-.44-1.04,0-1.83.43-2.38,1.3v5.39h-1.46V3.64Z" style="fill: #fff;"/>
      <path d="M12.51,2.2c-.19-.2-.28-.51-.28-.92v-.74h1.31v.57c0,.16.03.27.09.33.06.06.18.09.35.09h3.37v.98h-3.95c-.41,0-.71-.1-.89-.31Z" style="fill: #fff;"/>
      <path d="M18.63,10.86c-.66-.42-.99-1.03-.99-1.83,0-.42.12-.79.35-1.11.23-.32.54-.54.93-.66-.37-.16-.67-.39-.89-.7-.22-.3-.33-.66-.33-1.06,0-.63.21-1.13.63-1.51.42-.38,1.03-.57,1.84-.57.23,0,.46.02.7.05.24.03.43.07.57.11v1.14c-.12-.05-.28-.08-.48-.11-.19-.02-.37-.04-.54-.04-.41,0-.72.09-.93.26-.21.18-.32.43-.32.75,0,.34.11.6.34.78.23.18.57.27,1.01.27h.91v1.2h-.9c-.46,0-.81.1-1.06.29-.25.2-.37.49-.37.89,0,.42.19.74.58.97.38.23.91.34,1.58.34,1.57,0,2.35-.67,2.35-2V3.64h1.46v4.68c0,.53-.12,1.04-.37,1.52-.25.48-.65.88-1.22,1.18-.57.31-1.31.46-2.22.46-1.1,0-1.98-.21-2.64-.63Z" style="fill: #fff;"/>
      <path d="M27.61,10.88c-.62-.4-.93-.96-.93-1.68v-.96h1.44v.87c0,.43.17.74.52.95.35.2.82.31,1.41.31s1.04-.09,1.36-.29c.32-.19.48-.48.48-.87,0-.31-.07-.56-.21-.73-.14-.17-.36-.31-.66-.42s-.79-.24-1.46-.41c-.65-.15-1.17-.31-1.58-.48s-.73-.39-.96-.66c-.24-.28-.36-.63-.36-1.07,0-.69.3-1.21.91-1.53.6-.33,1.39-.49,2.35-.49.55,0,1.1.06,1.65.18.55.12.99.27,1.31.45v1.2c-.35-.21-.78-.37-1.28-.49-.5-.12-1.01-.18-1.53-.18-.65,0-1.13.06-1.46.17-.33.11-.49.35-.49.7,0,.21.08.38.23.51.15.13.36.25.61.34s.64.2,1.16.34l.51.14c.67.18,1.19.36,1.57.55s.67.43.86.73c.19.3.29.69.29,1.16,0,.69-.29,1.23-.86,1.65-.57.41-1.38.62-2.42.62s-1.82-.2-2.44-.61Z" style="fill: #fff;"/>
      <path d="M37.58,6.33c0-.61-.12-1.05-.37-1.33-.25-.28-.68-.42-1.31-.42s-1.18.13-1.71.4v-1.14c.23-.11.53-.21.89-.29.37-.08.73-.12,1.09-.12.96,0,1.68.26,2.15.78s.71,1.26.71,2.23v4.84h-1.46v-4.94Z" style="fill: #fff;"/>
      <path d="M41.67,10.7c-.52-.52-.78-1.2-.78-2.03V3.64h1.46v4.98c0,.57.16,1,.48,1.29s.79.44,1.41.44c.98,0,1.75-.44,2.31-1.31V3.64h1.46v7.63h-1.41v-1.03c-.71.83-1.63,1.24-2.74,1.24-.93,0-1.66-.26-2.18-.78Z" style="fill: #fff;"/>
      <path d="M41.82,1.53h4.84V0h1.33v2.51h-6.16v-.98Z" style="fill: #fff;"/>
    </g>
  </g>
</svg>