<?xml version="1.0" encoding="UTF-8"?>
<svg id="Layer_2" data-name="Layer 2" xmlns="http://www.w3.org/2000/svg" viewBox="0 0 61.47 13.26">
  <g id="Layer_1-2" data-name="Layer 1">
    <g id="id-ubon-ratchathani">
      <path d="M1.28,9.94c-.51-.12-.94-.28-1.28-.49v-3.49h2.99v1.28h-1.41v1.38c.31.17.73.25,1.27.25.73,0,1.28-.2,1.66-.6.37-.4.56-.98.56-1.74,0-.52-.08-.95-.25-1.27s-.44-.56-.82-.72-.9-.24-1.54-.24c-.42,0-.85.04-1.29.13-.44.09-.8.21-1.09.38v-1.23c.33-.17.73-.29,1.19-.38.46-.09.95-.13,1.46-.13,1.26,0,2.24.3,2.93.9.69.6,1.03,1.45,1.03,2.56s-.33,1.98-.99,2.61c-.66.64-1.61.96-2.84.96-.53,0-1.05-.06-1.57-.17Z" style="fill: #fff;"/>
      <path d="M5.05,11.98c0-.15-.03-.25-.08-.31-.05-.06-.15-.09-.3-.09h-.44v-1.01h1.16c.42,0,.7.08.85.23.15.15.22.43.22.84v1.62h-1.42v-1.28Z" style="fill: #fff;"/>
      <path d="M9.52,9.75c-.5-.24-.89-.57-1.16-1-.27-.43-.41-.92-.41-1.46V3.26h1.58v3.96c0,.52.14.93.44,1.22.29.29.72.44,1.29.44s.99-.15,1.28-.44c.29-.29.44-.7.44-1.22v-3.96h1.58v4.02c0,.55-.13,1.04-.4,1.46-.27.43-.65.76-1.15,1s-1.08.36-1.74.36-1.25-.12-1.75-.36Z" style="fill: #fff;"/>
      <path d="M16.49,9.55c-.45-.37-.68-.9-.68-1.58,0-.45.11-.84.34-1.18.23-.34.55-.61.97-.8s.91-.29,1.48-.29c.8,0,1.5.14,2.09.41v-.3c0-.51-.15-.89-.46-1.14-.3-.24-.79-.37-1.46-.37-.41,0-.81.04-1.2.12-.39.08-.74.2-1.03.34v-1.23c.27-.12.63-.23,1.1-.32.47-.09.93-.14,1.38-.14,1.08,0,1.89.25,2.43.73.54.49.81,1.15.81,1.97v4.15h-1.57v-2.56c-.56-.28-1.19-.42-1.91-.42-.46,0-.81.09-1.04.27-.23.18-.34.44-.34.78,0,.31.1.53.31.68.21.15.54.22.98.22.28,0,.53-.04.73-.12v1.21c-.31.1-.69.15-1.16.15-.74,0-1.33-.19-1.79-.56Z" style="fill: #fff;"/>
      <path d="M24.7,9.96c-.49-.1-.87-.25-1.14-.45v-1.23c.37.22.77.38,1.21.49s.85.16,1.23.16c.5,0,.86-.05,1.08-.15.22-.1.33-.29.33-.56,0-.19-.06-.34-.17-.45-.12-.11-.27-.21-.47-.28-.2-.07-.57-.19-1.12-.36-.71-.22-1.25-.49-1.6-.81-.35-.31-.53-.74-.53-1.28,0-.62.25-1.1.75-1.44.5-.34,1.17-.51,2.02-.51.45,0,.88.05,1.29.14.41.1.75.22,1.01.38v1.29c-.27-.17-.6-.32-.99-.42-.39-.11-.77-.16-1.16-.16-.89,0-1.33.24-1.33.72,0,.17.05.32.16.42.11.11.25.2.44.27.18.07.46.16.83.28l.41.12c.53.17.94.34,1.24.54.29.19.5.41.62.66s.18.56.18.92c0,.56-.24,1.01-.71,1.35-.47.34-1.18.52-2.13.52-.47,0-.95-.05-1.44-.15Z" style="fill: #fff;"/>
      <path d="M32.36,5.67c0-.49-.1-.84-.29-1.05s-.55-.31-1.05-.31c-.46,0-.94.12-1.42.36v-1.23c.2-.1.46-.18.79-.25.33-.07.65-.11.96-.11.85,0,1.5.23,1.94.7.44.46.65,1.13.65,1.99v4.16h-1.58v-4.26Z" style="fill: #fff;"/>
      <path d="M36.73,9.79c-.46-.21-.83-.51-1.08-.88-.26-.38-.39-.81-.39-1.29v-.31c0-.29.06-.56.19-.81.12-.25.29-.53.51-.83.15-.22.25-.39.31-.49.06-.1.09-.2.09-.3,0-.25-.15-.37-.46-.37h-.71v-1.25h1.54c.37,0,.67.11.89.32.22.21.33.5.33.85,0,.25-.05.48-.14.69-.1.21-.24.46-.42.76-.18.3-.32.55-.41.74-.09.2-.14.4-.14.63v.31c0,.42.13.74.39.97s.63.35,1.11.35c.51,0,.89-.14,1.16-.42.27-.28.41-.69.41-1.23,0-1.09-.44-1.63-1.33-1.63v-.83l1.27-1.69h1.69l-1.38,1.84c.47.22.81.52,1.02.9.21.37.31.85.31,1.42s-.13,1.05-.39,1.49c-.26.44-.62.78-1.1,1.02s-1.03.37-1.66.37-1.15-.11-1.62-.32Z" style="fill: #fff;"/>
      <path d="M43.39,9.57c-.55-.36-.82-.85-.82-1.48v-.81h1.56v.7c0,.63.49.95,1.47.95s1.41-.28,1.41-.85c0-.24-.06-.43-.17-.56s-.3-.24-.55-.32-.66-.19-1.23-.32c-.84-.2-1.47-.44-1.88-.72s-.62-.7-.62-1.25c0-.62.27-1.08.82-1.38s1.25-.45,2.12-.45c.51,0,1.02.05,1.51.16.49.1.88.23,1.18.39v1.29c-.32-.19-.7-.34-1.15-.45s-.91-.16-1.36-.16c-.51,0-.9.04-1.15.11s-.38.24-.38.49c0,.22.11.38.34.49.23.11.64.24,1.24.4l.54.14c.58.16,1.04.32,1.36.5.33.17.57.39.73.65.16.26.24.59.24,1.01,0,.61-.26,1.1-.77,1.47s-1.25.56-2.2.56-1.66-.18-2.2-.54Z" style="fill: #fff;"/>
      <path d="M51.96,5.67c0-.49-.1-.84-.29-1.05s-.55-.31-1.05-.31c-.46,0-.94.12-1.42.36v-1.23c.2-.1.46-.18.79-.25.33-.07.65-.11.96-.11.85,0,1.5.23,1.94.7.44.46.65,1.13.65,1.99v4.16h-1.58v-4.26Z" style="fill: #fff;"/>
      <path d="M56.23,9.78c-.39-.22-.69-.52-.89-.91-.2-.39-.3-.82-.3-1.29V3.26h1.58v4.25c0,.91.49,1.37,1.46,1.37.76,0,1.36-.34,1.79-1.02V3.26h1.58v6.66h-1.52v-.82c-.32.33-.67.58-1.08.75-.4.17-.81.25-1.23.25-.54,0-1-.11-1.39-.33Z" style="fill: #fff;"/>
      <path d="M55.9,1.34h4.15V0h1.42v2.35h-5.57v-1.01Z" style="fill: #fff;"/>
    </g>
  </g>
</svg>