<?xml version="1.0" encoding="UTF-8"?>
<svg id="Layer_2" data-name="Layer 2" xmlns="http://www.w3.org/2000/svg" viewBox="0 0 20.67 6.22">
  <g id="Layer_1-2" data-name="Layer 1">
    <g id="id-yala">
      <path d="M.76,5.73c-.51-.32-.76-.79-.76-1.41,0-.32.09-.61.27-.85.18-.25.42-.42.72-.51-.29-.12-.52-.3-.69-.54-.17-.23-.26-.51-.26-.81C.04,1.12.21.73.53.44c.32-.29.8-.44,1.42-.44.18,0,.36.01.54.04.18.03.33.05.44.08v.88c-.1-.04-.22-.06-.37-.08-.15-.02-.29-.03-.41-.03-.32,0-.56.07-.72.2s-.25.33-.25.58c0,.26.09.47.26.61.18.14.44.21.78.21h.7v.92h-.69c-.35,0-.62.08-.81.23s-.29.38-.29.69c0,.32.15.57.45.75.3.18.7.26,1.21.26,1.21,0,1.82-.51,1.82-1.54V.17h1.12v3.61c0,.41-.09.8-.29,1.17-.19.37-.5.67-.94.91s-1.01.36-1.71.36c-.85,0-1.53-.16-2.04-.48Z" style="fill: #fff;"/>
      <path d="M7.14,2.25c-.13-.15-.2-.37-.2-.67v-.63h1.01v.42c0,.12.03.2.08.25.05.05.14.07.28.07h1.29v.78h-1.77c-.32,0-.55-.07-.68-.22ZM7.14,5.26c-.13-.15-.2-.37-.2-.67v-.63h1.01v.42c0,.12.03.2.08.25.05.05.14.07.28.07h1.29v.78h-1.77c-.32,0-.55-.07-.68-.22Z" style="fill: #fff;"/>
      <path d="M11.16,5.73c-.38-.33-.58-.79-.58-1.39s.21-1.07.64-1.42c.43-.35,1.01-.53,1.74-.53s1.38.14,1.96.41v-.45c0-.51-.14-.88-.41-1.11-.27-.23-.73-.35-1.37-.35-.35,0-.7.03-1.03.1-.34.07-.63.16-.88.27V.38c.23-.11.54-.2.93-.27.39-.07.78-.11,1.15-.11.92,0,1.6.21,2.06.63.46.42.68.98.68,1.69v3.73h-1.12v-2.37c-.54-.27-1.15-.41-1.84-.41-.48,0-.83.09-1.05.26-.22.18-.34.44-.34.79,0,.67.43,1,1.29,1,.26,0,.5-.04.69-.11v.87c-.26.08-.59.12-.97.12-.65,0-1.17-.16-1.56-.49Z" style="fill: #fff;"/>
      <path d="M19.55,2.24c0-.47-.1-.81-.29-1.03-.19-.22-.53-.33-1.01-.33s-.91.1-1.32.31V.32c.18-.09.41-.16.69-.23s.56-.09.84-.09c.74,0,1.29.2,1.66.6.37.4.55.97.55,1.72v3.73h-1.12v-3.81Z" style="fill: #fff;"/>
    </g>
  </g>
</svg>