<?xml version="1.0" encoding="UTF-8"?>
<svg id="Layer_2" data-name="Layer 2" xmlns="http://www.w3.org/2000/svg" viewBox="0 0 27.58 8.05">
  <g id="Layer_1-2" data-name="Layer 1">
    <g id="id-yasothon">
      <path d="M.76,7.57c-.5-.32-.76-.78-.76-1.36,0-.29.08-.55.25-.78s.38-.39.65-.48c-.25-.12-.46-.29-.61-.51-.16-.22-.24-.48-.24-.76,0-.47.16-.85.48-1.13.32-.28.8-.43,1.43-.43.2,0,.38.01.57.04s.33.05.43.09v1.04c-.09-.04-.21-.07-.35-.09s-.27-.03-.38-.03c-.54,0-.81.2-.81.6,0,.22.07.38.2.48.13.1.35.16.64.16h.7v1.08h-.7c-.6,0-.89.24-.89.72,0,.25.12.45.37.59.25.14.59.22,1.02.22.55,0,.95-.11,1.2-.34.25-.22.38-.55.38-.99v-3.42h1.33v3.4c0,.4-.1.78-.29,1.14-.19.36-.51.66-.95.89s-1,.35-1.68.35c-.83,0-1.5-.16-2.01-.48Z" style="fill: #fff;"/>
      <path d="M7.72,7.59c-.19-.21-.29-.5-.29-.87v-3.82c0-.5-.09-.9-.28-1.18-.19-.28-.48-.51-.9-.68V0h3.53v1.11h-1.79c.51.37.77.98.77,1.82v3.37c0,.18.04.31.12.38s.2.1.38.1h.37v1.11h-1.07c-.36,0-.64-.1-.83-.31Z" style="fill: #fff;"/>
      <path d="M10.88,7.58c-.38-.31-.57-.76-.57-1.33,0-.38.1-.71.29-1,.19-.29.46-.51.82-.67.35-.16.77-.24,1.24-.24.68,0,1.27.12,1.76.35v-.25c0-.43-.13-.75-.38-.96s-.67-.31-1.23-.31c-.34,0-.68.04-1.01.1-.33.07-.62.16-.87.28v-1.04c.22-.1.53-.2.93-.27.4-.08.78-.12,1.16-.12.57,0,1.06.09,1.47.26l.46-.52h1.47l-1.08,1.24c.27.31.41.74.41,1.3v3.5h-1.32v-2.16c-.47-.24-1-.36-1.61-.36-.39,0-.68.08-.88.23s-.29.37-.29.66c0,.26.09.45.26.57.17.12.45.18.83.18.24,0,.44-.04.62-.1v1.02c-.26.08-.58.13-.98.13-.62,0-1.12-.16-1.51-.47Z" style="fill: #fff;"/>
      <path d="M17.76,7.6c-.46-.3-.69-.72-.69-1.24v-.68h1.31v.59c0,.53.41.8,1.24.8s1.19-.24,1.19-.71c0-.2-.05-.36-.15-.47-.1-.11-.25-.2-.46-.27s-.56-.16-1.04-.27c-.71-.17-1.24-.37-1.58-.61-.35-.24-.53-.59-.53-1.05,0-.53.23-.91.69-1.17s1.06-.38,1.78-.38c.43,0,.86.04,1.27.13.41.09.75.2,1,.33v1.09c-.27-.16-.59-.29-.97-.38s-.76-.14-1.15-.14c-.43,0-.76.03-.97.09-.21.06-.32.2-.32.41,0,.18.1.32.29.41.19.09.54.2,1.04.34l.45.12c.49.13.87.27,1.15.42s.48.33.61.55.2.5.2.85c0,.51-.22.92-.65,1.24s-1.05.47-1.86.47-1.4-.15-1.86-.46Z" style="fill: #fff;"/>
      <path d="M23.97,7.93c-.41-.08-.73-.21-.96-.38v-1.04c.31.18.65.32,1.02.41.38.09.72.14,1.03.14.42,0,.72-.04.91-.13s.28-.24.28-.47c0-.16-.05-.29-.15-.38-.1-.09-.23-.17-.4-.24s-.48-.16-.94-.3c-.6-.19-1.05-.42-1.35-.68-.3-.27-.45-.63-.45-1.08,0-.53.21-.93.63-1.22.42-.29.99-.43,1.7-.43.38,0,.74.04,1.09.12.35.08.63.19.86.32v1.09c-.23-.15-.51-.27-.83-.36s-.65-.14-.98-.14c-.75,0-1.12.2-1.12.61,0,.15.05.27.14.36s.21.17.37.23c.15.06.39.14.7.24l.35.1c.45.14.8.29,1.04.45.25.16.42.35.53.56s.15.47.15.78c0,.47-.2.85-.6,1.14-.4.29-1,.44-1.79.44-.4,0-.8-.04-1.21-.13Z" style="fill: #fff;"/>
    </g>
  </g>
</svg>